<?xml version="1.0" encoding="utf-8"?>
<!-- Generator: Adobe Illustrator 20.1.0, SVG Export Plug-In . SVG Version: 6.00 Build 0)  -->
<svg version="1.1" id="Layer_1" xmlns="http://www.w3.org/2000/svg" xmlns:xlink="http://www.w3.org/1999/xlink" x="0px" y="0px"
	 viewBox="0 0 907.9 840" style="enable-background:new 0 0 907.9 840;" xml:space="preserve">
<style type="text/css">
	.st0{fill:#70BEC3;}
	.st1{fill:#5E9EA6;}
	.st2{fill:#FBFBFA;}
	.st3{fill:#252E3E;}
	.st4{fill:#F0B350;}
	.st5{fill:#72BFC5;}
	.st6{fill:#E26D5E;}
	.st7{fill:#78BFC4;}
	.st8{fill:#86C6CB;}
	.st9{fill:#2D3342;}
	.st10{fill:#434654;}
	.st11{fill:#2A3140;}
	.st12{fill:#E3EFF0;}
	.st13{fill:#DEDCDE;}
</style>
<g>
	<path class="st0" d="M468.8,0c-6.5,0-13,0.2-19.5,0.5c0-0.1,0.1-0.1,0.1-0.2c0.1-0.1,0.1-0.2,0.2-0.3H468.8z"/>
	<path class="st1" d="M491.9,0c-0.2,0.3-0.4,0.5-0.5,0.6c-0.4,0.3-0.7,0.3-1.1-0.1c-0.1-0.1-0.3-0.3-0.4-0.5H491.9z"/>
	<path class="st1" d="M449.6,0c0,0.1-0.1,0.2-0.2,0.3c0,0.1-0.1,0.1-0.1,0.2c-0.1,0.1-0.2,0.2-0.3,0.3c-0.1,0-0.2,0.1-0.2,0.1
		c-0.1,0-0.2,0-0.3,0h-0.1c-0.1,0-0.2-0.1-0.4-0.3c-0.1-0.1-0.3-0.3-0.4-0.5h2V0z"/>
	<path class="st2" d="M663.6,204.6c0-7.8-2.4-9.4-9.7-9.4c-125.9,0.2-251.7,0.2-377.6,0.2c0,158.2-0.1,316.5-0.1,474.7
		c0,3.3-0.8,6.8,2.2,9.4c4.4-0.1,8.7-0.3,13.1-0.3c120.5,0,241-0.1,361.5,0.1c7.1,0,10.7-0.8,10.7-9.6
		C663.3,514.8,663.4,359.7,663.6,204.6z M313.4,221.9c12.7,0,25.4,0,38.1,0c3.1,0,5.2,1,5.3,4.5c0.1,4.2-2.7,4.9-6,4.9
		c-6,0-12,0-18.1,0l0,0c-6.4,0-12.7,0-19.1,0c-3,0-5.2-1-5.3-4.5C308.4,223.3,310.3,221.9,313.4,221.9z M317,238.1
		c59-0.1,118-0.1,177.1,0c3.1,0,7.9-2.1,8.2,4.2c0.3,7-4.8,5.1-8.4,5.1c-29.5,0.1-59,0.1-88.5,0.1s-59,0.1-88.5-0.1
		c-3.4,0-8.8,2.3-8.7-4.7C308.2,235.6,313.6,238.1,317,238.1z M324.8,274.5c14.4,0,28.7,0.3,43.1,0.5c22.5-0.1,45-0.2,67.5-0.3
		c65.1-0.1,130.2-0.1,195.3-0.4c6.5,0,8.6,2,8.7,8.7c0.3,24.9,0.5,24.9-24.6,24.8c-29.9,0-59.8-0.1-89.6-0.1
		c-29.9,0-59.7-0.1-89.6-0.1c-22.6,0-45.2-0.1-67.8-0.2c-5,0-10,0.1-15,0.1s-10,0-15,0.1c-10,0.1-20,0.1-30.1,0.3
		c-5.9,0.1-7.2-2.4-7.4-7.8C299.3,274.5,299.1,274.4,324.8,274.5z M518.3,477c0.1,6.9-2.6,8.5-8.9,8.4c-13.4-0.3-26.8-0.1-40.2-0.1
		c-13.1,0-26.1-0.3-39.2,0.1c-6.2,0.2-9-1.4-8.9-8.3c0.4-21.8,0.4-43.5,0-65.3c-0.1-6.9,2.6-8.4,8.9-8.4c26.5,0.2,52.9,0.2,79.4,0
		c6.2-0.1,9,1.4,8.9,8.4C517.9,433.4,517.9,455.2,518.3,477z M518.3,517.5c0,2.9-1.2,4.2-4.1,4.1c-4.3-0.1-8.6,0-12.9,0
		c-3.7,0-7.3-0.1-10.9,0c-3.4,0.2-4.8-1.2-4.7-4.6c0.1-2.9,1.3-4.1,4.2-4.1c8.3,0.1,16.6,0.1,24.9,0
		C517.9,512.9,518.3,514.8,518.3,517.5z M320.5,360.2c-2.7,0-5.4,0-8-0.2c-2.8-0.2-4-2-4-4.8c0.1-2.8,1.6-4.3,4.3-4.4
		c2.3-0.1,4.7-0.1,7-0.1c97.2,0,194.5,0,291.7,0c2.3,0,4.7,0,7,0.1c2.7,0.1,4.3,1.4,4.5,4.3c0.1,3.4-1.7,4.9-4.8,5
		c-2.7,0.1-5.4,0.1-8,0.1H465.3C417,360.2,368.7,360.2,320.5,360.2z M405.2,371.5c0,5-3.6,4.8-7,4.8c-4.7,0-9.5,0-14.2,0
		c-6.3,0-12.6,0-19,0c-5.7,0-11.4,0-17.1,0s-11.4,0-17.1,0c-3.2,0-6.2-0.3-6.3-4.6c-0.1-4.2,2.8-4.8,6.1-4.8c22.8,0,45.6,0,68.3,0
		C402.2,366.9,405.2,367.2,405.2,371.5z M509.1,334.6c30.2,0,60.3,0,90.5,0c3.3,0,7.2-0.4,7.2,4.6c0.1,5-3.7,4.8-7.1,4.8
		c-15.1,0-30.2,0-45.3,0s-30.2,0-45.3,0c-3.3,0-7.1,0.4-7.2-4.7C502,334.3,505.7,334.6,509.1,334.6z M405.6,334.6
		c23.8,0,47.5-0.1,71.3,0.1c3.3,0,8.7-2.7,9,4.3s-5,4.9-8.5,4.9c-48.2,0.1-96.4,0.1-144.6,0c-3.5,0-8.8,2.1-8.5-4.9s5.7-4.3,9-4.3
		C357.4,334.5,381.5,334.6,405.6,334.6z M425.3,366.9c8,0.1,15.9,0.1,23.9,0c3.4,0,4.7,1.4,4.7,4.8s-1.4,4.8-4.7,4.7
		c-3.7-0.1-7.5,0-11.2,0c-0.2,0-0.5,0-0.7,0c-1.3,0-2.5,0-3.8,0c-2.7,0-5.5,0-8.2,0c-3.8,0.1-4.1-2.3-4.1-5.2
		C421.1,368.2,422.4,366.9,425.3,366.9z M478,376.3c-3.4,0-8.1,1.2-8.2-4.6c-0.1-5.8,4.6-4.7,8-4.8c20.1-0.1,40.3,0,60.4,0
		s40.3-0.1,60.4,0c3.4,0,8.1-1.1,8.2,4.6c0.1,5.8-4.6,4.8-8.1,4.8C558.5,376.4,518.2,376.4,478,376.3z M542.3,410
		c0-4.8,1.8-6.5,6.4-6.4c28.2,0.1,56.3,0.1,84.5,0c5.1,0,6.1,2.4,6.1,6.8c-0.1,22.4-0.2,44.9,0,67.4c0.1,5.7-1.8,7.6-7.5,7.5
		c-13.7-0.3-27.5-0.1-41.2-0.1s-27.5-0.2-41.2,0.1c-5.1,0.1-7.2-1.4-7.1-6.8C542.5,455.6,542.5,432.8,542.3,410z M551.9,496.8
		c25.8-0.3,51.5-0.3,77.3,0c3.5,0,9.7-3.3,10,4c0.4,7.9-6.2,4.3-9.5,4.4c-13,0.4-26.1,0.2-39.1,0.2s-26.1,0.2-39.1-0.2
		c-3.1-0.1-8.9,3.2-9.1-3.9C542.2,493.4,548.6,496.8,551.9,496.8z M595.5,512.9c13.1,0.1,26.1,0.1,39.2,0c3.4,0,4.8,1.1,4.8,4.7
		c-0.1,3.9-2.3,4.2-5.3,4.1c-6.7-0.1-13.4,0-20.1,0c-6,0-12,0-18.1,0c-2.9,0-5.2-0.2-5.3-4.1C590.6,513.8,592.2,512.8,595.5,512.9z
		 M365,647.5c-0.2,4.2-3,3.7-5.6,3.8c-5.5,0-11.1,0-16.6,0h-10.5c-4.3,0-8.7,0-13.1,0h-13.1c-3,0-6.1,0.5-6-4.3
		c0-4.8,3.1-4.3,6.1-4.3c17.7,0,35.5,0,53.2,0C363,642.6,365.2,643.2,365,647.5z M300.3,557c-0.1-6.1,2.7-7.2,7.9-7.1
		c16.4,0.2,32.8,0.2,49.2,0c5.6-0.1,7.8,1.8,7.6,7.5c-0.3,8.3-0.1,16.7-0.1,25.1c0,8-0.3,16.1,0.1,24.1c0.3,6-1.6,8.4-7.9,8.2
		c-16.4-0.3-32.8-0.3-49.2,0c-5.6,0.1-7.7-1.9-7.6-7.5C300.5,590.4,300.6,573.7,300.3,557z M358.5,634.8c-17.3,0-34.7,0-52,0
		c-2.6,0-5.6,0.2-5.9-3.7c-0.2-4.5,3.1-4.4,6.1-4.4c8.3,0,16.7,0,25,0c9,0,18,0,27,0c2.7,0,5.6-0.2,5.8,3.7
		C364.9,634.9,361.5,634.8,358.5,634.8z M358.7,521.6c-17.4,0-34.9,0-52.3,0c-2.9,0-6.1,0.7-6.3-4.1c-0.2-5.5,3.6-4.6,6.8-4.6
		c3.8,0,7.5,0,11.3,0c4.9,0,9.9,0,14.8,0c8.4,0,16.8-0.1,25.1,0c3.2,0,7-1,6.8,4.6C364.8,522.3,361.6,521.6,358.7,521.6z
		 M371.9,505.3c-10.3,0.5-20.7,0.2-31.1,0.2s-20.7,0.3-31.1-0.2c-3.4-0.2-9.9,3.4-9.5-4.4c0.3-7.4,6.6-4,10-4
		c20.4-0.3,40.8-0.3,61.1,0c3.4,0,9.7-3.4,9.5,4.5C380.8,508.5,375.1,505.1,371.9,505.3z M307.3,485.2c-6.1,0.1-7.2-2.4-7.1-7.8
		c0.2-22.1,0.3-44.3,0-66.4c-0.1-5.7,1.7-7.7,7.4-7.5c13.7,0.3,27.5,0.1,41.2,0.1c13.4,0,26.8,0.2,40.2-0.1c5.9-0.2,8.3,1.3,8.2,7.8
		c-0.4,22.1-0.3,44.3,0,66.4c0.1,5.7-1.7,7.5-7.4,7.5C362.3,485,334.8,485,307.3,485.2z M435.4,651.3c-13-0.1-26,0-39,0
		c-2.8,0-5.2-0.2-5.2-4.1c0-3.7,1.8-4.5,4.9-4.4c6.7,0.1,13.3,0,20,0c6.3,0,12.7,0.1,19,0c3,0,5.2,0.3,5.2,4.2
		C440.4,650.5,438.6,651.3,435.4,651.3z M450.8,634.9h-28.2c-2.4,0-4.8,0-7.3,0c-6,0-11.9,0-17.9,0c-3.1,0-6.3,0.1-5.9-4.6
		c0.3-4,3.1-3.7,5.8-3.7c17.8,0,35.6,0,53.4,0c2.8,0,5.4,0.2,5.5,4.1C456.2,634.7,453.6,634.9,450.8,634.9z M448.3,614.8
		c-16.4-0.3-32.8-0.4-49.2,0c-6.3,0.2-8.1-2.1-7.8-8.1c0.4-8,0.1-16,0.1-24.1c0-8.4,0.4-16.8-0.1-25.1c-0.4-6.4,2.1-7.9,8.1-7.8
		c16.4,0.3,32.8,0.4,49.2,0c6.4-0.2,7.9,2.2,7.8,8.1c-0.3,16.4-0.4,32.8,0,49.2C456.5,613.3,454.3,615,448.3,614.8z M464.9,521.6
		c-6.7-0.1-13.4,0-20.1,0c-6.4,0-12.7-0.1-19.1,0c-3.6,0.1-4.6-1.6-4.5-4.9c0-3.2,1.7-3.9,4.5-3.9c13.1,0,26.1,0,39.2,0
		c3.1,0,5,0.6,5,4.4S468.1,521.7,464.9,521.6z M461.7,505.5c-11.4,0-22.7,0.1-34.1-0.1c-2.7,0-6.2,1.3-6.4-3.8c-0.3-5.2,2.9-5,6.4-5
		c22.7,0,45.5,0,68.2,0c3.5,0,6.7-0.3,6.4,5c-0.2,5.1-3.7,3.8-6.4,3.8C484.4,505.5,473.1,505.5,461.7,505.5z M542.1,651.2
		c-9,0-18,0-27,0c-8.7,0-17.4,0-26,0c-3.1,0-6.1,0.4-6.1-4.3s3.2-4.2,6.2-4.2c17.7,0,35.4,0,53.1,0c3,0,6.1-0.4,6,4.3
		C548.2,651.8,545,651.2,542.1,651.2z M483,630.8c0-3.8,2.1-4.2,5.2-4.2c13,0.1,26,0.1,39,0c3,0,5,0.5,5,4.3c0,3.9-2.3,4.2-5.1,4.2
		c-6.7,0-13.3,0-20,0c-6.3,0-12.7-0.1-19,0C485,635.1,482.9,634.5,483,630.8z M541.5,614.9c-17.4-0.3-34.8-0.3-52.2,0
		c-4.8,0.1-6.4-1.4-6.3-6.2c0.2-17.7,0.2-35.5,0-53.3c-0.1-4.4,1.5-5.7,5.8-5.7c17.8,0.2,35.5,0.2,53.3,0c4.7-0.1,6.5,1.2,6.3,6.2
		c-0.4,9-0.1,18.1-0.1,27.1c0,8.4-0.3,16.8,0.1,25.1C548.6,613.5,546.6,615,541.5,614.9z M570.3,521.6c-1.6-0.1-3.2-0.1-4.8-0.1
		c-2.4,0-4.8,0-7.3,0c-1.2,0-2.4,0-3.6,0c-2.8,0-5.6,0-8.4,0c-3.1,0.1-3.9-1.6-3.9-4.4c0-2.9,1.1-4.3,4.1-4.3c8,0,16,0,24.1,0
		c2.8,0,4.3,0.8,4.4,3.9C574.9,520.1,573.8,521.8,570.3,521.6z M602.7,651.3c-8-0.1-16,0-24,0c-2.9,0-4.1-1.2-4.1-4.2
		c0-2.8,0.8-4.4,3.9-4.4c4.3,0.1,8.7,0,13,0c3.7,0,7.3,0.1,11,0c3.5-0.2,4.6,1.4,4.6,4.7C607,650.5,605.4,651.3,602.7,651.3z
		 M633.9,634.9h-27.1c-2.4,0-4.8,0-7.1,0c-6.3,0-12.6,0-18.9,0c-3,0-6.3,0.2-6-4.5c0.3-4,3.1-3.7,5.8-3.7c17.7,0,35.4,0,53.1,0
		c2.8,0,5.4,0.1,5.5,4C639.2,634.6,636.7,634.9,633.9,634.9z M637.1,613c-6.1,5.9-19.2,1.4-29.1,1.7c-8.4,0.3-16.8-0.2-25.1,0.2
		c-5.8,0.2-8.4-1.2-8.3-7.7c0.4-16.7,0.3-33.5,0-50.3c-0.1-5.1,1.4-7.2,6.8-7.1c17.1,0.3,34.2,0.3,51.3,0c5.5-0.1,6.8,2.2,6.7,7.1
		c-0.3,8.7-0.1,17.4-0.1,27.9C638.2,593.3,643.7,606.5,637.1,613z"/>
	<path class="st3" d="M664.2,165.1c-0.2,3-0.6,6-0.6,9c-0.2,19.6-0.2,19.6-20.3,19.6c-122.3,0-244.6-0.1-366.9-0.1
		c-0.3-10.3-4.3-23.2,1.4-30.2c5.2-6.3,18.3-1.9,27.9-1.9c115.8-0.2,231.6-0.1,347.4,0C656.9,161.5,662.2,158.9,664.2,165.1z"/>
	<path class="st4" d="M590.6,485.1c-13.7,0-27.5-0.2-41.2,0.1c-5.1,0.1-7.2-1.4-7.1-6.8c0.2-22.8,0.2-45.6,0-68.4
		c0-4.8,1.8-6.5,6.5-6.4c28.1,0.1,56.3,0.1,84.4,0c5.1,0,6.1,2.4,6.1,6.8c-0.1,22.5-0.2,44.9,0.1,67.4c0.1,5.7-1.8,7.6-7.5,7.5
		C618.1,484.9,604.4,485.1,590.6,485.1z"/>
	<path class="st5" d="M469.3,485.2c-13.1,0-26.1-0.2-39.2,0.1c-6.2,0.2-9-1.4-8.9-8.3c0.4-21.8,0.4-43.5,0-65.3
		c-0.1-6.9,2.6-8.4,8.9-8.4c26.5,0.2,52.9,0.2,79.4,0c6.2-0.1,9,1.4,8.9,8.4c-0.4,21.8-0.4,43.5,0,65.3c0.1,6.9-2.6,8.5-8.9,8.4
		C496.1,485,482.7,485.2,469.3,485.2z"/>
	<path class="st6" d="M348.8,403.7c13.4,0,26.8,0.2,40.2-0.1c5.9-0.1,8.3,1.3,8.2,7.8c-0.4,22.1-0.3,44.3,0,66.4
		c0.1,5.7-1.7,7.6-7.4,7.5c-27.5-0.2-55-0.3-82.5,0c-6.1,0.1-7.2-2.4-7.1-7.8c0.2-22.1,0.3-44.3,0-66.4c-0.1-5.7,1.7-7.6,7.4-7.5
		C321.3,403.9,335.1,403.7,348.8,403.7z"/>
	<path class="st7" d="M639.4,283c-0.1-6.7-2.2-8.7-8.7-8.7c-65.1,0.3-130.2,0.3-195.3,0.4c1.2,11,0.9,21.9,0.2,32.9l0,0
		c29.9,0,59.8,0.1,89.6,0.1c29.9,0,59.7,0.1,89.6,0.1C639.9,307.9,639.6,307.9,639.4,283z M462.8,287.1c5.9-0.4,11.9,0.2,17.9,0.5
		c2.3,0.1,5.1,0.2,5.2,3.3c0.1,3.9-3,3.7-5.7,3.9c-3,0.1-6,0-8.9,0c0,0.2,0,0.4,0,0.7c-3-0.2-6-0.1-8.9-0.6c-3.2-0.5-8.7,1.7-8.4-4
		C454.1,285.8,459.6,287.4,462.8,287.1z M549.5,295.8c-1.6,0-3.1,0-4.7,0c-2.5,0-4.9,0-7.4,0c-1.3,0-2.5,0-3.7,0c-2.8,0-5.5,0-8.3,0
		c-2.5,0-4.7-0.6-5-3.7c-0.3-3.3,1.3-5.3,4.5-5.4c8.4-0.2,16.8-0.2,25.1-0.1c2.7,0,4.3,1.5,4.4,4.3
		C554.5,294.3,552.7,295.8,549.5,295.8z M617.9,295.6c-4.4,0-8.7,0-13.1,0c-3.7,0-7.4,0-11.1,0c-3.1,0-5.2-1.1-5.1-4.6
		c0-3,1.7-4.2,4.5-4.3c8.4,0,16.8,0,25.2,0.2c2.7,0.1,4.2,1.7,4.2,4.6C622.4,294.6,620.6,295.6,617.9,295.6z"/>
	<path class="st6" d="M391.4,582.6c0-8.4,0.4-16.7-0.1-25.1c-0.4-6.4,2.1-7.9,8.1-7.8c16.4,0.3,32.8,0.4,49.2,0
		c6.4-0.2,7.9,2.2,7.8,8.1c-0.3,16.4-0.4,32.8,0,49.2c0.2,6.3-2.1,8-8.1,7.8c-16.4-0.4-32.8-0.4-49.2,0c-6.3,0.2-8.1-2.1-7.8-8.1
		C391.7,598.7,391.4,590.7,391.4,582.6z"/>
	<path class="st0" d="M364.9,582.4c0,8-0.3,16.1,0.1,24.1c0.3,6-1.6,8.4-7.9,8.2c-16.4-0.3-32.8-0.3-49.2,0
		c-5.6,0.1-7.7-1.9-7.6-7.5c0.3-16.7,0.3-33.4,0-50.2c-0.1-6.1,2.7-7.2,7.9-7.1c16.4,0.2,32.8,0.2,49.2,0c5.6-0.1,7.8,1.8,7.6,7.5
		C364.6,565.7,364.9,574,364.9,582.4z"/>
	<path class="st3" d="M548.2,583.1c0,8.4-0.3,16.8,0.1,25.1c0.3,5.4-1.7,6.8-6.8,6.8c-17.4-0.3-34.8-0.2-52.2,0
		c-4.8,0.1-6.4-1.4-6.3-6.2c0.2-17.7,0.2-35.5,0-53.3c0-4.4,1.5-5.7,5.8-5.7c17.7,0.2,35.5,0.2,53.3,0c4.7-0.1,6.5,1.2,6.3,6.2
		C548,565,548.2,574,548.2,583.1z"/>
	<path class="st4" d="M639.2,584.8c-1,8.5,4.5,21.7-2.2,28.2c-6.1,5.9-19.2,1.4-29.1,1.7c-8.4,0.2-16.8-0.2-25.1,0.1
		c-5.8,0.2-8.4-1.1-8.3-7.7c0.4-16.7,0.3-33.5,0.1-50.3c-0.1-5.1,1.4-7.2,6.8-7.1c17.1,0.3,34.2,0.3,51.3,0c5.5-0.1,6.8,2.2,6.7,7.1
		C639,565.6,639.2,574.3,639.2,584.8z"/>
	<path class="st8" d="M465.3,360.2c-48.3,0-96.6,0-144.8,0c-2.7,0-5.4,0-8-0.2c-2.8-0.2-4-2-4-4.7c0.1-2.8,1.6-4.3,4.3-4.4
		c2.3-0.1,4.7-0.1,7-0.1c97.2,0,194.4,0,291.7,0c2.3,0,4.7,0,7,0.1c2.7,0.1,4.3,1.4,4.5,4.3c0.1,3.4-1.7,4.9-4.8,5
		c-2.7,0.1-5.4,0.1-8,0.1C561.8,360.2,513.6,360.2,465.3,360.2z"/>
	<path class="st9" d="M435.3,274.8c-22.5,0.1-45,0.2-67.5,0.3c0,10.8-0.1,21.6-0.1,32.5l0,0c22.6,0,45.2,0.1,67.8,0.2l0,0
		C436.2,296.7,436.5,285.7,435.3,274.8z M384.9,290.6c0-2.6,1.6-3.3,3.8-3.3c2.3,0,4.6,0,7,0h7c2,0,4,0,6,0s4,0,6,0
		c2.5,0,4.6,0.3,4.6,3.7c0,2.9-1.1,4.4-4,4.4c-9,0-17.9,0-26.8,0C385.1,295.4,384.9,293.1,384.9,290.6z"/>
	<path class="st10" d="M405.4,247.4c-29.5,0-59,0.1-88.5-0.1c-3.4,0-8.8,2.3-8.7-4.7c0.1-7,5.5-4.5,8.9-4.5
		c59-0.1,118.1-0.1,177.1,0c3.1,0,7.9-2.1,8.2,4.2c0.3,7-4.8,5.1-8.4,5.1C464.4,247.5,434.9,247.4,405.4,247.4z"/>
	<path class="st7" d="M324.8,274.5c-25.6-0.1-25.5,0-24.5,25.7c0.2,5.4,1.5,7.9,7.4,7.8c10-0.2,20-0.3,30.1-0.3c5,0,10-0.1,15-0.1
		s10,0,15-0.1l0,0c0-10.8,0.1-21.7,0.1-32.5C353.5,274.8,339.1,274.5,324.8,274.5z M345.1,295.9h-11c-2,0-4,0-6,0s-4,0-6,0
		c-3,0-5.2-0.9-5.4-4.4c-0.1-3.4,1.7-4.8,4.9-4.9c8,0,16,0,24,0c3,0,5.3,0.9,5.4,4.4C351.1,295.1,348.4,295.8,345.1,295.9z"/>
	<path class="st10" d="M405.6,334.6c23.8,0,47.5-0.1,71.3,0.1c3.3,0,8.7-2.7,9,4.3s-5,4.9-8.5,4.9c-48.2,0.1-96.4,0.1-144.6,0
		c-3.5,0-8.8,2.1-8.5-4.9s5.7-4.3,9-4.3C357.4,334.5,381.5,334.6,405.6,334.6z"/>
	<path class="st8" d="M538.2,366.9c20.1,0,40.3,0,60.4,0c3.4,0,8.1-1.1,8.2,4.6c0.1,5.8-4.6,4.8-8.1,4.8c-40.3,0.1-80.5,0.1-120.8,0
		c-3.4,0-8.1,1.2-8.2-4.6c-0.1-5.8,4.6-4.7,8-4.8C498,366.8,518.1,366.9,538.2,366.9z"/>
	<path class="st8" d="M554.5,344.1c-15.1,0-30.2,0-45.3,0c-3.3,0-7.1,0.4-7.2-4.7c-0.1-5,3.7-4.8,7.1-4.8c30.2,0,60.4,0,90.5,0
		c3.3,0,7.2-0.4,7.2,4.6c0.1,5-3.7,4.8-7.1,4.8C584.7,344.1,569.6,344.1,554.5,344.1z"/>
	<path class="st9" d="M590.6,505.4c-13,0-26.1,0.2-39.1-0.2c-3.1-0.1-8.9,3.2-9.1-3.9c-0.2-7.9,6.2-4.5,9.5-4.5
		c25.7-0.3,51.5-0.3,77.2,0c3.5,0,9.7-3.3,10,4c0.4,7.9-6.1,4.3-9.5,4.4C616.7,505.7,603.6,505.4,590.6,505.4z"/>
	<path class="st9" d="M461.7,505.4c-11.4,0-22.7,0.1-34.1,0c-2.7,0-6.2,1.3-6.4-3.8c-0.3-5.2,2.9-5,6.4-5c22.7,0,45.5,0,68.2,0
		c3.5,0,6.7-0.3,6.4,5c-0.2,5.1-3.7,3.8-6.4,3.8C484.4,505.5,473.1,505.4,461.7,505.4z"/>
	<path class="st8" d="M365,376.4c-11.4,0-22.8,0-34.2,0c-3.2,0-6.2-0.3-6.3-4.6c-0.1-4.2,2.8-4.8,6.1-4.8c22.8,0,45.6,0,68.4,0
		c3.2,0,6.2,0.3,6.2,4.6c0,5-3.6,4.8-7,4.8C387.1,376.4,376.1,376.4,365,376.4z"/>
	<path class="st9" d="M340.9,505.4c-10.4,0-20.7,0.3-31.1-0.2c-3.4-0.2-9.9,3.4-9.5-4.4c0.3-7.4,6.6-4,10-4
		c20.4-0.3,40.8-0.3,61.1,0c3.4,0.1,9.7-3.4,9.5,4.5c-0.2,7.2-5.9,3.8-9.1,3.9C361.6,505.7,351.2,505.4,340.9,505.4z"/>
	<path class="st9" d="M333.1,512.9c8.4,0,16.8-0.1,25.1,0c3.2,0,7-1,6.8,4.6c-0.2,4.8-3.4,4.1-6.3,4.1c-17.4,0-34.9,0-52.3,0
		c-2.9,0-6.1,0.7-6.3-4.1c-0.2-5.5,3.6-4.6,6.8-4.6C315.6,512.8,324.3,512.9,333.1,512.9z"/>
	<path class="st6" d="M422.6,634.9c-8.4,0-16.8,0-25.2,0c-3.1,0-6.3,0.1-5.9-4.6c0.3-4,3.2-3.7,5.8-3.7c17.8,0,35.6,0,53.4,0
		c2.9,0,5.4,0.2,5.5,4.1c0.1,4-2.5,4.1-5.3,4.2C441.4,634.9,432,634.9,422.6,634.9z"/>
	<path class="st5" d="M331.8,626.6c9,0,18,0,27,0c2.7,0,5.6-0.2,5.8,3.7c0.3,4.6-3.1,4.4-6.1,4.4c-17.3,0-34.7,0-52,0
		c-2.6,0-5.6,0.2-5.9-3.7c-0.2-4.5,3.1-4.4,6.1-4.4C315.1,626.6,323.4,626.6,331.8,626.6z"/>
	<path class="st4" d="M606.8,634.9c-8.7,0-17.4,0-26.1,0c-3.1,0-6.3,0.2-6-4.5c0.3-4,3.1-3.7,5.7-3.7c17.7,0,35.4,0,53.1,0
		c2.8,0,5.4,0.1,5.5,4s-2.4,4.2-5.3,4.2C624.8,634.9,615.8,634.9,606.8,634.9z"/>
	<path class="st11" d="M332.3,651.2c-8.7,0-17.4,0-26.1,0c-3,0-6.1,0.5-6.1-4.3s3.1-4.3,6.1-4.3c17.7,0,35.5,0,53.2,0
		c3.5,0,5.7,0.5,5.5,4.8c-0.2,4.2-3,3.7-5.6,3.7C350.4,651.3,341.3,651.2,332.3,651.2z"/>
	<path class="st11" d="M515.1,651.2c-8.7,0-17.4,0-26,0c-3.1,0-6.1,0.4-6.1-4.3c0.1-4.7,3.2-4.2,6.2-4.2c17.7,0,35.4,0,53.1,0
		c3,0,6.1-0.4,6,4.3c0,4.8-3.3,4.2-6.2,4.2C533.1,651.3,524.1,651.2,515.1,651.2z"/>
	<path class="st8" d="M332.8,231.2c-6.4,0-12.7,0-19.1,0c-3,0-5.2-1-5.3-4.5c-0.1-3.4,1.9-4.8,5-4.8c12.7,0,25.4,0,38.1,0
		c3.1,0,5.2,1,5.3,4.5c0.1,4.2-2.7,4.9-6,4.9C344.8,231.3,338.8,231.3,332.8,231.2C332.8,231.3,332.8,231.3,332.8,231.2z"/>
	<path class="st9" d="M444.8,521.6c-6.4,0-12.7-0.1-19.1,0c-3.6,0.1-4.6-1.6-4.5-4.9c0.1-3.2,1.7-3.9,4.5-3.9
		c13.1,0,26.1,0.1,39.2,0c3.1,0,5,0.6,5,4.4c0,3.8-1.8,4.4-5,4.4C458.2,521.5,451.5,521.6,444.8,521.6z"/>
	<path class="st9" d="M614,521.6c-6,0-12.1,0-18.1,0c-2.9,0-5.2-0.2-5.3-4.1c-0.1-3.6,1.6-4.6,4.8-4.6c13.1,0.1,26.1,0.1,39.2,0
		c3.4,0,4.8,1.1,4.8,4.6c-0.1,3.9-2.3,4.1-5.3,4.1C627.4,521.5,620.7,521.6,614,521.6z"/>
	<path class="st11" d="M507,635.1c-6.3,0-12.7-0.1-19,0c-3.1,0-5.1-0.6-5.1-4.3c0-3.8,2.1-4.2,5.2-4.2c13,0.1,26,0.1,39,0
		c3,0,5,0.5,5,4.3c0,3.9-2.3,4.2-5.1,4.2C520.3,635,513.7,635.1,507,635.1z"/>
	<path class="st11" d="M416.2,642.7c6.3,0,12.7,0.1,19,0c3,0,5.2,0.3,5.2,4.2c0,3.7-1.8,4.5-5,4.4c-13-0.1-26,0-39,0
		c-2.8,0-5.2-0.2-5.2-4.1c0-3.7,1.8-4.5,4.9-4.4C402.8,642.8,409.5,642.7,416.2,642.7z"/>
	<path class="st10" d="M437.2,376.3c-4,0-8-0.1-11.9,0c-3.8,0.1-4.1-2.3-4.1-5.2c0-2.9,1.2-4.2,4.2-4.2c8,0.1,15.9,0.1,23.9,0
		c3.4,0,4.7,1.4,4.7,4.8s-1.4,4.8-4.7,4.7C445.2,376.2,441.2,376.3,437.2,376.3z"/>
	<path class="st9" d="M501.2,521.6c-3.6,0-7.3-0.1-10.9,0c-3.4,0.1-4.8-1.2-4.7-4.6c0.1-2.9,1.3-4.1,4.2-4.1
		c8.3,0.1,16.6,0.1,24.9,0c3.3,0,3.6,2,3.7,4.6c0,2.9-1.2,4.2-4.1,4.1C509.9,521.5,505.5,521.6,501.2,521.6z"/>
	<path class="st9" d="M558.2,521.6c-4,0-8-0.1-12,0c-3.1,0.1-3.9-1.7-3.9-4.4c0-2.9,1.1-4.3,4.1-4.3c8,0,16,0.1,24.1,0
		c2.8,0,4.3,0.8,4.4,3.9c0.1,3.3-1,5-4.5,4.8C566.2,521.4,562.2,521.6,558.2,521.6z"/>
	<path class="st11" d="M591.5,642.7c3.7,0,7.3,0.1,11,0c3.5-0.2,4.6,1.4,4.6,4.7c-0.1,3.2-1.7,3.9-4.4,3.9c-8-0.1-16,0-24,0
		c-2.9,0-4.1-1.2-4.1-4.2c0-2.8,0.8-4.4,3.9-4.4C582.8,642.7,587.2,642.7,591.5,642.7z"/>
	<path class="st12" d="M537.5,295.8c-4,0-8,0.1-12.1,0c-2.5,0-4.7-0.6-5-3.7c-0.3-3.3,1.3-5.3,4.5-5.4c8.4-0.2,16.8-0.2,25.1-0.1
		c2.7,0,4.3,1.5,4.4,4.3c0.1,3.4-1.7,4.9-4.9,4.9C545.5,295.8,541.5,295.8,537.5,295.8z"/>
	<path class="st2" d="M604.8,295.6c-3.7,0-7.4,0-11.1,0c-3.1,0-5.2-1.1-5.1-4.6c0.1-3,1.7-4.2,4.5-4.2c8.4,0,16.8,0,25.2,0.1
		c2.7,0.1,4.2,1.7,4.2,4.6c0,3-1.9,4.1-4.6,4.1C613.5,295.7,609.2,295.6,604.8,295.6z"/>
	<path class="st2" d="M471.2,295.4c-3-0.2-6-0.1-8.9-0.6c-3.2-0.5-8.7,1.7-8.4-3.9c0.2-5.2,5.8-3.5,8.9-3.8
		c5.9-0.4,11.9,0.2,17.9,0.5c2.3,0.1,5.1,0.2,5.2,3.3c0.1,3.9-3,3.7-5.7,3.9c-3,0.1-6,0-8.9,0C471.2,295,471.2,295.2,471.2,295.4z"
		/>
	<path class="st13" d="M402.7,287.3c4,0,8,0,11.9,0c2.5,0,4.6,0.3,4.6,3.7c0,2.9-1.1,4.4-4,4.4c-9,0-17.9,0-26.9,0
		c-3.3,0-3.5-2.2-3.5-4.8c0-2.6,1.6-3.3,3.8-3.3C393.4,287.3,398,287.3,402.7,287.3z"/>
	<path class="st12" d="M334.1,295.9c-4,0-8,0-12,0c-3,0-5.2-0.9-5.4-4.4c-0.1-3.4,1.7-4.9,4.9-4.9c8,0,16,0,24,0
		c3,0,5.3,0.9,5.4,4.4c0.1,4.2-2.6,4.9-5.9,4.9C341.5,295.9,337.8,295.9,334.1,295.9z"/>
</g>
</svg>
