<?xml version="1.0" encoding="utf-8"?>
<!-- Generator: Adobe Illustrator 20.1.0, SVG Export Plug-In . SVG Version: 6.00 Build 0)  -->
<svg version="1.1" id="Layer_1" xmlns="http://www.w3.org/2000/svg" xmlns:xlink="http://www.w3.org/1999/xlink" x="0px" y="0px"
	 viewBox="0 0 907.9 840" style="enable-background:new 0 0 907.9 840;" xml:space="preserve">
<style type="text/css">
	.st0{fill:#545E6C;}
	.st1{fill:#56606E;}
	.st2{fill:#6EC3A8;}
	.st3{fill:#F4F3EF;}
	.st4{fill:#E86B56;}
	.st5{fill:#FBCF18;}
	.st6{fill:#8D8446;}
	.st7{fill:#455471;}
	.st8{fill:#E2E2E2;}
	.st9{fill:#FCD5CD;}
	.st10{fill:#FFFBEA;}
</style>
<g>
	<path class="st0" d="M521.5,220.6c-0.3,91.8-0.6,183.7-0.8,275.5c-0.1,30,0.2,60-0.1,90c-0.2,26.2-12.1,37.9-38.4,38.2
		c-18.4,0.2-36.7,0.2-55.1,0c-26.1-0.3-37.8-12.1-37.9-38.3c-0.2-121.9-0.3-243.7-0.4-365.6c6.4-19.8,20-27.6,40.6-26.4
		c16.4,1,33,1.2,49.5,0C500.1,192.6,514.2,200.6,521.5,220.6z M418.5,334.6c0,28.8-0.1,57.5,0,86.3c0.1,20.4,5.9,26.1,26,26.7
		c4.9,0.1,9.8,0,14.7,0c27.3-0.1,32.4-5,32.4-31.7c0.1-49.6,0-99.2,0-148.7c0-47-0.3-47.3-46.6-46.6c-20.8,0.3-26.3,5.5-26.5,25.9
		C418.3,275.8,418.5,305.2,418.5,334.6z M496.8,541.5c0.3-24.1-17.1-42.1-41-42.2c-23.4-0.2-41,16.6-41.7,39.6
		c-0.7,24.1,16.4,42.7,40,43.4C477.9,582.9,496.5,565.1,496.8,541.5z"/>
	<path class="st0" d="M377.4,221c0.1,121.1,0.2,242.2,0.2,363.3c0,28.1-12.3,39.9-40.4,40.1c-19,0.1-37.9,0.4-56.9-0.1
		c-21.5-0.6-34-13-34.6-34.6c-0.7-28.7-0.7-57.4-1-86.2c0.3-87.5,0.5-175.1,0.8-262.6c0.1-38,8.5-46.6,46.2-46.6
		c15.3,0,30.7,0.8,45.9-0.2C358.3,192.8,371.3,201.4,377.4,221z M275.4,333.4c0,23.3,0,46.6,0,69.8c0,44.8,0.1,44.9,45.1,44.1
		c21.8-0.4,27.1-5.5,27.1-27.4c0.2-50.9,0-101.7,0-152.6c0-48,0-47.6-48-46.8c-17,0.3-24.6,7.5-24.3,24.5
		C275.7,274.5,275.4,303.9,275.4,333.4z M313.2,582.4c23.3-1.1,40.8-20.2,40-43.6c-0.9-23.2-19.8-40.4-43.6-39.6
		c-23.2,0.8-41.4,20.3-40.2,43.2C270.6,565.5,290.3,583.5,313.2,582.4z"/>
	<path class="st0" d="M665.8,216.8c0,122.3,0.1,244.6,0.1,366.9c0,29.8-11,40.5-41.1,40.7c-15.9,0.1-31.8,0-47.7,0
		c-31.6-0.1-42.8-11.2-43-43.3c-0.2-36.1-0.1-72.2,0-108.3c0.1-83.8,0.3-167.6,0.5-251.4c5.4-20.1,18.4-28.3,39-27.3
		c17.5,0.9,35.2,1,52.7,0C644.9,193.1,657.9,200,665.8,216.8z M561.9,235.4c-4.2,3.7-3.5,8.8-3.5,13.6c0,57.1,0,114.2,0,171.3
		c0,4.8-0.6,9.8,3.7,13.5c1,0.2,2,0.5,3,0.7c3.2,9.6,10.6,12.8,19.9,12.9c10.4,0.1,20.8,0.3,31.1-0.1c13.2-0.5,20-7.4,19.9-20.9
		c-0.1-61.7-0.1-123.3,0-185c0-7.1-1.3-13.3-7.6-17.6c-11.8-8.1-52.7-3.3-62.8,7.5C564.4,232.7,563.2,234.1,561.9,235.4z
		 M599.6,582.3c23.1,0.1,42-18.7,42-41.7c0-23-18.7-41.4-42.1-41.4c-23.6,0-41.8,18.1-41.7,41.4
		C557.8,563.9,576.2,582.2,599.6,582.3z"/>
	<path class="st1" d="M223.8,489c-0.3,44.1-0.8,88.1-0.9,132.2c0,14.9,7.9,22.5,23,22.4c140.8,0,281.7,0,422.5,0
		c16.2,0,22.7-9.1,22.6-24.6c-0.2-41-0.2-82.1,0-123.1c0-7.6-2.1-18.2,10-17.6c10.6,0.5,8.2,10.4,8.3,17.4
		c0.2,40.4,0.2,80.8,0,121.2c-0.1,31.1-13.8,45.1-44.7,45.1c-144.5,0-289-0.1-433.5-0.2c-19.8-9.5-27.4-24.8-26.6-47.1
		c1.4-40.7,0.3-81.4,0.4-122.1c0-5.8-1.5-13.1,7-14.6C220.1,476.6,221.9,483,223.8,489z"/>
	<path class="st2" d="M418.5,334.6c0-29.4-0.2-58.8,0.1-88.1c0.2-20.4,5.7-25.6,26.5-25.9c46.3-0.7,46.6-0.4,46.6,46.6
		c0,49.6,0,99.2,0,148.7c0,26.8-5.1,31.6-32.4,31.7c-4.9,0-9.8,0.1-14.7,0c-20.1-0.6-25.9-6.4-26-26.7
		C418.3,392.1,418.5,363.4,418.5,334.6z M458.3,272.3c-7.6,0-13.6-0.1-19.7,0c-4.5,0.1-8.6,0.9-8.6,6.7c0,5.8,4.3,6.6,8.7,6.7
		c6,0.2,12.2,0.9,18.1-0.1c8-1.3,22.4,5.2,22.2-7.1C478.9,266.3,464.3,275.1,458.3,272.3z M452.8,308.8c8.1-5,25.8,5.1,25.6-7.3
		c-0.2-13.9-17.5-5.4-27-6.3c-6.9-0.7-20.7-6-20.4,6.3C431.3,313.4,445,304.8,452.8,308.8z M454.5,262.5c8-4.2,23.7,5.9,24-7.1
		c0.2-10-15.3-4.8-23.6-4.8c-8.2,0-23.2-5.5-23.3,5.2C431.4,267.2,446.5,259.1,454.5,262.5z"/>
	<path class="st3" d="M496.8,541.5c-0.3,23.7-18.9,41.4-42.6,40.8c-23.6-0.7-40.8-19.3-40-43.4c0.7-23,18.4-39.8,41.7-39.6
		C479.7,499.4,497.1,517.3,496.8,541.5z M455.7,566.4c15-0.1,25.6-10.4,25.9-25.2c0.3-15.3-11.1-26.9-26.4-26.7
		c-14.6,0.1-25.5,10.9-25.9,25.4C429,555.5,440,566.5,455.7,566.4z"/>
	<path class="st4" d="M275.4,333.4c0-29.4,0.3-58.8-0.1-88.2c-0.2-17,7.3-24.2,24.3-24.5c48-0.9,48-1.2,48,46.8
		c0,50.9,0.1,101.7,0,152.6c-0.1,21.9-5.4,27-27.1,27.4c-44.9,0.8-45.1,0.7-45.1-44.1C275.4,379.9,275.4,356.6,275.4,333.4z
		 M334,273.4c-14.5-0.1-29.1-0.3-43.6-0.4c-7.2,6.6-5.7,12.2,3.6,12.6c12.7,0.5,25.7,2.5,38.2-1.5c4.8-1.2,4.8-4.5,3.4-8.2
		C336.5,274,335.7,273.4,334,273.4z M308.4,311.8c0-0.1,0-0.2,0-0.3c6.1,0,12.3,0.9,18.2-0.3c5.2-1,10.7-3.8,10.1-10.8
		c-0.6-7-6.3-6.2-11.1-6.2c-10.3-0.1-20.7,0-31,0.1c-4.7,0-8.6,1.5-8.4,7.2c0.2,5,0.9,10,7.6,10.3
		C298.7,312,303.5,311.8,308.4,311.8z M311.1,248.9c-7.8,4.5-23.9-6.4-23.6,7.9c0.2,12.9,16,6.2,24.3,6.1c8.2-0.1,24.1,7.4,23.8-6.6
		C335.4,243.1,319.4,253.1,311.1,248.9z"/>
	<path class="st3" d="M313.2,582.4c-22.8,1.1-42.6-16.9-43.8-40c-1.2-22.9,17-42.4,40.2-43.2c23.7-0.8,42.7,16.4,43.6,39.6
		C354,562.2,336.4,581.3,313.2,582.4z M337.7,541.3c0.3-15-11.5-26.9-26.5-26.8c-14.6,0.1-25.3,10.7-25.7,25.5
		c-0.4,14.9,9.6,25.8,24.4,26.6C325.3,567.3,337.3,556.4,337.7,541.3z"/>
	<path class="st5" d="M565.7,231.4c10.1-10.8,51-15.6,62.8-7.5c6.3,4.3,7.6,10.5,7.6,17.6c-0.1,61.7-0.1,123.3,0,185
		c0,13.5-6.8,20.4-19.9,20.9c-10.4,0.4-20.8,0.2-31.1,0.1c-9.3-0.1-16.7-3.4-19.9-12.9C565.3,366.8,565.5,299.1,565.7,231.4z
		 M601.5,294.1c-7.8,4.7-23.6-6.5-23.8,7.6c-0.1,9.8,15.4,5.2,23.5,4.7c7.7-0.4,22.2,6.9,22.1-6.2
		C623.2,289.2,608.9,298.1,601.5,294.1z M599.7,262.3c8.2-3,23.5,4,23.3-5.5c-0.3-13.1-15.5-5.3-23.8-5.8
		c-7.3-0.5-21.6-5.3-21.5,4.7C578,267.8,592.4,258.6,599.7,262.3z M602.6,285.3c5.5-6.1,20.6,5.8,20.5-7.7
		c-0.1-10.1-14.3-5-21.6-4.5c-8.2,0.5-23.6-7.6-23.6,6.1C577.9,289.3,593.3,281.4,602.6,285.3z"/>
	<path class="st3" d="M599.6,582.3c-23.4-0.1-41.8-18.3-41.8-41.6c-0.1-23.4,18.1-41.5,41.7-41.4c23.4,0,42.1,18.3,42.1,41.4
		C641.6,563.5,622.7,582.3,599.6,582.3z M599.4,514.2c-15.4,0.1-26.5,11.3-26.4,26.6c0.1,15.5,10.9,26,26.8,25.9
		c15.3-0.1,26.9-11.5,26.8-26.3C626.4,525.6,614.5,514.1,599.4,514.2z"/>
	<path class="st6" d="M565.7,231.4c-0.2,67.7-0.4,135.4-0.5,203.1c-1-0.2-2-0.4-3-0.7c-0.1-66.1-0.1-132.3-0.2-198.4
		C563.2,234.1,564.4,232.7,565.7,231.4z"/>
	<path class="st7" d="M561.9,235.4c0.1,66.1,0.1,132.3,0.2,198.4c-4.3-3.7-3.7-8.7-3.7-13.5c0-57.1,0-114.2,0-171.3
		C558.4,244.2,557.7,239.2,561.9,235.4z"/>
	<path class="st8" d="M458.3,272.3c6,2.9,20.6-6,20.8,6.3c0.2,12.3-14.2,5.8-22.2,7.1c-5.9,0.9-12,0.2-18.1,0.1
		c-4.4-0.1-8.7-0.9-8.7-6.7c0-5.8,4.1-6.7,8.6-6.7C444.7,272.2,450.7,272.3,458.3,272.3z"/>
	<path class="st3" d="M452.8,308.8c-7.8-4.1-21.5,4.6-21.8-7.3c-0.3-12.3,13.5-7,20.4-6.3c9.5,0.9,26.8-7.6,27,6.3
		C478.6,313.9,461,303.8,452.8,308.8z"/>
	<path class="st3" d="M454.5,262.5c-8-3.4-23,4.7-22.9-6.7c0.1-10.7,15.2-5.2,23.3-5.2c8.2,0,23.8-5.2,23.6,4.8
		C478.2,268.4,462.5,258.4,454.5,262.5z"/>
	<path class="st2" d="M455.7,566.4c-15.7,0.1-26.7-11-26.4-26.5c0.3-14.6,11.3-25.3,25.9-25.4c15.3-0.1,26.7,11.4,26.4,26.7
		C481.3,556,470.7,566.3,455.7,566.4z"/>
	<path class="st9" d="M308.4,311.8c-4.9,0-9.7,0.2-14.6,0c-6.6-0.3-7.4-5.3-7.6-10.3c-0.2-5.7,3.6-7.1,8.4-7.2
		c10.3-0.1,20.7-0.2,31-0.1c4.8,0,10.5-0.8,11.1,6.2c0.6,7-5,9.8-10.1,10.8c-5.8,1.2-12.1,0.3-18.2,0.3
		C308.4,311.6,308.4,311.7,308.4,311.8z"/>
	<path class="st9" d="M311.1,248.9c8.3,4.2,24.2-5.8,24.5,7.4c0.3,13.9-15.6,6.4-23.8,6.6c-8.4,0.1-24.1,6.9-24.3-6.1
		C287.2,242.6,303.3,253.4,311.1,248.9z"/>
	<path class="st3" d="M290.3,273c14.5,0.1,29.1,0.3,43.6,0.4c0.2,1,0.7,1.8,1.6,2.3c1.3,3.8,1.3,7-3.4,8.2
		c-10.3-0.4-20.5-1-30.7-1.1C294.4,282.9,289.2,281.6,290.3,273z"/>
	<path class="st9" d="M290.3,273c-1.1,8.6,4.1,9.9,11.1,10c10.2,0.1,20.5,0.7,30.7,1.1c-12.6,4-25.5,2.1-38.2,1.5
		C284.6,285.1,283.1,279.6,290.3,273z"/>
	<path class="st9" d="M335.6,275.7c-0.9-0.5-1.4-1.3-1.6-2.3C335.7,273.4,336.5,274,335.6,275.7z"/>
	<path class="st4" d="M337.7,541.3c-0.3,15.1-12.4,26-27.8,25.3c-14.8-0.8-24.8-11.7-24.4-26.6c0.4-14.8,11.1-25.4,25.7-25.5
		C326.2,514.3,338,526.3,337.7,541.3z"/>
	<path class="st10" d="M601.5,294.1c7.4,4,21.7-4.9,21.8,6.2c0.1,13.1-14.4,5.8-22.1,6.2c-8.1,0.4-23.6,5-23.5-4.7
		C577.9,287.6,593.7,298.9,601.5,294.1z"/>
	<path class="st10" d="M599.7,262.3c-7.3-3.7-21.7,5.4-21.9-6.7c-0.2-10,14.2-5.1,21.5-4.7c8.3,0.5,23.4-7.3,23.8,5.8
		C623.2,266.4,607.9,259.3,599.7,262.3z"/>
	<path class="st10" d="M602.6,285.3c-9.3-3.9-24.7,4-24.7-6.1c0-13.7,15.4-5.6,23.6-6.1c7.3-0.5,21.5-5.6,21.6,4.5
		C623.3,291,608.2,279.2,602.6,285.3z"/>
	<path class="st5" d="M599.4,514.2c15.1-0.1,27,11.4,27.1,26.2c0.1,14.8-11.5,26.2-26.8,26.3c-15.9,0.1-26.7-10.4-26.8-25.9
		C572.9,525.4,584,514.3,599.4,514.2z"/>
</g>
</svg>
