<?xml version="1.0" encoding="utf-8"?>
<!-- Generator: Adobe Illustrator 20.1.0, SVG Export Plug-In . SVG Version: 6.00 Build 0)  -->
<svg version="1.1" id="Layer_1" xmlns="http://www.w3.org/2000/svg" xmlns:xlink="http://www.w3.org/1999/xlink" x="0px" y="0px"
	 viewBox="0 0 907.9 840" style="enable-background:new 0 0 907.9 840;" xml:space="preserve">
<style type="text/css">
	.st0{fill:#5D8BA4;}
	.st1{fill:#F6F8F9;}
</style>
<g>
	<path class="st0" d="M579.8,614.5c-56.1,23.4-115,26.1-174.6,21.1c-33.2-2.8-65.5-9.6-95.9-24c-38.1-18.1-62.4-44.6-57.5-90.4
		c1.8-16-2.5-32.7,5.3-48.1c1-2,0-5.2-0.6-7.7c-6.9-29.5-7.6-58.9,0.4-88.3c0.7-2.7,1.5-5.1,0.4-7.8c-9.7-23.6-4.8-48.4-4.8-72.6
		c-0.1-21.6,12.7-37.7,29.1-50.5c31.5-24.6,68.9-33.7,107.3-39.3c19.9-2.9,40-4.6,54.8-3.7c47.5-0.1,88.8,5,128.5,19.8
		c16.4,6.1,31.7,14.2,45.1,25.7c17.3,15,27.9,33.2,26.4,56.9c-1.3,21.5,3,43.2-5,64.6c-3.3,8.9,6.1,17.9,5.2,28.1
		c-2.1,23.1,0,46.1-4.1,69.6c-2.7,15.3,2.6,33.8,4.4,50.8C649.4,569.3,621.9,596.9,579.8,614.5z"/>
	<path class="st0" d="M447.3,0C215.6,0,27.7,187.9,27.7,419.6s187.9,419.6,419.6,419.6s419.6-187.9,419.6-419.6S679,0,447.3,0z
		 M405.2,635.6c-33.2-2.8-65.5-9.6-95.9-24c-38.1-18.1-62.4-44.6-57.5-90.4c1.8-16-2.5-32.7,5.3-48.1c1-2,0-5.2-0.6-7.7
		c-6.9-29.5-7.6-58.9,0.4-88.3c0.7-2.7,1.5-5.1,0.4-7.8c-9.7-23.6-4.8-48.4-4.8-72.6c-0.1-21.6,12.7-37.7,29.1-50.5
		c31.5-24.6,68.9-33.7,107.3-39.3c19.9-2.9,40-4.6,54.8-3.7c47.5-0.1,88.8,5,128.5,19.8c16.4,6.1,31.7,14.2,45.1,25.7
		c17.3,15,27.9,33.2,26.4,56.9c-1.3,21.5,3,43.2-5,64.6c-3.3,8.9,6.1,17.9,5.2,28.1c-2.1,23.1,0,46.1-4.1,69.6
		c-2.7,15.3,2.6,33.8,4.4,50.8c5.3,50.6-22.2,78.2-64.3,95.8C523.7,638,464.8,640.6,405.2,635.6z"/>
	<path class="st1" d="M443.6,203.2c47.5-0.1,88.8,5,128.5,19.8c16.4,6.1,31.7,14.2,45.1,25.7c17.3,15,27.9,33.2,26.4,56.9
		c-1.3,21.5,3,43.2-5,64.6c-3.3,8.9,6.1,17.9,5.2,28.1c-2.1,23.1,0,46.1-4.1,69.6c-2.7,15.3,2.6,33.8,4.4,50.8
		c5.3,50.6-22.2,78.3-64.3,95.9c-56.1,23.4-115,26.1-174.6,21.1c-33.2-2.8-65.5-9.6-95.9-24c-38.1-18.1-62.4-44.6-57.5-90.4
		c1.7-16-2.5-32.7,5.3-48.1c1-2,0-5.2-0.6-7.7c-6.9-29.5-7.6-58.9,0.4-88.3c0.7-2.7,1.5-5.1,0.4-7.8c-9.7-23.6-4.8-48.4-4.8-72.6
		c-0.1-21.6,12.7-37.7,29.1-50.5c31.5-24.6,68.9-33.6,107.3-39.3C408.7,204,428.8,202.3,443.6,203.2z M447.3,419.6
		c42.2,0.3,83.5-4.4,122.9-20.7c34-14.1,57.6-35.2,51.2-76.5c-0.7-4.2-0.4-8.7,0-13c2.1-22.1-8.8-37.3-25.9-49.2
		c-11.2-7.8-23.5-13.5-36.4-18c-50.3-17.4-102.2-19.2-154.6-14.5c-32.1,2.9-63.3,9.9-92.1,25.1c-25.6,13.5-41.9,32.4-38,63.7
		c0.9,7.5,0.5,15.2,0.1,22.8c-1.1,17.4,6.7,30.4,19.5,40.9c12.3,10.2,26.4,17.1,41.3,22.4C371.4,415.7,409,419.9,447.3,419.6z
		 M274.4,492.9c0,14.3,0.8,25.7-0.2,36.9c-2.1,24.2,9.7,40.3,28.8,52.6c10.5,6.8,21.8,12.1,33.6,16.2C386.9,616,438.8,617.7,491,613
		c32.6-2.9,64.4-9.9,93.5-25.8c36.2-19.8,47.8-52,33.5-92.1C528.5,571.5,371.4,571.5,274.4,492.9z M274.4,393.9
		c0,16.1,0.6,28.4-0.1,40.6c-1.2,19.9,7.4,34.3,22.9,45.8c8.8,6.5,18,12.5,28.2,16.1c81.8,29.2,164.5,31.1,245.2-0.7
		c53.9-21.2,55.4-41.1,48.2-99c-47,50.1-108.8,56.1-171,56.2C385.5,452.9,323.8,446.7,274.4,393.9z"/>
	<path class="st0" d="M447.3,419.6c-38.3,0.3-75.9-3.9-112.2-16.9c-14.9-5.4-29-12.2-41.3-22.4c-12.8-10.6-20.6-23.6-19.5-40.9
		c0.5-7.6,0.9-15.3-0.1-22.8c-3.9-31.3,12.4-50.2,38-63.7c28.9-15.2,60.1-22.2,92.1-25.1c52.3-4.7,104.2-3,154.6,14.5
		c12.9,4.5,25.2,10.2,36.4,18c17.1,11.9,28,27.1,25.9,49.2c-0.4,4.3-0.6,8.8,0,13c6.4,41.3-17.2,62.4-51.2,76.5
		C530.8,415.2,489.5,419.9,447.3,419.6z"/>
	<path class="st0" d="M274.4,492.9c97,78.6,254.1,78.5,343.7,2.3c14.3,40.1,2.7,72.3-33.5,92.1c-29.1,15.9-60.9,22.9-93.5,25.8
		c-52.3,4.6-104.1,2.9-154.4-14.5c-11.8-4.1-23.1-9.4-33.6-16.2c-19.1-12.3-30.8-28.4-28.8-52.6
		C275.2,518.6,274.4,507.3,274.4,492.9z"/>
	<path class="st0" d="M274.4,393.9c49.4,52.8,111.1,59,173.2,59c62.2,0,124-6.1,171-56.2c7.3,57.9,5.8,77.8-48.2,99
		c-80.7,31.8-163.4,29.9-245.2,0.7c-10.2-3.6-19.4-9.6-28.2-16.1c-15.5-11.5-24.1-25.9-22.9-45.8C275,422.3,274.4,410.1,274.4,393.9
		z"/>
</g>
</svg>
