<?xml version="1.0" encoding="utf-8"?>
<!-- Generator: Adobe Illustrator 20.1.0, SVG Export Plug-In . SVG Version: 6.00 Build 0)  -->
<svg version="1.1" id="Layer_1" xmlns="http://www.w3.org/2000/svg" xmlns:xlink="http://www.w3.org/1999/xlink" x="0px" y="0px"
	 viewBox="0 0 141.7 99.7" style="enable-background:new 0 0 141.7 99.7;" xml:space="preserve">
<style type="text/css">
	.st0{fill:#232323;}
	.st1{fill:#FFFFFF;}
</style>
<g>
	<g>
		<path class="st0" d="M56.8,30.8c0.3-1.2,0.5-2.6,0.5-4c0-3.2-0.9-5.9-2.6-8.1c-1.7-2.3-4-3.7-6.8-4.5c-1.8-0.4-5.2-0.7-10.1-0.7
			H17v27h21.1c0.7,0,1.5,0,2.1,0c0.1,0,0.2,0,0.3,0c2.2-0.1,4.2-0.3,5.9-0.7h0c0.8,0,1.6-0.1,2.5-0.1h15.5c-0.7,1.1-1.6,2.1-2.6,3.1
			c-4.4,4.4-12.4,6.7-24,6.7H17v30.7H6.2V4.7H37c5.4,0,9.6,0.2,12.4,0.7c4,0.6,7.4,1.8,10.1,3.5c2.7,1.7,4.9,4.2,6.6,7.3
			c1.6,3.1,2.5,6.6,2.5,10.3c0,1.5-0.1,2.9-0.4,4.3H56.8z"/>
		<g>
			<path class="st1" d="M6.1,81.8h6.4l2.5,8.2l2.5-8.2h6.4v13.5h-4V85.1l-3.1,10.3h-3.6l-3.1-10.3v10.3h-4V81.8z"/>
		</g>
		<g>
			<path class="st1" d="M26.1,81.8h13.1v2.9h-8.2v2.2h7.6v2.8h-7.6v2.7h8.5v3.1H26.1V81.8z"/>
		</g>
		<g>
			<path class="st1" d="M41.3,81.8h7.3c1.4,0,2.6,0.2,3.5,0.5c0.9,0.3,1.6,0.8,2.2,1.4c0.6,0.6,1,1.3,1.3,2.2
				c0.3,0.8,0.4,1.7,0.4,2.6c0,1.4-0.2,2.6-0.6,3.4c-0.4,0.8-0.9,1.5-1.6,2c-0.7,0.5-1.4,0.9-2.2,1.1c-1.1,0.2-2,0.4-2.9,0.4h-7.3
				V81.8z M46.2,84.9v7.4h1.2c1,0,1.8-0.1,2.2-0.3c0.4-0.2,0.8-0.5,1-1c0.2-0.5,0.4-1.3,0.4-2.3c0-1.4-0.3-2.4-0.8-2.9
				s-1.5-0.8-2.7-0.8H46.2z"/>
		</g>
		<g>
			<path class="st1" d="M56.9,81.8h4.9v13.5h-4.9V81.8z"/>
		</g>
		<g>
			<path class="st1" d="M74.2,93.1h-5.6l-0.8,2.2h-5l6-13.5h5.3l6,13.5H75L74.2,93.1z M73.2,90.2l-1.8-4.9l-1.7,4.9H73.2z"/>
		</g>
		<path class="st1" d="M80.8,4.7v71H50c-5.4,0-9.6-0.3-12.4-0.7c-4-0.6-7.4-1.8-10.1-3.5c-2.7-1.7-4.9-4.2-6.6-7.3
			c-1.6-3.1-2.5-6.6-2.5-10.3c0-1.5,0.1-2.9,0.4-4.3h11.3c-0.3,1.2-0.5,2.6-0.5,4c0,3.2,0.8,5.9,2.6,8.1c1.7,2.2,4,3.7,6.8,4.4
			c1.8,0.4,5.2,0.7,10.1,0.7H70v-27H48.9c-0.9,0-1.7,0-2.5,0.1h0c-1.7,0.4-3.7,0.6-5.9,0.7c-0.1,0-0.2,0-0.3,0c-0.7,0-1.4,0-2.1,0
			H22.5c0.7-1.1,1.6-2.1,2.6-3.1c4.4-4.4,12.4-6.7,24-6.7H70V4.7H80.8z"/>
		<path class="st0" d="M105.6,13.1c-5.6,0-9.8,0.2-12.8,0.7c-4.1,0.6-7.6,1.8-10.3,3.5c-2.8,1.7-5,4.2-6.7,7.3
			c-1.7,3.1-2.6,6.6-2.6,10.3c0,6.4,2.3,11.9,6.8,16.3c4.5,4.4,12.7,6.7,24.6,6.7h21.5v17.5c0,0,0.2,10-12.1,10.5H82.1L82,95.4H114
			c0,0,22,0,22-20V13.1H105.6z M104.5,49c-7.2,0-12.3-1.2-15.3-3.6c-3-2.4-4.5-5.8-4.5-10.1c0-3.2,0.9-5.9,2.6-8.1
			c1.8-2.2,4.1-3.7,7-4.5c1.9-0.4,5.3-0.7,10.4-0.7h21.4v27H104.5z"/>
	</g>
</g>
</svg>
