<?xml version="1.0" encoding="utf-8"?>
<!-- Generator: Adobe Illustrator 20.1.0, SVG Export Plug-In . SVG Version: 6.00 Build 0)  -->
<svg version="1.1" id="Layer_1" xmlns="http://www.w3.org/2000/svg" xmlns:xlink="http://www.w3.org/1999/xlink" x="0px" y="0px"
	 viewBox="0 0 907.9 840" style="enable-background:new 0 0 907.9 840;" xml:space="preserve">
<style type="text/css">
	.st0{fill:#FAA51D;}
	.st1{fill:#FFFEFB;}
</style>
<g>
	<path class="st0" d="M463.5,0c232.3,0,419.8,187.8,419.7,420.5c-0.1,230.9-188.8,417.6-422,417.5
		C230.6,837.9,43.6,649.2,43.8,416.8C44,187.4,232.7,0,463.5,0z M463.5,209.4c-71.8,0-143.6,0-215.3,0c-15.3,0-20.8,5.5-20.8,20.9
		c0,94.2,0,188.3,0,282.5c0,15.2,5.8,21.1,20.9,21.1c143.6,0,287.1,0,430.7,0c14.7,0,20.8-5.9,20.8-20.4c0-94.6,0-189.3,0-283.9
		c0-14.3-5.9-20.1-20.1-20.1C607.5,209.4,535.5,209.4,463.5,209.4z M552,601.8c-1.3-1.4-1.7-2-2.2-2.4c-7.5-5.9-18.7-9.3-22.1-17.5
		c-3.5-8.1-1.1-18.8-0.9-28.4c0.1-4.3-1.1-6-5.7-6c-38.3,0.2-76.6,0.2-115,0c-4.7,0-6,1.7-5.7,6c0.3,4.9-0.6,9.9,0.2,14.7
		c1.7,10.8-2,18.1-11.8,23.2c-4.6,2.4-9.4,5.5-13.3,10.3C434.5,601.8,492.7,601.8,552,601.8z M463.5,612c-27.5,0-55,0-82.5,0
		c-14.7,0-14.2,0-14.8,14.5c-0.3,7.1,2.2,8.3,8.7,8.3c56.7-0.2,113.4-0.1,170.1-0.1c16,0,15.8,0,15.9-16.4c0-5.4-1.8-6.5-6.8-6.4
		C523.8,612.1,493.7,612,463.5,612z"/>
	<path class="st1" d="M463.5,209.4c72,0,144.1,0,216.1,0c14.3,0,20.1,5.8,20.1,20.1c0,94.6,0,189.3,0,283.9
		c0,14.5-6.1,20.4-20.8,20.4c-143.6,0-287.1,0-430.7,0c-15,0-20.9-5.9-20.9-21.1c0-94.2,0-188.3,0-282.5c0-15.4,5.5-20.9,20.8-20.9
		C319.9,209.4,391.7,209.4,463.5,209.4z M463.5,232.8c-61,0-121.9,0-182.9,0c-16.9,0-24.7,7.8-24.7,24.8c0,61.7,0,123.4,0,185.1
		c0,17.2,8,25,25.4,25c121.4,0,242.9,0,364.3,0c17.7,0,25.4-7.8,25.4-25.7c0-61.2,0-122.4,0-183.6c0-18.1-7.5-25.6-25.4-25.6
		C585,232.7,524.3,232.8,463.5,232.8z"/>
	<path class="st1" d="M552,601.8c-59.3,0-117.5,0-176.7,0c3.9-4.9,8.7-7.9,13.3-10.3c9.7-5.1,13.5-12.4,11.8-23.2
		c-0.8-4.8,0.1-9.8-0.2-14.7c-0.2-4.3,1.1-6,5.7-6c38.3,0.2,76.6,0.2,115,0c4.7,0,5.8,1.7,5.7,6c-0.2,9.6-2.5,20.2,0.9,28.4
		c3.5,8.2,14.6,11.6,22.1,17.5C550.3,599.8,550.7,600.4,552,601.8z"/>
	<path class="st1" d="M463.5,612c30.2,0,60.4,0.1,90.6-0.1c5,0,6.8,1,6.8,6.4c-0.1,16.4,0.2,16.4-15.9,16.4
		c-56.7,0-113.4-0.1-170.1,0.1c-6.4,0-8.9-1.2-8.7-8.3c0.6-14.5,0.1-14.5,14.8-14.5C408.5,612,436,612,463.5,612z"/>
	<path class="st0" d="M463.5,232.8c60.7,0,121.4,0,182.1,0c17.9,0,25.4,7.6,25.4,25.6c0,61.2,0,122.4,0,183.6
		c0,17.9-7.8,25.7-25.4,25.7c-121.4,0-242.9,0-364.3,0c-17.4,0-25.3-7.8-25.4-25c0-61.7,0-123.4,0-185.1c0-17,7.8-24.8,24.7-24.8
		C341.6,232.7,402.6,232.8,463.5,232.8z M462.7,449c60.2,0,120.4-0.1,180.6,0.2c7.4,0,9.6-1.9,9.6-9.5c-0.3-59.7-0.3-119.4,0-179.1
		c0-7.3-1.8-9.7-9.4-9.7c-119.9,0.2-239.8,0.2-359.8,0c-7.5,0-9.6,2.1-9.6,9.5c0.3,59.7,0.3,119.4,0,179.1c0,7.3,1.8,9.7,9.4,9.6
		C343.3,448.9,403,449,462.7,449z"/>
	<path class="st1" d="M462.7,449c-59.7,0-119.4-0.1-179.1,0.2c-7.6,0-9.5-2.3-9.4-9.6c0.3-59.7,0.3-119.4,0-179.1
		c0-7.5,2.1-9.5,9.6-9.5c119.9,0.2,239.8,0.2,359.8,0c7.6,0,9.5,2.4,9.4,9.7c-0.3,59.7-0.3,119.4,0,179.1c0,7.6-2.2,9.5-9.6,9.5
		C583.1,448.9,522.9,449,462.7,449z M413.6,405.2c-2.4-3.1-3.9-5-5.3-6.9c-15.1-20.6-30.3-41.1-45.3-61.9c-2.9-4-4.3-3.9-7.2,0
		c-17.8,24.4-35.7,48.7-53.9,72.9c-2.7,3.6-2.1,5.4,1.4,7.4c1.7,1,3.4,2.1,4.7,3.5c4.2,4.3,6.8,3.1,10.1-1.5
		c11.8-16.6,24.3-32.8,36.1-49.4c3.7-5.1,5.5-6.6,9.9-0.3c16.2,22.9,32.9,45.3,49.6,67.8c1.5,2,2.3,5,5.7,5.6
		c13.3-36.2,26.6-72.3,39.9-108.4c2.9-7.8,2.9-7.8,9.7-2.5c18.2,14.2,36.5,28.3,54.5,42.8c4.3,3.5,6.5,2.9,10.1-0.8
		c16-16.4,32.5-32.2,48.3-48.7c4.4-4.6,6.9-4.3,10.7,0.3c4,4.8,8.6,9.2,14,14.8c2.8-15.8,5.3-29.7,7.8-43.7c1-5.6,4.3-13.2,2-16.3
		c-3.4-4.4-10.9-0.3-16.5,0.4c-14.9,1.7-29.8,4-46.5,6.3c6.4,6.2,11.4,11.3,16.7,15.9c3.6,3.1,3.7,5.2,0.1,8.6
		c-12.7,12.3-25.4,24.7-37.6,37.5c-4.2,4.4-6.7,4.2-11.2,0.5c-19.9-16-40.2-31.6-60.3-47.4c-7.3-5.7-7.3-5.7-10.4,2.7
		c-1.4,3.7-2.7,7.4-4.1,11C435.6,345.2,424.8,374.7,413.6,405.2z"/>
	<path class="st0" d="M413.6,405.2c11.2-30.6,22.1-60,32.9-89.5c1.4-3.7,2.7-7.4,4.1-11c3.1-8.4,3.1-8.4,10.4-2.7
		c20.1,15.7,40.4,31.4,60.3,47.4c4.5,3.6,7.1,3.8,11.2-0.5c12.2-12.8,24.8-25.3,37.6-37.5c3.6-3.4,3.5-5.5-0.1-8.6
		c-5.3-4.7-10.3-9.8-16.7-15.9c16.7-2.3,31.6-4.6,46.5-6.3c5.7-0.6,13.2-4.8,16.5-0.4c2.4,3.1-1,10.7-2,16.3
		c-2.4,13.9-4.9,27.9-7.8,43.7c-5.3-5.6-10-9.9-14-14.8c-3.8-4.6-6.3-4.9-10.7-0.3c-15.9,16.5-32.4,32.3-48.3,48.7
		c-3.6,3.7-5.8,4.3-10.1,0.8c-18-14.5-36.3-28.6-54.5-42.8c-6.8-5.3-6.8-5.3-9.7,2.5c-13.3,36.1-26.6,72.2-39.9,108.4
		c-3.4-0.6-4.2-3.6-5.7-5.6c-16.6-22.5-33.4-45-49.6-67.8c-4.5-6.3-6.2-4.8-9.9,0.3c-11.9,16.6-24.3,32.8-36.1,49.4
		c-3.3,4.6-5.9,5.8-10.1,1.5c-1.4-1.4-3-2.6-4.7-3.5c-3.5-2-4.1-3.8-1.4-7.4c18.1-24.2,36.1-48.5,53.9-72.9c2.9-4,4.3-4.1,7.2,0
		c14.9,20.7,30.1,41.3,45.3,61.9C409.7,400.3,411.2,402.1,413.6,405.2z"/>
</g>
</svg>
