<?xml version="1.0" encoding="utf-8"?>
<!-- Generator: Adobe Illustrator 20.1.0, SVG Export Plug-In . SVG Version: 6.00 Build 0)  -->
<svg version="1.1" id="Layer_1" xmlns="http://www.w3.org/2000/svg" xmlns:xlink="http://www.w3.org/1999/xlink" x="0px" y="0px"
	 viewBox="0 0 907.9 840" style="enable-background:new 0 0 907.9 840;" xml:space="preserve">
<style type="text/css">
	.st0{fill:#4E4E4E;}
	.st1{fill:#C5C5C5;}
	.st2{fill:#B92B1D;}
	.st3{fill:#2A3852;}
	.st4{fill:#D6D6D6;}
	.st5{fill:#A3A3A3;}
	.st6{fill:#FDFDFD;}
	.st7{fill:#EBEFF2;}
	.st8{fill:#32486E;}
	.st9{fill:#149DB2;}
	.st10{fill:#B4DDDC;}
	.st11{fill:#D53224;}
	.st12{fill:#9AAC28;}
	.st13{fill:#E84C29;}
	.st14{fill:#E88E1C;}
</style>
<g>
	<path d="M502.8,620.7c-5.4-3.4-10.9-6.8-16.3-10.2c-4.5-2.8-9.2-5.2-13.4-8.5c0-9.7,0-19.3,0-29c1-1,2.3-0.5,3.5-0.5
		c41.8,0,83.6,0,125.4,0c1.3,0,2.6,0.2,3.8-0.6c4.4,7.9,8.9,15.8,13.3,23.7c12.4,22.6,25.5,44.8,37.5,67.6
		c6.5,12.3,18.8,17.9,32.4,14.5c13.6-3.4,24.8-10.9,34-21.4c5-5.7,7.7-12.5,7.5-20.2c-0.2-7.8-3.6-14.4-8.1-20.7
		c-26.9-37.2-53.6-74.5-80.4-111.8c0-16,0-32,0-48c0-12.8-0.1-25.5-0.1-38.3c0.2-1.3,1.2-2.1,1.8-3.1c16.3-23.8,25.3-50.3,27.1-79
		c0.9-13.9-0.2-27.7-3.2-41.3c-8.7-39.4-29.4-71-62.2-94.4c-23.7-16.9-50.3-26.1-79.4-28.2c-11.5-0.8-22.9-0.3-34.1,1.4
		c-19.4,3-37.6,9.5-54.5,19.5c-13.4,7.9-25.5,17.5-36,29.1c-4.1,4.5-7.6,9.3-11.6,13.9c-1.1,0-2.3-0.1-3.4-0.1c-36,0-72,0-107.9,0
		c-21.4,0-42.8,0.1-64.2,0c-9.9,0-17,8.8-17,16.7c-0.1,86.2-0.1,172.5-0.1,258.7c0,1-0.3,2.1,0.6,2.9c0,14.2-0.5,28.4,0.1,42.6
		c0.3,8.5,7,16.6,17.4,16.5c49.1-0.1,98.2,0,147.3,0c1.2,0,2.4-0.5,3.5,0.5c0,9.7,0,19.3,0,29c-0.3,0.3-0.6,0.8-1,1
		c-9.7,5.7-19.3,11.7-28.8,17.7c-1.1,0.3-1.7,0.9-1.6,2.2c0.1,1.5,0.2,3.1,0,4.5c-0.4,3,0.8,3.6,3.6,3.6
		C391,631,443.9,631,496.8,631c7.3,0,7.3,0,7.2-7.4C504,622.5,504.3,621.2,502.8,620.7z"/>
	<path class="st0" d="M389.6,235.1c4-4.5,7.6-9.4,11.6-13.9c10.5-11.6,22.6-21.1,36-29.1c16.9-10,35.1-16.5,54.5-19.5
		c11.3-1.7,22.6-2.2,34.1-1.4c29.2,2,55.7,11.2,79.4,28.2c32.8,23.4,53.5,55,62.2,94.4c3,13.7,4,27.5,3.2,41.3
		c-1.8,28.8-10.8,55.2-27.1,79c-0.7,1-1.6,1.9-1.8,3.1c-3.4,3.6-6.4,7.5-9.2,11.6c-0.5,0-0.8,0.2-1.2,0.6
		c-9,10.1-19.2,18.8-30.4,26.2c-0.7,0.5-1.5,0.8-1.1,2c-1.9-0.2-3.5,0.7-4.9,1.8c-2.9,2-6.2,3.5-9.4,5.2
		c-8.1,4.3-16.6,7.5-25.3,10.3c-0.7-0.1-1,0.2-0.9,0.9c-5.9,0-11.3,2.7-17.1,3.2c-0.2,0-0.3,0.4-0.5,0.7c-5.5,0.4-10.9,0.9-16.4,1.3
		c-12,0.9-24-0.2-35.9-1.7c-0.5-0.5-1.2-0.5-1.8-0.6c-5.6-0.9-11.1-2.3-16.6-4c-0.3,0-0.6-0.1-0.8-0.1c-5.6-1.9-11.1-3.9-16.7-5.8
		c-2.8-1.8-5.9-3-9-4.3c-3.2-2.3-6.7-3.9-10.1-5.8c-11.2-7.2-21.5-15.4-30.9-24.9c-1.7-1.9-3.4-3.8-5.1-5.7
		c-1.7-2.1-3.5-4.2-5.2-6.3c-4-5.1-7.5-10.6-11.1-16c-0.6-1.4-1.3-2.7-2.3-3.9c-1.2-2.2-2.4-4.5-3.6-6.7c-0.7-1.6-1.4-3.1-2.1-4.7
		c-0.8-1.9-1.6-3.7-2.5-5.6c-0.3-1.4-0.8-2.8-1.6-4c-0.5-2.2-1.2-4.3-2.3-6.2c-0.1-1.9-0.9-3.6-1.5-5.3c-6.1-21.6-7.6-43.6-4.4-65.9
		c0.3-2.1,0.7-4.2,1-6.3c0.8-3.5,1.6-6.9,2.5-10.4c1.6-5.6,3.2-11.1,4.7-16.7c2.2-2.4,2.6-5.5,4-8.3c2.1-4.3,4.1-8.6,6.2-12.9
		C383.5,244.4,386.6,239.8,389.6,235.1z M515.8,447.7c66.9,0.1,121.3-54.3,121.5-121.3c0.2-67-54.3-121.7-121.4-121.8
		c-67-0.1-121.6,54.3-121.7,121.1C394,393.2,448.2,447.5,515.8,447.7z"/>
	<path class="st1" d="M605.7,571.9c-1.2,0.8-2.5,0.6-3.8,0.6c-41.8,0-83.6,0-125.4,0c-1.1,0-2.4-0.5-3.5,0.5c-35.7,0-71.5,0-107.2,0
		c-1-1-2.3-0.5-3.5-0.5c-49.1,0-98.2-0.1-147.3,0c-10.4,0-17-8-17.4-16.5c-0.5-14.2-0.1-28.4-0.1-42.6c1.2,0,2.5,0.1,3.7,0.1
		c122.2,0,244.5,0,366.7,0c2.4,0,4.7,0,7.1,0c-0.2,2.7,0.8,4.9,2.1,7.2c3.7,6.4,7.3,13,11,19.5C594,550.8,599.9,561.3,605.7,571.9z"
		/>
	<path class="st2" d="M605.7,571.9c-5.9-10.5-11.7-21.1-17.6-31.6c-3.6-6.5-7.2-13-11-19.5c-1.3-2.3-2.3-4.5-2.1-7.2
		c0.4-2.7,0.8-5.4,2-7.9c0.3-0.7,0.3-1.7,1.3-1.6c0.5,0,0.9,0.8,1.3,1.4c3,5,7.6,6.2,12.9,5.3c7.4-1.2,13.6-5.1,19-10.1
		c6.8-6.3,7.6-11.5,3.4-19.6c6.6,0,12.7,1.2,16.1,7.8c0.3,0.6,0.9,1.1,1.4,1.7c2.9,4.5,6.1,8.8,9.4,13.1
		c26.8,37.3,53.5,74.6,80.4,111.8c4.5,6.3,8,12.8,8.1,20.7c0.2,7.7-2.5,14.5-7.5,20.2c-9.2,10.5-20.3,18-34,21.4
		c-13.5,3.4-25.8-2.2-32.4-14.5c-12-22.8-25.1-45-37.5-67.6C614.7,587.7,610.2,579.8,605.7,571.9z"/>
	<path class="st3" d="M615,481.1c4.2,8.1,3.4,13.3-3.4,19.6c-5.4,5-11.5,8.9-19,10.1c-5.4,0.9-9.9-0.4-12.9-5.3
		c-0.3-0.5-0.8-1.4-1.3-1.4c-0.9-0.1-1,1-1.3,1.6c-1.1,2.5-1.6,5.2-2,7.9c-2.4,0-4.7,0-7.1,0c-122.2,0-244.5,0-366.7,0
		c-1.2,0-2.5-0.1-3.7-0.1c-0.9-0.8-0.6-1.9-0.6-2.9c0-86.2,0-172.5,0.1-258.7c0-7.9,7.1-16.8,17-16.7c21.4,0.1,42.8,0,64.2,0
		c36,0,72,0,107.9,0c1.1,0,2.3,0,3.4,0.1c-3,4.7-6,9.3-9,14c-56.5,0-113.1,0-169.6,0c-1.2,0-2.5,0.1-3.7,0.1
		c-0.4-0.1-0.9-0.1-0.9,0.5c0,0.4,0,0.8,0,1.2c0,0.9,0,1.9,0,2.8c0,0.9-0.1,1.9-0.1,2.8c0,80,0,159.9,0,239.9c0,0.9,0.1,1.9,0.1,2.8
		c0,0.8,0,1.5,0,2.3c1.5,1,3.2,0.3,4.8,0.4c1.2,0,2.5,0.1,3.7,0.1c118.6,0,237.1,0,355.7,0c2,0,4-0.1,6-0.1c0.2-0.1,0.4-0.2,0.6-0.3
		c-0.2-0.3-0.4-0.5-0.6-0.8c-5.4-8.7-10.8-17.3-16.2-26c8.7-2.8,17.2-6,25.3-10.3c3.2-1.7,6.4-3.1,9.4-5.2c1.5-1,3-1.9,4.9-1.8
		C604.9,465.5,609.9,473.3,615,481.1z"/>
	<path class="st4" d="M365.8,573c35.7,0,71.5,0,107.2,0c0,9.7,0,19.3,0,29c-35.7,0-71.5,0-107.2,0
		C365.8,592.4,365.8,582.7,365.8,573z"/>
	<path class="st1" d="M365.8,602c35.7,0,71.5,0,107.2,0c4.2,3.3,8.9,5.7,13.4,8.5c5.4,3.4,10.9,6.8,16.3,10.2
		c-1.2,0-2.5,0.1-3.7,0.1c-52.6,0-105.1,0-157.7,0c-1.8,0-3.6,0-5.4-0.1c9.5-6.1,19.1-12.1,28.8-17.7
		C365.2,602.8,365.5,602.3,365.8,602z"/>
	<path class="st5" d="M336,620.7c1.8,0,3.6,0.1,5.4,0.1c52.6,0,105.1,0,157.7,0c1.2,0,2.5,0,3.7-0.1c1.5,0.5,1.2,1.7,1.2,2.8
		c0.1,7.4,0.1,7.4-7.2,7.4c-52.9,0-105.8,0-158.8,0.1c-2.8,0-4.1-0.6-3.6-3.6c0.2-1.5,0.1-3,0-4.5C334.3,621.7,334.9,621,336,620.7z
		"/>
	<path class="st3" d="M641.8,503.6c-3.3-4.2-6.5-8.6-9.4-13.1c0-0.6,0-1.1,0-1.7c0-20,0.1-40,0.1-60c2.8-4.1,5.7-8,9.2-11.6
		c0,12.8,0.1,25.5,0.1,38.3C641.9,471.7,641.8,487.7,641.8,503.6z"/>
	<path class="st6" d="M515.8,447.7c-67.6-0.1-121.7-54.4-121.6-122c0.1-66.8,54.8-121.2,121.7-121.1c67,0.1,121.5,54.8,121.4,121.8
		C637.1,393.4,582.6,447.8,515.8,447.7z M535.6,302c-0.2-0.2-0.4-0.4-0.6-0.6c-0.1,0-0.2-0.1-0.3-0.1c0.1,0.1,0.1,0.1,0.2,0.2
		C535.2,301.7,535.4,301.9,535.6,302c0.1,0.3,0.3,0.5,0.4,0.7c0.2,0.4,0.4,0.8,0.5,1.1c1.6,3.4,3.2,6.7,4.8,10.1
		c0.2-0.1,0.5-0.2,0.7-0.3c-0.1-4.1-2.4-7.2-5.2-10c-0.2-0.4-0.5-0.7-0.7-1.1C536,302.4,535.8,302.2,535.6,302z M611.2,302
		c-0.1,0-0.2,0-0.3,0c0.1,0.1,0.1,0.1,0.2,0.2c0.1,0.1,0.2,0.1,0.3,0.2C611.3,302.2,611.3,302.1,611.2,302z M462.9,326.5
		c-0.1,0-0.1-0.1-0.2-0.1C462.8,326.4,462.8,326.4,462.9,326.5c0.2,0.2,0.4,0.4,0.5,0.6c0.2,0.9,0.4,1.8,1.5,2.3
		c0.3-1.5-0.3-2.1-1.5-2.4C463.3,326.8,463.1,326.7,462.9,326.5z M461.7,294.7c0.2,0.2,0.4,0.4,0.6,0.6c0.2,0.4,0.3,0.8,0.5,1.2
		c1.5,5.3,0.6,7.7-4,10.8c-2.4,1.6-4.9,3-8,3.2c1.7,1.3,3.4,2.2,5.6,1.5c2.4-0.8,4.4-2.1,6.4-3.6c4.6-3.4,4.6-8.5,0.1-12
		c-0.2-0.4-0.4-0.7-0.6-1.1C462.1,295,461.9,294.9,461.7,294.7l-0.2-0.1C461.6,294.5,461.7,294.7,461.7,294.7z M427.1,329.8
		c-0.1,0-0.2,0-0.2-0.1C426.9,329.8,427,329.9,427.1,329.8c5,3.5,10.8,5.2,16.5,7C438.3,334.2,432.9,331.6,427.1,329.8z
		 M536.2,341.2c-0.1,0-0.2-0.1-0.2-0.1C536,341.2,536.1,341.2,536.2,341.2c0.7,2.9,0.9,5.7-1.2,8.1c-7.9,9.4-17.9,14.9-30.4,15.3
		c-5.2,0.2-10.1-1.1-15-2.4c-0.2-0.1-0.5-0.1-0.7-0.2c0.2,0.1,0.3,0.3,0.5,0.4c0.5,0.7,1.3,1.1,2.1,1.4c15.9,6.8,35.6,1.6,46-12.2
		C540.3,347.9,539.8,344.2,536.2,341.2z M612.4,303.6c-0.1,0-0.2-0.1-0.3-0.1c0,0.1,0.1,0.2,0.1,0.3c0.4,0.9,0.8,1.7,1.2,2.6
		c6.8,12.9,7.1,25.9-0.4,38.4c-7.4,12.3-18.4,19.2-33.2,19.3c-5.6,0-11-0.8-16.4-3c0.3,1.4,1.3,1.5,2,1.8c6.7,3,13.8,4.2,21.1,3.3
		c23.1-2.9,38.2-23.7,33.8-46.5C619,313.7,616.9,308,612.4,303.6z M483.5,332.1c1.1,0,2.1,0,3.1,0c15.7,0,31.4,0,47.1,0
		c3.8,0,5-1.1,5.1-4.7c1.1-22.3-19.1-40.2-41-36.1c-14.7,2.8-24.2,11.8-27.8,25.9c-3.5,13.7,0.5,25.7,11.5,34.9
		c15.1,12.7,37,10.6,49.4-4.6c2.1-2.6,2-4-0.7-5.9c-1.3-0.9-2.7-1.8-4-2.7c-2.3-1.5-4.3-1.4-6.2,0.8c-2.8,3.3-6.5,5.4-10.7,6.7
		C498.6,349.8,485.8,342.8,483.5,332.1z M579.1,290.4c-19.3,0-34.8,15.5-34.9,34.8c-0.1,19.3,15.6,34.9,35.1,34.8
		c19.3-0.1,34.7-15.6,34.7-34.9C614,305.9,598.4,290.4,579.1,290.4z M440,359.3c7.2-0.1,12.9-2.3,17.5-6.9
		c8.8-8.8,6.6-22.9-4.6-28.3c-4.2-2.1-8.7-3.8-13-5.6c-2.6-1.1-5.2-2.3-7.3-4.3c-2.7-2.6-3-6.2-0.7-9.2c3.6-4.8,11.7-5.7,16.3-1.9
		c4.2,3.4,4.2,3.4,8.6,0.4c3.2-2.2,3.4-3.4,0.8-6.3c-8.2-9.5-24.8-9.7-33.6-0.5c-9.4,9.8-6.6,24,5.7,29.5c3.5,1.6,7.2,3,10.8,4.4
		c2.7,1.1,5.4,2.3,7.7,4.2c3.7,3.2,3.7,8.1-0.2,11.2c-4,3.3-11.9,3.1-15.7-0.7c-2.2-2.3-4.2-2.5-6.6-0.6c-0.6,0.5-1.3,0.8-1.9,1.2
		c-2.6,1.7-2.8,3.2-0.8,5.6C427.7,356.8,433.7,359.1,440,359.3z M429.8,361.5c1.4,1.7,2.6,2,3.7,2.5c5.1,1.9,10.3,2.3,15.6,1.1
		c7.9-1.8,14.3-5.9,18.2-13.2c2-3.8,3.4-7.8-0.3-12c-0.2,9.4-4.9,15.7-12.5,20C446.9,364.2,438.8,364.4,429.8,361.5z M504.4,336.2
		c-3.9,0-7.8,0-11.6,0c-0.6,0-1.5-0.2-1.7,0.7c-0.1,0.9,0.7,1.3,1.4,1.5c0.5,0.1,1.1,0.1,1.7,0.1c6.4,0,12.9,0,19.3,0
		c0.7,0,1.5,0,2.2-0.2c0.7-0.2,1.3-0.6,1.3-1.3c-0.1-0.9-1-0.7-1.6-0.7C511.7,336.1,508,336.2,504.4,336.2z M437,312
		c1.2-4.9,5.1-4.8,9.2-5c-3.2-2.5-6.6-2.7-9.3-0.9C434.7,307.6,433.3,309.8,437,312z M530.3,336.4c2.6,2.1,8.4,2.6,10.5,1.5
		c1-0.5,1-1.2,0.6-2.1c-0.2-0.6-0.5-1.6-1.3-1C537.3,336.7,534,335.9,530.3,336.4z M532.7,298.8l0,0.2l0.2-0.1L532.7,298.8z
		 M534,300.1l-0.2-0.1l0,0.2L534,300.1z"/>
	<path class="st7" d="M207.2,249.2c1.2,0,2.5-0.1,3.7-0.1c56.5,0,113.1,0,169.6,0c-2.1,4.3-4,8.6-6.2,12.9c-1.4,2.7-1.8,5.9-4,8.3
		c-5-0.1-10-0.2-15-0.2c-44.6-0.2-89.2-0.4-133.7-0.7c-2,0-2.4,0.5-2.4,2.4c0.1,3.9,0.2,7.8,0,11.6c-0.1,2.2,0.5,2.8,2.8,2.8
		c37.7,0.1,75.3,0.3,113,0.5c10.2,0.1,20.4,0.2,30.7,0.3c-0.8,3.5-1.6,6.9-2.5,10.4c-22.2-0.1-44.5-0.3-66.7-0.4
		c-13-0.1-25.9,0-38.9-0.2c-2.1,0-2.8,0.5-2.7,2.7c0.2,4.1-0.5,3.6,4,3.6c34.4,0.2,68.9,0.3,103.3,0.5c-3.2,22.3-1.7,44.2,4.4,65.9
		c-1.1,1.2-2.7,0.8-4,0.8c-30.8,0-61.7,0-92.5,0c-1.5,0-3.2-0.4-3.1,2.1c0,2.3,1.6,1.9,3,1.9c23.4,0.3,46.7-0.4,70.1,0.5
		c9.4,0.3,18.7,0.1,28.1,0.1c1.1,2,1.8,4.1,2.3,6.2c-12.6-0.3-25.1-0.1-37.7-0.4c-21.1-0.5-42.2-0.2-63.3-0.2c-1.4,0-2.4,0.2-2.4,2
		c0,1.7,0.8,2.1,2.3,2.1c5.6,0,11.2,0.3,16.7,0.4c28.7,0.2,57.3,0.1,86,0.1c0.8,1.9,1.6,3.7,2.5,5.6c-1.1,1.1-2.5,0.7-3.8,0.7
		c-33.5-0.1-67,0.2-100.5-0.5c-1.6,0-3.3-0.3-3.3,2.3c0,2.4,1.4,2.2,3,2.2c34.4,0.1,68.7-0.3,103.1,0.5c1.2,0,2.5,0.1,3.6-0.5
		c1.2,2.2,2.4,4.5,3.6,6.7c-7.4-0.1-14.7-0.3-22.1-0.3c-29.5-0.3-59.1-0.2-88.6-0.2c-1.5,0-2.6,0.1-2.6,2.1c0,2,1.3,1.9,2.7,1.9
		c16,0,32,0.1,47.9,0.4c16.3,0.4,32.6,0.2,48.8,0.2c-0.1,0.8-0.7,1.3-1.4,1.7c-7.6,4.5-15.2,9.2-22.8,13.7
		c-9.3,5.5-18.7,11-28.1,16.4c-0.8,0-1.7,0.1-2.5,0.1c-4.9,0-4.9,0-5.4,4.9c-1.6,0.6-3,1.9-4.9,1.7c0-9.1,0-18.2,0.1-27.2
		c0-2.1-0.5-2.8-2.6-2.8c-8.3,0.1-16.7,0-25-0.1c-3.6,0-3.6,0-3.7,3.7c-0.1,15.4-0.3,30.8-0.4,46.3c-0.5,0.2-1.1,0.4-1.5,0.7
		c-9.7,5.8-19.4,11.7-29.1,17.5c-9.8,5.8-19.7,11.5-29.4,17.5c-1.8,1.1-2.3-0.3-3.2-0.9c0-0.9-0.1-1.9-0.1-2.8c0-80,0-159.9,0-239.9
		c0-0.9,0.1-1.9,0.1-2.8c1.3-0.9,1.3-1.9,0-2.8c0-0.4,0-0.8,0-1.2C206.6,249.6,206.9,249.4,207.2,249.2z M309.1,315
		c0-0.1,0-0.3,0-0.4c-13.7,0-27.4,0-41.2,0c-1.7,0-2.8,0-2.8,2.3c0.1,13,0,25.9-0.1,38.9c0,2.1,0.7,2.5,2.6,2.5
		c27.5,0.1,55.1,0.2,82.6,0.4c2.1,0,2.5-0.7,2.5-2.6c0-12.7,0-25.4,0.2-38.1c0-2.3-0.4-3.1-2.9-3C336.4,315.1,322.7,315,309.1,315z"
		/>
	<path class="st6" d="M314,437.9c9.4-5.5,18.8-10.9,28.1-16.4c7.6-4.5,15.2-9.1,22.8-13.7c0.7-0.4,1.2-0.9,1.4-1.7
		c5.4-0.1,10.7-0.2,16.1-0.2c3.6,5.4,7.1,10.9,11.1,16c-2,0-4,0.1-5.9,0.1c-4.3,0-4.2,0-4.1,4.3c0,1.4,0.4,2,1.9,2
		c4.4-0.1,8.9-0.1,13.3-0.1c1.7,1.9,3.4,3.8,5.1,5.7c-2.9,1.2-5.9,0.4-8.9,0.5c-1.6,0.1-2.4,0.5-2.4,2.3c0.1,6.5,0,13,0,19.6
		c0,1.8,0.7,2.6,2.5,2.6c13.2-0.1,26.5-0.1,39.7-0.1c3.4,1.9,6.9,3.5,10.1,5.8c-16.1-0.1-32.2-0.1-48.2-0.2c-1.6,0-2.3,0.3-2.4,2.1
		c0,1.8,0.6,2.2,2.3,2.2c5.6-0.1,11.2,0,16.7,0c13.5,0.1,27,0.1,40.6,0.1c5.6,1.9,11.1,3.9,16.7,5.8c0.3,0.1,0.5,0.1,0.8,0.1
		c-0.8,0.9-1.8,0.4-2.6,0.4c-23.9-0.1-47.9-0.2-71.8-0.3c-1.4,0-2.7-0.4-2.7,2c0,2.3,1,2.3,2.7,2.3c15.4,0,30.8,0.1,46.3,0.2
		c15.5,0,31,0,46.5,0c11.9,1.5,23.9,2.6,35.9,1.7c5.5-0.4,10.9-0.9,16.4-1.3c4.8,0,9.6,0.1,14.4,0.1c3.7,0,3.7,0,3.1-4
		c-0.2-0.7,0.2-1,0.9-0.9c5.4,8.7,10.8,17.3,16.2,26c0,0.3,0,0.7,0,1c-2,0-4,0.1-6,0.1c-118.6,0-237.1,0-355.7,0
		c-1.2,0-2.5-0.1-3.7-0.1c-1.6-0.8-3.2-0.4-4.8-0.4c0-0.8,0-1.5,0-2.3c1,0.6,1.4,2,3.2,0.9c9.7-5.9,19.6-11.6,29.4-17.5
		c9.7-5.8,19.4-11.7,29.1-17.5c0.5-0.3,1-0.5,1.5-0.7c0,6.5,0.1,13,0,19.6c0,2,0.5,2.6,2.5,2.6c8.4-0.1,16.8-0.1,25.3,0.1
		c2.8,0.1,3.6-0.6,3.6-3.5c-0.1-12.9,0.1-25.7,0.2-38.6c1.9,0.1,3.3-1.1,4.9-1.7c0,2,0.1,4,0.1,5.9c0,11.7,0,23.5-0.2,35.2
		c0,2.1,0.5,2.7,2.6,2.7c8.5-0.1,17-0.1,25.5,0.1c2.4,0,3.2-0.5,3.2-3.1c-0.1-14.3,0-28.6,0.2-42.8c0-2.4-0.8-2.8-2.9-2.8
		C327.8,438.2,320.9,438,314,437.9z M358.1,486.9c0,0.1,0,0.1,0,0.2c4.4,0,8.9-0.1,13.3,0c1.7,0,2.3-0.4,2.3-2.2
		c0-8.4,0-16.8,0.1-25.2c0-1.5-0.3-2.2-2-2.2c-9.1,0-18.1-0.1-27.2-0.2c-1.7,0-2.1,0.6-2.1,2.2c0,8.4,0,16.8-0.1,25.2
		c0,1.9,0.7,2.2,2.3,2.2C349.2,486.8,353.7,486.9,358.1,486.9z"/>
	<path class="st8" d="M365.6,287c-10.2-0.1-20.4-0.2-30.7-0.3c-37.7-0.2-75.3-0.4-113-0.5c-2.3,0-2.9-0.6-2.8-2.8
		c0.2-3.9,0.2-7.8,0-11.6c-0.1-1.8,0.4-2.4,2.4-2.4c44.6,0.3,89.2,0.5,133.7,0.7c5,0,10,0.1,15,0.2
		C368.8,275.8,367.2,281.4,365.6,287z"/>
	<path class="st6" d="M632.6,428.9c0,20-0.1,40-0.1,60c0,0.6,0,1.1,0,1.7c-0.5-0.6-1.1-1.1-1.4-1.7c-3.4-6.6-9.5-7.8-16.1-7.8
		c-5-7.8-10.1-15.6-15.1-23.4c-0.4-1.1,0.4-1.5,1.1-1.9c11.3-7.4,21.4-16.2,30.4-26.2C631.8,429.2,632.1,428.9,632.6,428.9z"/>
	<path class="st9" d="M362.1,303.6c-34.4-0.2-68.9-0.3-103.3-0.5c-4.5,0-3.7,0.4-4-3.6c-0.1-2.2,0.6-2.7,2.7-2.7
		c13,0.1,25.9,0.1,38.9,0.2c22.2,0.1,44.5,0.2,66.7,0.4C362.8,299.4,362.5,301.5,362.1,303.6z"/>
	<path class="st4" d="M434.7,458.7c-13.2,0-26.5,0-39.7,0.1c-1.8,0-2.5-0.8-2.5-2.6c0-6.5,0.1-13,0-19.6c0-1.8,0.8-2.2,2.4-2.3
		c3-0.1,6,0.7,8.9-0.5C413.1,443.3,423.5,451.5,434.7,458.7z"/>
	<path class="st10" d="M382.4,405.9c-5.4,0.1-10.7,0.2-16.1,0.2c-16.3-0.1-32.6,0.1-48.8-0.2c-16-0.3-32-0.4-47.9-0.4
		c-1.4,0-2.7,0.1-2.7-1.9c0-1.9,1.1-2.1,2.6-2.1c29.5,0,59.1-0.1,88.6,0.2c7.4,0.1,14.7,0.2,22.1,0.3
		C381.1,403.2,381.8,404.5,382.4,405.9z"/>
	<path class="st10" d="M376.5,395.2c-1.1,0.6-2.4,0.5-3.6,0.5c-34.3-0.8-68.7-0.4-103.1-0.5c-1.6,0-3,0.1-3-2.2
		c0-2.6,1.7-2.3,3.3-2.3c33.5,0.8,67,0.4,100.5,0.5c1.3,0,2.7,0.4,3.8-0.7C375.1,392.1,375.8,393.7,376.5,395.2z"/>
	<path class="st10" d="M371.9,385c-28.7,0-57.4,0.1-86-0.1c-5.6,0-11.1-0.4-16.7-0.4c-1.5,0-2.3-0.4-2.3-2.1c0-1.8,1-2,2.4-2
		c21.1,0,42.2-0.3,63.3,0.2c12.6,0.3,25.2,0.1,37.7,0.4C371.1,382.2,371.6,383.6,371.9,385z"/>
	<path class="st10" d="M368,374.8c-9.4,0-18.7,0.3-28.1-0.1c-23.4-0.8-46.7-0.2-70.1-0.5c-1.4,0-3,0.4-3-1.9c0-2.5,1.7-2.1,3.1-2.1
		c30.8,0,61.7,0,92.5,0c1.4,0,2.9,0.4,4-0.8C367.2,371.2,367.9,372.9,368,374.8z"/>
	<path class="st3" d="M489.6,479.3c-15.5,0-31,0-46.5,0c-15.4,0-30.8-0.2-46.3-0.2c-1.7,0-2.7-0.1-2.7-2.3c0-2.4,1.3-2,2.7-2
		c23.9,0.1,47.9,0.3,71.8,0.3c0.9,0,1.9,0.5,2.6-0.4c5.4,1.7,10.9,3,16.6,4C488.4,478.8,489.1,478.8,489.6,479.3z"/>
	<path class="st3" d="M453.8,468.8c-13.5,0-27-0.1-40.6-0.1c-5.6,0-11.2-0.1-16.7,0c-1.7,0-2.3-0.3-2.3-2.2c0-1.8,0.7-2.1,2.4-2.1
		c16.1,0.1,32.2,0.1,48.2,0.2C447.8,465.8,450.9,467,453.8,468.8z"/>
	<path class="st9" d="M398.6,428.2c-4.4,0-8.9,0-13.3,0.1c-1.5,0-1.9-0.5-1.9-2c-0.1-4.3-0.2-4.3,4.1-4.3c2,0,4-0.1,5.9-0.1
		C395.2,424,396.9,426.1,398.6,428.2z"/>
	<path class="st3" d="M559.4,475.9c0.5,4,0.5,4-3.1,4c-4.8,0-9.6-0.1-14.4-0.1c0.2-0.2,0.3-0.6,0.5-0.7
		C548.1,478.5,553.5,475.9,559.4,475.9z"/>
	<path class="st6" d="M206.3,250.9c1.3,0.9,1.3,1.9,0,2.8C206.3,252.8,206.3,251.9,206.3,250.9z"/>
	<path class="st7" d="M206.4,501.6c1.6,0,3.3-0.5,4.8,0.4C209.6,501.9,207.9,502.5,206.4,501.6z"/>
	<path class="st7" d="M576.5,501.9c0-0.3,0-0.7,0-1c0.2,0.3,0.4,0.5,0.6,0.8C576.9,501.7,576.7,501.8,576.5,501.9z"/>
	<path class="st6" d="M207.2,249.2c-0.3,0.2-0.6,0.4-0.9,0.5C206.3,249.1,206.8,249.2,207.2,249.2z"/>
	<path class="st9" d="M483.5,332.1c2.3,10.7,15.1,17.7,25.9,14.4c4.2-1.3,7.8-3.4,10.7-6.7c1.9-2.2,3.9-2.3,6.2-0.8
		c1.3,0.9,2.7,1.7,4,2.7c2.6,1.9,2.8,3.3,0.7,5.9c-12.4,15.1-34.3,17.3-49.4,4.6c-10.9-9.2-14.9-21.3-11.5-34.9
		c3.6-14.2,13.1-23.2,27.8-25.9c21.8-4.1,42.1,13.8,41,36.1c-0.2,3.7-1.3,4.7-5.1,4.7c-15.7,0-31.4,0-47.1,0
		C485.6,332.1,484.6,332.1,483.5,332.1z M503.9,319c5.4,0,10.8,0,16.2,0c1.2,0,2.6,0.4,3.4-0.8c0.9-1.4-0.1-2.7-0.8-3.9
		c-8.6-14.2-29.3-13.9-37.6,0.6c-1.5,2.6-0.6,4.2,2.4,4.2C492.9,319,498.4,319,503.9,319z"/>
	<path class="st11" d="M579.1,290.4c19.3,0,34.9,15.5,34.9,34.7c0,19.3-15.4,34.8-34.7,34.9c-19.5,0.1-35.2-15.5-35.1-34.8
		C544.4,305.9,559.8,290.5,579.1,290.4z M578.8,347c12.3,0.1,22-9.3,22.1-21.4c0.1-12.1-9.2-21.8-21.3-22
		c-12.3-0.2-22.2,9.4-22.3,21.6C557.2,337.2,566.8,346.9,578.8,347z"/>
	<path class="st12" d="M440,359.3c-6.3-0.2-12.3-2.5-17-7.8c-2-2.3-1.8-3.8,0.8-5.6c0.6-0.4,1.3-0.7,1.9-1.2c2.4-2,4.3-1.7,6.6,0.6
		c3.8,3.8,11.7,4,15.7,0.7c3.8-3.2,3.9-8,0.2-11.2c-2.3-1.9-4.9-3.1-7.7-4.2c-3.6-1.4-7.2-2.8-10.8-4.4
		c-12.4-5.5-15.1-19.7-5.7-29.5c8.8-9.2,25.3-9,33.6,0.5c2.6,2.9,2.4,4.2-0.8,6.3c-4.5,3-4.5,3-8.6-0.4c-4.6-3.8-12.8-2.9-16.3,1.9
		c-2.2,3-2,6.6,0.7,9.2c2.1,2,4.6,3.2,7.3,4.3c4.4,1.8,8.8,3.5,13,5.6c11.2,5.4,13.4,19.6,4.6,28.3C452.9,357,447.2,359.2,440,359.3
		z"/>
	<path class="st4" d="M612.4,303.6c4.5,4.4,6.6,10.1,7.8,16c4.4,22.7-10.8,43.6-33.8,46.5c-7.3,0.9-14.3-0.3-21.1-3.3
		c-0.7-0.3-1.7-0.4-2-1.8c5.4,2.2,10.8,3,16.4,3c14.8-0.1,25.8-7,33.2-19.3c7.5-12.5,7.2-25.5,0.4-38.4c-0.4-0.8-0.8-1.7-1.2-2.6
		C612.3,303.8,612.3,303.7,612.4,303.6z"/>
	<path class="st4" d="M489.6,362.2c4.9,1.4,9.8,2.6,15,2.4c12.5-0.4,22.4-5.9,30.4-15.3c2-2.4,1.8-5.2,1.1-8.1l0.1-0.1
		c3.7,3,4.1,6.6,1.4,10.3c-10.4,13.9-30,19.1-46,12.2c-0.8-0.3-1.6-0.7-2.1-1.4C489.5,362.3,489.6,362.3,489.6,362.2z"/>
	<path class="st4" d="M429.8,361.5c9,2.9,17.1,2.7,24.8-1.6c7.6-4.3,12.3-10.6,12.5-20c3.7,4.2,2.4,8.3,0.3,12
		c-3.9,7.3-10.3,11.4-18.2,13.2c-5.3,1.2-10.5,0.7-15.6-1.1C432.4,363.5,431.2,363.2,429.8,361.5z"/>
	<path class="st4" d="M463,296.3c4.5,3.6,4.5,8.6-0.1,12c-2,1.5-4,2.8-6.4,3.6c-2.2,0.7-3.9-0.2-5.6-1.5c3.1-0.2,5.6-1.6,8-3.2
		c4.6-3.1,5.5-5.5,4-10.8L463,296.3z"/>
	<path class="st4" d="M504.4,336.2c3.7,0,7.4,0,11.1,0c0.6,0,1.5-0.2,1.6,0.7c0.1,0.7-0.6,1.2-1.3,1.3c-0.7,0.2-1.5,0.2-2.2,0.2
		c-6.4,0-12.9,0-19.3,0c-0.6,0-1.2,0.1-1.7-0.1c-0.7-0.2-1.5-0.6-1.4-1.5c0.1-0.8,1-0.7,1.7-0.7
		C496.6,336.2,500.5,336.2,504.4,336.2z"/>
	<path class="st4" d="M437,312c-3.7-2.2-2.4-4.3-0.1-5.9c2.7-1.8,6.1-1.6,9.3,0.9C442.1,307.2,438.2,307.1,437,312z"/>
	<path class="st4" d="M530.3,336.4c3.7-0.5,7,0.4,9.8-1.6c0.8-0.5,1,0.4,1.3,1c0.3,0.9,0.4,1.6-0.6,2.1
		C538.8,339,533,338.4,530.3,336.4z"/>
	<path class="st4" d="M427.1,329.8c5.7,1.8,11.1,4.3,16.5,7C437.9,335,432.1,333.3,427.1,329.8L427.1,329.8z"/>
	<path class="st4" d="M536.9,303.6c2.8,2.9,5.2,5.9,5.2,10c-0.2,0.1-0.5,0.2-0.7,0.3c-1.6-3.4-3.2-6.7-4.8-10.1
		C536.7,303.8,536.8,303.7,536.9,303.6z"/>
	<path class="st4" d="M463.5,327c1.1,0.3,1.7,0.9,1.5,2.4C463.8,328.9,463.7,328,463.5,327L463.5,327z"/>
	<polygon class="st4" points="532.7,298.8 532.9,298.9 532.7,299 	"/>
	<polygon class="st4" points="534,300.1 533.8,300.2 533.8,300 	"/>
	<path class="st4" d="M536.2,302.5c0.2,0.4,0.5,0.7,0.7,1.1c-0.1,0.1-0.2,0.2-0.3,0.2c-0.2-0.4-0.4-0.8-0.6-1.1L536.2,302.5z"/>
	<path class="st4" d="M489.5,362.4c-0.2-0.1-0.3-0.3-0.5-0.4c0.2,0.1,0.5,0.1,0.7,0.2C489.6,362.3,489.5,362.3,489.5,362.4z"/>
	<path class="st4" d="M462.8,296.4c-0.2-0.4-0.3-0.8-0.5-1.2c0,0,0,0,0,0c0.2,0.4,0.4,0.7,0.7,1.1
		C463,296.3,462.8,296.4,462.8,296.4z"/>
	<path class="st4" d="M535,301.5c-0.1-0.1-0.1-0.1-0.2-0.2C534.9,301.4,535,301.4,535,301.5C535.1,301.4,535,301.5,535,301.5z"/>
	<polygon class="st4" points="461.7,294.7 461.6,294.5 461.7,294.7 	"/>
	<path class="st4" d="M463.4,327.1c-0.2-0.2-0.4-0.4-0.5-0.6l0,0C463.1,326.7,463.3,326.8,463.4,327.1
		C463.5,327,463.4,327.1,463.4,327.1z"/>
	<path class="st4" d="M462.9,326.5c-0.1,0-0.1-0.1-0.2-0.1C462.8,326.4,462.8,326.4,462.9,326.5
		C462.9,326.5,462.9,326.5,462.9,326.5z"/>
	<path class="st4" d="M536.1,341.3c-0.1,0-0.1-0.1-0.2-0.1C536,341.2,536.1,341.2,536.1,341.3C536.2,341.2,536.1,341.3,536.1,341.3z
		"/>
	<path class="st4" d="M461.7,294.7c0.2,0.2,0.4,0.4,0.6,0.6c0,0,0,0,0,0C462.1,295,461.9,294.8,461.7,294.7
		C461.7,294.7,461.7,294.7,461.7,294.7z"/>
	<path class="st4" d="M427,329.9c-0.1,0-0.1-0.1-0.2-0.1C427,329.8,427,329.8,427,329.9C427.1,329.8,427,329.9,427,329.9z"/>
	<path class="st4" d="M612.2,303.8c0-0.1-0.1-0.2-0.1-0.3c0.1,0,0.2,0.1,0.3,0.1C612.3,303.7,612.3,303.8,612.2,303.8z"/>
	<path class="st4" d="M611.2,302c0.1,0.1,0.1,0.2,0.2,0.3c-0.1-0.1-0.2-0.1-0.3-0.2L611.2,302z"/>
	<path class="st4" d="M536.1,302.7c-0.2-0.2-0.4-0.4-0.5-0.6l0.1-0.1c0.2,0.2,0.4,0.4,0.6,0.5C536.2,302.5,536.1,302.7,536.1,302.7z
		"/>
	<path class="st4" d="M611.1,302.1c-0.1-0.1-0.1-0.1-0.2-0.2c0.1,0,0.2,0,0.3,0C611.2,302,611.1,302.1,611.1,302.1z"/>
	<path class="st4" d="M535.5,302.1c-0.2-0.2-0.4-0.4-0.5-0.6c0,0,0.1-0.1,0.1-0.1C535.3,301.6,535.4,301.8,535.5,302.1
		C535.6,302,535.5,302.1,535.5,302.1z"/>
	<path class="st13" d="M309.1,315c13.6,0,27.3,0.1,40.9-0.1c2.5,0,2.9,0.8,2.9,3c-0.2,12.7-0.2,25.4-0.2,38.1c0,1.9-0.4,2.6-2.5,2.6
		c-27.5-0.2-55.1-0.3-82.6-0.4c-1.9,0-2.6-0.4-2.6-2.5c0.1-13,0.2-25.9,0.1-38.9c0-2.3,1.1-2.3,2.8-2.3c13.7,0,27.4,0,41.2,0
		C309.1,314.7,309.1,314.8,309.1,315z"/>
	<path class="st14" d="M301.2,444.7c-0.1,12.9-0.3,25.7-0.2,38.6c0,2.9-0.8,3.6-3.6,3.5c-8.4-0.2-16.8-0.2-25.3-0.1
		c-2,0-2.6-0.6-2.5-2.6c0.1-6.5,0-13,0-19.6c0.1-15.4,0.3-30.8,0.4-46.3c0-3.7,0-3.7,3.7-3.7c8.3,0,16.7,0.1,25,0.1
		c2.2,0,2.7,0.7,2.6,2.8C301.2,426.5,301.3,435.6,301.2,444.7z"/>
	<path class="st14" d="M314,437.9c6.9,0.1,13.8,0.3,20.7,0.3c2.1,0,2.9,0.4,2.9,2.8c-0.2,14.3-0.3,28.6-0.2,42.8
		c0,2.6-0.8,3.1-3.2,3.1c-8.5-0.2-17-0.2-25.5-0.1c-2.2,0-2.7-0.6-2.6-2.7c0.1-11.7,0.1-23.5,0.2-35.2c0-2-0.1-4-0.1-5.9
		c0.5-4.9,0.5-4.9,5.4-4.9C312.3,438,313.2,437.9,314,437.9z"/>
	<path class="st14" d="M358.1,486.9c-4.4,0-8.9,0-13.3,0c-1.6,0-2.4-0.3-2.3-2.2c0.1-8.4,0.1-16.8,0.1-25.2c0-1.5,0.4-2.2,2.1-2.2
		c9.1,0.1,18.1,0.2,27.2,0.2c1.7,0,2,0.7,2,2.2c-0.1,8.4-0.1,16.8-0.1,25.2c0,1.8-0.6,2.2-2.3,2.2c-4.4-0.1-8.9,0-13.3,0
		C358.1,487,358.1,486.9,358.1,486.9z"/>
	<path class="st6" d="M503.9,319c-5.5,0-11,0-16.4,0c-3,0-3.9-1.6-2.4-4.2c8.3-14.5,29-14.8,37.6-0.6c0.7,1.2,1.7,2.5,0.8,3.9
		c-0.8,1.3-2.2,0.8-3.4,0.8C514.6,319,509.2,319,503.9,319z M491.2,314.3c2.1,0.7,3.8,0.2,5.5-1.1c3.5-2.6,7.4-3.6,11.7-3.2
		c1.5,0.2,3,0.6,5,1C506.5,305.8,495.4,307.6,491.2,314.3z"/>
	<path class="st6" d="M578.8,347c-12-0.1-21.6-9.8-21.5-21.8c0.1-12.2,10-21.8,22.3-21.6c12,0.2,21.4,9.8,21.3,22
		C600.8,337.7,591.1,347.1,578.8,347z M566.8,337.3c0.1,0,0.2,0,0.3,0c-0.1-0.1-0.1-0.1-0.2-0.2c-0.2-0.3-0.4-0.5-0.6-0.8
		c-0.1,0.1-0.2,0.2-0.3,0.3C566.3,336.9,566.5,337.1,566.8,337.3z M587.8,310.6c0.2,0.1,0.4,0.2,0.6,0.2c-0.2-0.1-0.3-0.3-0.5-0.4
		c-0.6-0.8-1.4-1.2-2.3-1.5c-6.7-2.4-13-1.5-18.3,3.3c-5,4.5-6.6,10.4-5.3,17c0.4,2.3,1.1,4.6,3.2,6.2c0.6-0.9,0.2-1.4,0.1-1.9
		c-2.9-8.4,0.3-17.1,7.9-21.5C577.8,309.4,582.8,309.7,587.8,310.6z"/>
	<path class="st4" d="M491.2,314.3c4.2-6.7,15.4-8.5,22.2-3.2c-2-0.4-3.5-0.9-5-1c-4.3-0.4-8.2,0.6-11.7,3.2
		C495,314.5,493.3,315,491.2,314.3z"/>
	<path class="st4" d="M587.8,310.6c-5-1-10-1.3-14.6,1.4c-7.6,4.4-10.8,13.1-7.9,21.5c0.2,0.5,0.5,1-0.1,1.9
		c-2.1-1.6-2.8-3.9-3.2-6.2c-1.3-6.6,0.4-12.5,5.3-17c5.3-4.8,11.6-5.7,18.3-3.3c0.9,0.3,1.8,0.7,2.3,1.5L587.8,310.6z"/>
	<path class="st4" d="M566.8,337.4c-0.3-0.2-0.5-0.4-0.8-0.6c0.1-0.1,0.2-0.2,0.3-0.3c0.2,0.3,0.4,0.5,0.6,0.8L566.8,337.4z"/>
	<path class="st4" d="M588,310.5c0.2,0.1,0.3,0.3,0.5,0.4c-0.2-0.1-0.4-0.2-0.6-0.2C587.8,310.6,588,310.5,588,310.5z"/>
	<path class="st4" d="M566.9,337.2c0.1,0.1,0.1,0.1,0.2,0.2c-0.1,0-0.2,0-0.3,0C566.8,337.4,566.9,337.2,566.9,337.2z"/>
</g>
</svg>
