<?xml version="1.0" encoding="utf-8"?>
<!-- Generator: Adobe Illustrator 20.1.0, SVG Export Plug-In . SVG Version: 6.00 Build 0)  -->
<svg version="1.1" id="Layer_1" xmlns="http://www.w3.org/2000/svg" xmlns:xlink="http://www.w3.org/1999/xlink" x="0px" y="0px"
	 viewBox="0 0 907.9 840" style="enable-background:new 0 0 907.9 840;" xml:space="preserve">
<style type="text/css">
	.st0{fill:#F6F7F7;}
	.st1{fill:#035092;}
	.st2{fill:#CBD1D0;}
	.st3{fill:#02648F;}
	.st4{fill:#4C99D5;}
	.st5{fill:#3BD1F3;}
	.st6{fill:#E99C3A;}
	.st7{fill:#2B80BC;}
	.st8{fill:#0D6891;}
	.st9{fill:#D1D1CE;}
	.st10{fill:#AFAFAE;}
	.st11{fill:#C0C1C2;}
	.st12{fill:#55ABEC;}
	.st13{fill:#EBEEF0;}
	.st14{fill:#FDFAF6;}
</style>
<g>
	<path class="st0" d="M310.3,443c-2.9-9.7-5.4-19.5-8.9-29c-2.1-5.8-1.4-9.3,3.5-13.5c43.6-37.5,87-75.3,130.5-113
		c0.9-0.8,1.7-1.8,2.6-2.8c1,2.3,2.1,4.5,2.9,6.9c10.4,32,20.9,63.9,31.2,95.9c11.7,36.3,23.3,72.7,34.9,109
		c-9.9-0.5-19.7-1-29.6-1.5c-20-1.1-39.9-2.1-59.9-3.3c-30.8-1.8-61.6-3.7-92.4-5.6c-1.6-4.1-3.2-8.2-4.8-12.3
		c0.1-1.4-0.1-2.8-1.2-3.8c0.1-0.3,0.1-0.5-0.2-0.7c0-1.5-0.1-2.8-1.3-3.9c0.1-0.3,0.1-0.5-0.2-0.7c0-1.5-0.1-2.8-1.3-3.9
		c0.1-0.3,0.1-0.5-0.2-0.7c0-1.5,0-2.9-1.3-4l-0.1-0.5c0-1.3-0.1-2.6-1.3-3.5l0.2,0.2c-0.1-1.8-0.2-3.5-1.7-4.7l0.1,0.2
		c-0.1-1.7-0.2-3.5-1.6-4.8C310.2,443,310.3,443,310.3,443z"/>
	<path class="st1" d="M786.7,369.4c0,15.2,0.1,30.4,0,45.6c-0.1,13.6-7.3,20.6-20.7,20.7c-30.4,0.1-60.8,0.2-91.3,0.2
		c-14.1,0-21.1-7-21.2-20.9c-0.2-29.9-0.3-59.8-0.3-89.7c0-16,6.5-22.4,22.7-22.5c28.6-0.2,57.3-0.6,85.9-0.7
		c18.2-0.1,24.6,6.4,24.6,24.8c0,14.2,0,28.4,0,42.6C786.4,369.4,786.6,369.4,786.7,369.4z M710.2,388.9c-0.1,0-0.2,0-0.2,0
		c0,5.6,0.4,11.2-0.1,16.7c-0.5,5.6,2.1,6.3,6.6,5.9c3.8-0.3,8,1.3,7.7-5.6c-0.5-11.1,0.3-22.2,0.3-33.3c0-3.7,0.6-5.7,5-5.1
		c3.4,0.5,7,1.2,6.9-4.8c-0.1-4.8-1.7-6.4-6.2-5.9c-5.6,0.7-6.3-2.1-5.3-6.8c1.1-5.3,4.1-8.5,9.5-7.5c5.8,1,5.3-2.5,5.9-6
		c0.8-4.9-2.2-5.3-5.8-5.6c-13.4-1.2-21.7,5.4-23.9,19.5c-0.5,3.4,0.3,7.2-5.5,6.5c-3.1-0.4-2.5,2.6-2.4,4.4c0.2,2-1.3,5.8,1.7,5.7
		c7.9-0.3,5.7,5.1,5.8,9.1C710.3,380.3,710.2,384.6,710.2,388.9z"/>
	<path class="st2" d="M325,486.1c30.8,1.9,61.6,3.8,92.4,5.6c19.9,1.2,39.9,2.2,59.9,3.3c9.8,0.5,19.7,1,29.6,1.5
		c8.8,26.9,17.6,53.7,26.4,80.6c-21.2-1.7-42.3-3.2-63.5-5.1c-31.7-2.7-63.4-5.6-95.1-8.6c-8.8-0.8-17.7-0.6-26.3-3.1
		c-7.2-24-14.3-48-23.4-71.4C325,488,325,487.1,325,486.1z"/>
	<path class="st3" d="M533.2,577.2c-8.8-26.9-17.6-53.7-26.4-80.6c-11.6-36.3-23.2-72.7-34.9-109c-10.3-32-20.8-63.9-31.2-95.9
		c-0.8-2.3-1.9-4.6-2.9-6.9c0.3-1.6-0.5-3.8,1.8-4.5c7.9-2.7,15.5-6.7,24.1-6.5c9.2,0.1,16,5.8,19.2,15.7
		c9.3,28.4,18.5,56.9,27.7,85.3c0.5,1.7,1.2,3.3,1.8,5c7.6,24.6,15.1,49.2,24,73.4c7.8,24.6,15.6,49.2,23.4,73.9
		c2.1,6.5,4.4,13,6.1,19.6c2.7,10.3-2,20.3-11.8,24.4C547.4,573.6,540.5,575.9,533.2,577.2z"/>
	<path class="st4" d="M325,486.1c0,1,0,1.9-0.1,2.9c-1.5,0.2-3,0.3-4.5,0.8c-41.7,13.5-83.4,27-125.1,40.5
		c-5.1-11.3-7.9-23.3-12-34.9c-2.4-6.8-3.2-14.3-7.7-20.3c0.3-3.7-1.2-6.9-2.1-10.3c-3-11.2,0.1-18.9,10.4-23.9
		c32-15.7,64.1-31.2,96.3-46.5c9.6-4.6,9.7-4.3,13.3,6c4.2,12.2,8.5,24.4,12.7,36.5c0.8,2.4,1.3,4.9,4,6.1c0,0-0.1,0-0.1,0
		c-0.4,1.9-0.2,3.6,1.6,4.8c0,0-0.1-0.2-0.1-0.2c-0.3,1.9-0.1,3.6,1.7,4.7c0,0-0.2-0.2-0.2-0.2c-0.1,1.4,0.3,2.6,1.3,3.5
		c0,0,0.1,0.5,0.1,0.6c0.4,1.3,0.9,2.6,1.3,4c0.3,0.2,0.3,0.4,0.2,0.7c0.4,1.3,0.9,2.6,1.3,3.9c0.3,0.2,0.3,0.4,0.2,0.7
		c0.4,1.3,0.9,2.6,1.3,3.9c0.3,0.2,0.3,0.4,0.2,0.7c0.4,1.3,0.8,2.6,1.2,3.8C321.8,477.9,323.4,482,325,486.1z M242.7,473.2
		c0-10.2-7.8-18.3-18-18.5c-10.1-0.2-18.4,7.9-18.6,17.9c-0.1,10.4,8.1,19.2,18.1,19.3C234.9,492.1,242.7,484.1,242.7,473.2z"/>
	<path class="st5" d="M628.8,280.6c-10.8-0.7-20.5-5.6-30.7-8.5c-15.8-4.5-31.5-9.8-47.1-14.9c-11.1-3.7-14.8-11.3-11.3-22.5
		c7.3-23.5,14.5-47,22-70.4c3.9-12.1,11.2-15.7,23.5-11.9c22.8,7,45.5,14.1,68.2,21.3c12.2,3.9,14.5,7.5,12.5,19.9
		c-3.1,19.9-10.8,38.5-16.2,57.8c-1.7,6.1-3.5,12.2-5.6,18.2C641.8,276.9,636.7,280.8,628.8,280.6z M581.3,218.5
		c10.3,13.6,29.3,14.8,41.3,3.1c3.5-3.5,4.9-8.9,10.1-10.9c0.8-0.3,2.7-4-0.8-5.1c-2.4-0.7-3.5-2.8-5.1-4.3c-4.4-4-9.8-4.7-13.5-0.4
		c-4.8,5.6-7.5,2.6-10.6-1.1c-1.6-1.9-2.8-4.2-4.3-6.2c-1-1.3-0.8-4.1-3-3.9c-2.3,0.2-2.5,2.8-3.3,4.6c-3.7,8.1-4.9,16.2-0.7,24.4
		C587.8,220.2,585,217.5,581.3,218.5z"/>
	<path class="st6" d="M633.2,492.1c2,0.5,5.4,1.1,8.8,2.1c30,8.4,59.9,16.9,89.8,25.3c13.9,3.9,19.7,13.9,15.9,27.8
		c-8.5,30.7-17.2,61.4-25.9,92c-4.2,14.6-13.7,20-28.3,15.9c-30.7-8.5-61.4-17.2-92-25.9c-14.2-4-19.8-13.7-15.9-27.7
		c8.7-31.2,17.5-62.3,26.4-93.5C615,498,622.2,492.2,633.2,492.1z M626.6,522.1c-3.9-1.8-3.6,2.3-4.2,4.7c-6.1,22.5-11.9,45-18,67.4
		c-1.1,3.9-0.4,5.3,3.5,6.3c32.3,8.4,64.6,17,96.8,25.8c4.1,1.1,5.2-0.1,6.1-3.7c5.9-22.5,11.7-45.1,18-67.5c1.4-4.9-0.2-6-4.5-7.1
		c-12.3-3-24.4-6.5-36.6-9.8C667.6,532.9,647.6,527.7,626.6,522.1z"/>
	<path class="st7" d="M195.4,530.2c41.7-13.5,83.4-27,125.1-40.5c1.4-0.5,3-0.5,4.5-0.8c9,23.4,16.2,47.4,23.4,71.4
		c-5.8,4.2-12.9,5-19.4,7.2c-2.6,0.9-5.3,1.5-7.4,3.4c-10.9,1.4-20.8,6-31.1,9.3c-12,3.8-24.3,6.6-35.7,12.3
		c-6.2,0.3-11.6,3.3-17.5,4.9c-11.9,3.3-20.4-1-24.7-12.4c-1.5-4-2-8.4-5.2-11.7c0.8-3.1-0.7-5.9-1.5-8.8
		C202.4,553.2,198.9,541.7,195.4,530.2z"/>
	<path class="st8" d="M195.4,530.2c3.5,11.5,7,23,10.4,34.5c0.9,2.9,2.3,5.6,1.5,8.8c-6,1.9-12,3.9-18.1,5.7
		c-16.4,5-30.1-2-35.5-18.1c-5-14.9-9.8-29.8-14.5-44.8c-5.1-16.4,1.9-29.7,18.4-35.2c6-2,12-4,18-6c4.5,6,5.3,13.5,7.7,20.3
		C187.5,506.9,190.3,519,195.4,530.2z"/>
	<path class="st9" d="M368.1,671.7c0.7,1.3,1.5,2.6,2.2,4c13.7,24.2,0.3,36.4-22.2,40.2c-10.6,1.8-17.7-3.6-23.1-12.3
		c-19.5-31.1-39.3-62.1-58.8-93.1c-2.4-3.8-5.5-7.3-6.8-11.8c4.8,0.6,8.2,3.9,11.9,6.4c28.5,19.7,56.9,39.6,85.4,59.3
		c2.8,2,5.5,4.7,9.4,4.3c0,0,0,0,0,0C366.1,670,366.8,671.1,368.1,671.7z"/>
	<path class="st10" d="M366,668.6c-4,0.4-6.6-2.3-9.4-4.3c-28.5-19.7-56.9-39.6-85.4-59.3c-3.7-2.6-7.1-5.9-11.9-6.4
		c0,0,0.1,0.1,0.1,0.1c-0.5-0.6-1-1.1-1.5-1.7c-1.1-1.5-2.2-2.9-3.2-4.4c11.4-5.6,23.7-8.4,35.7-12.3c10.3-3.3,20.3-7.9,31.1-9.3
		c7,15.3,14,30.7,21.1,46c6.9,14.8,14,29.6,21.1,44.4C364.9,663.8,366.3,665.9,366,668.6z"/>
	<path class="st0" d="M525.6,376.1c13.2-5.5,25.8-1.6,32.9,11.4c5.6,10.2,9.3,21.5,10.6,33.1c1.7,14.5-6,24.7-20.4,28.4
		C542,424.3,533.3,400.4,525.6,376.1z"/>
	<path class="st11" d="M525.6,376.1c7.7,24.3,16.4,48.2,23.1,72.9c-3.8,2.2-8.1,2.9-12.3,4c-8.8-24.2-16.3-48.8-24-73.4
		C516.8,378.4,521.2,377.2,525.6,376.1z"/>
	<path class="st0" d="M603.2,396.2c-2.8,0-5.1,0.2-5.7-2.4c-0.6-2.5,0.9-3.7,3.4-3.9c5.3-0.4,8.5-3.9,11.8-7.6c3.9-4.4,8-8.5,14.4-9
		c2.3-0.2,4.9-0.7,5.6,2.3c0.7,3.1-1.6,3.7-4.1,4c-5.8,0.8-9,5.2-12.6,9.1C612.3,392.7,608.2,396,603.2,396.2z"/>
	<path class="st0" d="M583.4,331.7c-0.8-2.5-1.8-5.5,2-6c3.8-0.5,4.2,2.9,4.6,5.6c0.8,5.3-0.7,10-4.2,14.1c-3.7,4.3-7,8.7-6.4,14.9
		c0.2,1.8-0.5,3.7-2.9,3.7c-2.6,0-3.2-2-3.4-4.1c-0.7-6.2,1.5-11.4,5.4-16.1C581.3,340.4,584.5,336.9,583.4,331.7z"/>
	<path class="st0" d="M639.7,445.1c-5.5,0.4-9.7-1.6-13.8-3.5c-4.8-2.3-9.3-5.2-15-4.7c-2.3,0.2-4.2-0.9-4.1-3.3
		c0.1-2.4,2.2-3.2,4.3-3.5c5-0.7,9.4,1.5,13.8,3.5c4.8,2.2,9.2,5.4,14.8,5.3c2.4,0,5.9-1.1,6,2.6
		C645.9,445.9,641.7,444.7,639.7,445.1z"/>
	<path class="st10" d="M368.1,671.7c-1.3-0.6-2-1.7-2.1-3.1C366.7,669.6,367.4,670.7,368.1,671.7z"/>
	<path class="st9" d="M258,597c0.5,0.6,1,1.1,1.5,1.7C259,598.1,258.5,597.6,258,597z"/>
	<path class="st12" d="M313.3,452.3c-1.8-1.1-2-2.8-1.7-4.7C313,448.9,313.2,450.6,313.3,452.3z"/>
	<path class="st12" d="M311.7,447.8c-1.8-1.2-2-2.9-1.6-4.8C311.6,444.3,311.7,446,311.7,447.8z"/>
	<path class="st12" d="M320.2,473.8c-0.4-1.3-0.8-2.6-1.2-3.8C320.1,471.1,320.3,472.4,320.2,473.8z"/>
	<path class="st12" d="M315.8,460.2c-0.4-1.3-0.9-2.6-1.3-4C315.7,457.3,315.8,458.7,315.8,460.2z"/>
	<path class="st12" d="M317.3,464.7c-0.4-1.3-0.9-2.6-1.3-3.9C317.2,461.9,317.3,463.3,317.3,464.7z"/>
	<path class="st12" d="M314.4,455.7c-1-1-1.4-2.1-1.3-3.5C314.3,453,314.4,454.3,314.4,455.7z"/>
	<path class="st12" d="M318.8,469.3c-0.4-1.3-0.9-2.6-1.3-3.9C318.7,466.5,318.9,467.8,318.8,469.3z"/>
	<path class="st13" d="M710.2,388.9c0-4.3,0.1-8.6,0-12.9c-0.1-4.1,2.1-9.4-5.8-9.1c-3,0.1-1.5-3.7-1.7-5.7
		c-0.2-1.8-0.7-4.8,2.4-4.4c5.7,0.7,4.9-3.1,5.5-6.5c2.2-14.1,10.5-20.7,23.9-19.5c3.5,0.3,6.6,0.7,5.8,5.6c-0.6,3.5-0.1,7.1-5.9,6
		c-5.3-1-8.3,2.3-9.5,7.5c-1,4.7-0.3,7.5,5.3,6.8c4.5-0.5,6,1.1,6.2,5.9c0.2,6-3.5,5.3-6.9,4.8c-4.4-0.6-5,1.4-5,5.1
		c0,11.1-0.8,22.3-0.3,33.3c0.3,6.9-3.9,5.3-7.7,5.6c-4.5,0.4-7.1-0.3-6.6-5.9c0.5-5.5,0.1-11.1,0.1-16.7
		C710.1,388.9,710.1,388.9,710.2,388.9z"/>
	<path class="st7" d="M242.7,473.2c0,11-7.8,18.9-18.4,18.8c-10-0.1-18.3-8.9-18.1-19.3c0.1-10,8.5-18.1,18.6-17.9
		C234.9,454.9,242.8,463,242.7,473.2z"/>
	<path class="st13" d="M581.3,218.5c3.7-1,6.5,1.7,10.1,0.1c-4.2-8.2-3-16.3,0.7-24.4c0.8-1.8,1-4.4,3.3-4.6c2.2-0.2,2,2.5,3,3.9
		c1.5,2,2.7,4.3,4.3,6.2c3.1,3.6,5.7,6.7,10.6,1.1c3.7-4.3,9.1-3.6,13.5,0.4c1.6,1.5,2.7,3.6,5.1,4.3c3.5,1.1,1.5,4.8,0.8,5.1
		c-5.2,2.1-6.5,7.5-10.1,10.9C610.6,233.3,591.6,232.1,581.3,218.5z"/>
	<path class="st14" d="M626.6,522.1c20.9,5.5,41,10.8,61.1,16.1c12.2,3.2,24.4,6.8,36.6,9.8c4.3,1.1,5.9,2.2,4.5,7.1
		c-6.3,22.4-12.1,45-18,67.5c-0.9,3.6-2,4.9-6.1,3.7c-32.2-8.8-64.5-17.4-96.8-25.8c-3.9-1-4.6-2.5-3.5-6.3c6.2-22.4,12-45,18-67.4
		C623.1,524.5,622.8,520.3,626.6,522.1z M690.2,591.2c1.8,0.6,2.3,2.4,3,3.8c2.9,6.5,5.7,12.9,8.7,19.4c0.6,1.3,0.8,3.4,2.6,3.4
		c2.3-0.1,2.1-2.4,2.5-4c4.8-17.9,9.3-35.8,14.4-53.5c1.3-4.7-0.6-5.6-4.3-6.6c-27.9-7.3-55.8-14.7-83.6-22.3
		c-4.4-1.2-6.1-0.6-7.3,4.1c-4.4,17.7-9,35.3-14.1,52.8c-1.5,5.2,0.7,6.1,4.6,7.1c2.8,0.7,4.8-0.5,6.9-2.1
		c8.7-6.5,17.5-13,26.2-19.5c7.6-5.6,7.6-5.6,11.5,3.4c3.1,6.9,6.4,13.8,9.2,20.8c1.9,4.8,3.8,5.9,7.9,2.2
		C681.9,597,686,594.4,690.2,591.2z"/>
	<path class="st6" d="M690.2,591.2c-4.2,3.1-8.3,5.7-11.8,8.9c-4.1,3.7-6,2.6-7.9-2.2c-2.8-7.1-6.1-13.9-9.2-20.8
		c-4-9-3.9-9-11.5-3.4c-8.7,6.5-17.5,12.9-26.2,19.5c-2.1,1.6-4.1,2.8-6.9,2.1c-3.9-0.9-6.1-1.9-4.6-7.1
		c5.1-17.5,9.7-35.1,14.1-52.8c1.2-4.7,2.8-5.3,7.3-4.1c27.8,7.6,55.7,15,83.6,22.3c3.7,1,5.7,1.8,4.3,6.6
		c-5.1,17.8-9.6,35.7-14.4,53.5c-0.4,1.6-0.3,4-2.5,4c-1.8,0.1-2-2.1-2.6-3.4c-2.9-6.4-5.8-12.9-8.7-19.4
		C692.5,593.6,692,591.9,690.2,591.2z M643.6,554.9c-0.5-4.8-3-7.7-7.8-7.6c-4.8,0.1-7.6,3.4-7.4,8c0.2,4.1,2.7,7.1,7.4,7.1
		C640.8,562.3,643.1,559.5,643.6,554.9z"/>
	<path class="st14" d="M643.6,554.9c-0.5,4.6-2.8,7.5-7.8,7.4c-4.7,0-7.2-2.9-7.4-7.1c-0.2-4.6,2.5-7.8,7.4-8
		C640.6,547.1,643.1,550.1,643.6,554.9z"/>
</g>
</svg>
