<?xml version="1.0" encoding="utf-8"?>
<!-- Generator: Adobe Illustrator 20.1.0, SVG Export Plug-In . SVG Version: 6.00 Build 0)  -->
<svg version="1.1" id="Layer_1" xmlns="http://www.w3.org/2000/svg" xmlns:xlink="http://www.w3.org/1999/xlink" x="0px" y="0px"
	 viewBox="0 0 907.9 840" style="enable-background:new 0 0 907.9 840;" xml:space="preserve">
<style type="text/css">
	.st0{fill:#387FBF;}
	.st1{fill:#FBFCFE;}
</style>
<path class="st0" d="M353.4,297.1c-52.2-64.5-52.5-167.4-0.8-232.1c55.1-68.8,147.1-68.1,200.8,1.8c0.8,1,1.6,2.1,2.4,3.1
	c0.5,0.8,1.1,1.5,1.6,2.3c1,1.4,1.9,2.8,2.9,4.1c6.9,10.3,12.6,21,17,32.2c0.4,0.9,0.7,1.8,1.1,2.7c1.7,4.4,3.2,8.9,4.5,13.4
	c0.3,0.9,0.5,1.8,0.8,2.7c2.7,9.7,4.5,19.7,5.6,29.9c0.1,0.6,0.1,1.3,0.2,1.9c0.1,0.6,0.1,1.3,0.2,1.9c0.6,6.7,0.9,13.5,0.8,20.4
	c0,4-0.1,8-0.4,11.9c-0.3,5.3-0.8,10.5-1.5,15.6c-0.3,2.6-0.7,5.1-1.2,7.6c-5,29.1-16.6,56-35.9,80.2
	C497.9,364,407.6,364.1,353.4,297.1z"/>
<path class="st0" d="M402.4,623.2c32.9-3.3,64-3.5,94.9-0.4c9.4,0.9,10-1.4,9.9-8.6c-0.2-17.7-0.3-35.4,0-53
	c0.4-25.5,12.6-37.7,37.8-38c20.5-0.2,40.9-0.3,61.4,0c23.2,0.4,35.8,13.5,36,36.9c0.2,20.5,0.2,40.9,0,61.4
	c-0.2,22.9-13.5,36.8-36.4,36.7c-25-0.2-50.2,2.3-75.2-1.6c-7.3-1.2-6.2,3.7-6.2,7.6c-0.1,18.6,0,37.2-0.1,55.8
	c-0.2,28.4-13.8,42-41.8,42.1c-20,0-40,0.1-60,0c-23.1-0.2-37.1-14.2-37.4-37.5c-0.3-19.5-0.3-39.1,0-58.6c0.1-7.5-0.9-9.4-10-8.8
	c-25.9,1.7-52.1,1.7-78,0.7c-17-0.7-29-14.2-29.5-31.5c-0.6-23.7-0.7-47.5,0-71.2c0.5-18.7,13.2-31.2,32.2-31.7
	c23.2-0.7,46.5-0.7,69.8,0c20,0.7,32.3,14.2,32.5,34.4C402.6,579.6,402.4,601.4,402.4,623.2z"/>
<path class="st0" d="M659.6,777.1c0,2.9-1.9,4-4.5,4.1c-3.7,0.1-7.5,0.2-11.2,0.2c-63.3,0-126.6,0-189.9,0c-62.8,0-125.7,0-188.5,0
	c-3.7,0-7.4,0-11.2-0.2c-2.6-0.1-4.4-1.4-4.4-4.2c0-2.9,2-4,4.5-4.2c3.2-0.2,6.5-0.2,9.8-0.2c127.1,0,254.2,0,381.2,0
	c3.3,0,6.5,0.1,9.8,0.2C657.9,773,659.6,774.3,659.6,777.1z"/>
<path class="st0" d="M717.8,590.2c7.7,44.6,10.9,89.5,6.7,134.8c-1.1,11.5-5.3,14-15.4,13.4c-12.1-0.6-24.3-1-36.3,0.1
	c-13.2,1.2-17.5-2.8-17.4-16.7c0.8-64.2,0-128.5,0.6-192.7c0.1-12.6-3.1-16.3-16.1-16.2c-123.3,0.4-246.7,0.2-370-0.5
	c-12.4-0.1-15.5,3.3-15.4,15.5c0.5,65.2-0.3,130.3,0,195.5c0.1,11.3-2.6,15.8-14.6,15.1c-15.3-1-30.7-0.6-46.1-0.1
	c-7.7,0.2-10.9-2.7-11.5-10.2c-7.8-88.8-1.7-175.9,36.3-258.1c26.3-56.8,66.2-99.5,129-116.9c9.5-2.6,15.9-0.8,22.5,5.7
	c12.8,12.6,18.7,28.7,23.9,45.1c4.7,15,9.2,30,14,45.8c12.2-6.4,16.5-15.6,17.2-26.9c0.6-10.2-0.4-20.4-1.9-30.6
	c-3.2-21.8,4.4-30.1,26.7-29.8c1.4,0,2.8,0,4.2,0.1c25.1,1.3,29.8,7.8,24.1,32.7c-3.3,14.4-9,28.7-2.8,43.7
	c4.9,11.9,8.7,12.5,17.4,2.8c7.2-8.1,12.3-17.5,16-27.6c4.8-13.1,9.3-26.3,14-39.4c9.4-26.4,9.8-26.6,36.5-19.3
	c44,12.2,75.7,40.5,100.5,77.5C691.6,480.8,708.2,534.4,717.8,590.2z"/>
<path class="st0" d="M873.8,423.8c0,14-0.7,28-2,41.7v-83.3C873.1,395.8,873.8,409.7,873.8,423.8z"/>
<g>
	<path class="st0" d="M871.8,478.1v-16.9c-0.5,5.1-1.1,10.2-1.8,15.3C870.7,476.6,871.2,477.7,871.8,478.1z M869.9,362.1
		c0.8,5.5,1.4,11,1.9,16.6v-16.9C871.1,362,870.4,362.1,869.9,362.1z M593,179.7c0,4-0.1,7.9-0.3,11.8
		C592.9,187.6,593,183.7,593,179.7c0-6.8-0.2-13.5-0.8-20.2C592.8,166.1,593.1,172.9,593,179.7z M591.2,206.9
		c-0.3,2.5-0.7,5.1-1.2,7.6C590.5,212,590.9,209.5,591.2,206.9z"/>
	<path class="st0" d="M869.9,362.1C841.7,157.6,666.1,0,453.8,0c-232,0-420,188-420,420c0,232,188,420,420,420
		c212.8,0,388.6-158.2,416.2-363.4c0.7-5.1,1.3-10.2,1.8-15.3v-82.6C871.3,373.1,870.6,367.6,869.9,362.1z M457.8,774.4
		c-62.3,0-124.6,0-186.8,0c-3.7,0-7.4,0-11.1-0.2c-2.5-0.1-4.4-1.4-4.3-4.2c0-2.9,2-4,4.5-4.1c3.2-0.2,6.5-0.2,9.7-0.2
		c125.9,0,251.9,0,377.8,0c3.2,0,6.5,0.1,9.7,0.2c2.6,0.1,4.3,1.4,4.3,4.3c0,2.9-1.9,4-4.4,4.1c-3.7,0.1-7.4,0.2-11.1,0.2
		C583.2,774.4,520.5,774.4,457.8,774.4z M500.7,617.2c9.3,0.9,9.9-1.4,9.8-8.6c-0.2-17.5-0.3-35,0-52.5
		c0.4-25.2,12.5-37.4,37.4-37.7c20.3-0.2,40.6-0.3,60.9,0c23,0.4,35.5,13.4,35.7,36.6c0.2,20.3,0.2,40.6,0,60.9
		c-0.2,22.7-13.4,36.5-36.1,36.3c-24.8-0.2-49.8,2.3-74.5-1.6c-7.3-1.2-6.1,3.7-6.2,7.5c-0.1,18.4,0,36.9-0.1,55.3
		c-0.2,28.2-13.7,41.7-41.4,41.7c-19.8,0-39.6,0.1-59.5,0c-22.9-0.2-36.8-14.1-37.1-37.2c-0.3-19.4-0.3-38.7,0-58.1
		c0.1-7.4-0.9-9.3-9.9-8.7c-25.7,1.6-51.6,1.7-77.4,0.7c-16.8-0.7-28.8-14.1-29.2-31.2c-0.6-23.5-0.7-47,0-70.5
		c0.5-18.5,13.1-30.9,31.9-31.4c23-0.7,46.1-0.7,69.1,0c19.8,0.7,32,14,32.3,34.1c0.3,21.6,0.1,43.3,0.1,64.8
		C439.2,614.4,470.1,614.2,500.7,617.2z M725.8,718.6c-1.1,11.4-5.3,13.8-15.3,13.3c-12-0.6-24.1-1-35.9,0.1
		c-13.1,1.2-17.4-2.8-17.2-16.5c0.8-63.7,0-127.3,0.6-191c0.1-12.5-3-16.1-15.9-16.1c-122.2,0.4-244.5,0.2-366.7-0.5
		c-12.3-0.1-15.3,3.3-15.3,15.4c0.5,64.6-0.3,129.2,0,193.7c0.1,11.2-2.6,15.7-14.5,14.9c-15.2-1-30.4-0.5-45.7-0.1
		c-7.6,0.2-10.8-2.7-11.4-10.1c-7.7-88-1.7-174.3,36-255.8c26-56.3,65.6-98.6,127.8-115.9c9.4-2.6,15.8-0.8,22.3,5.7
		c12.6,12.5,18.5,28.4,23.7,44.7c4.7,14.8,9.1,29.8,13.9,45.4c12.1-6.3,16.4-15.5,17-26.7c0.6-10.1-0.4-20.2-1.9-30.3
		c-3.2-21.6,4.4-29.8,26.5-29.6c1.4,0,2.8,0,4.2,0.1c24.9,1.2,29.5,7.8,23.9,32.4c-3.3,14.2-8.9,28.4-2.7,43.3
		c4.9,11.8,8.6,12.4,17.2,2.8c7.1-8,12.2-17.4,15.8-27.4c4.8-13,9.2-26.1,13.8-39.1c9.3-26.2,9.8-26.4,36.1-19.1
		c43.6,12.1,75.1,40.1,99.6,76.9c31.5,47.3,47.9,100.4,57.5,155.7C726.8,629.1,730,673.6,725.8,718.6z M556.3,66.2
		c0.8,1,1.6,2.1,2.3,3.1c0.5,0.7,1.1,1.5,1.6,2.2c1,1.4,1.9,2.7,2.8,4.1c6.8,10.2,12.4,20.8,16.9,31.9c0.4,0.9,0.7,1.8,1.1,2.7
		c1.7,4.4,3.2,8.8,4.4,13.3c0.3,0.9,0.5,1.8,0.8,2.7c2.6,9.6,4.5,19.5,5.6,29.6c0.1,0.6,0.1,1.2,0.2,1.9c0.1,0.6,0.1,1.3,0.2,1.9
		c0.6,6.6,0.9,13.3,0.8,20.2c0,4-0.1,7.9-0.4,11.8c-0.3,5.2-0.8,10.4-1.5,15.4c-0.3,2.5-0.7,5.1-1.2,7.6
		c-5,28.8-16.5,55.5-35.6,79.5c-53.2,66.7-142.8,66.8-196.5,0.5c-51.7-63.9-52.1-165.9-0.8-230.1C411.8-3.8,503-3.1,556.3,66.2z"/>
	<path class="st1" d="M725.8,718.6c-1.1,11.4-5.3,13.8-15.3,13.3c-12-0.6-24.1-1-35.9,0.1c-13.1,1.2-17.4-2.8-17.2-16.5
		c0.8-63.7,0-127.3,0.6-191c0.1-12.5-3-16.1-15.9-16.1c-122.2,0.4-244.5,0.2-366.7-0.5c-12.3-0.1-15.3,3.3-15.3,15.4
		c0.5,64.6-0.3,129.2,0,193.7c0.1,11.2-2.6,15.7-14.5,14.9c-15.2-1-30.4-0.5-45.7-0.1c-7.6,0.2-10.8-2.7-11.4-10.1
		c-7.7-88-1.7-174.3,36-255.8c26-56.3,65.6-98.6,127.8-115.9c9.4-2.6,15.8-0.8,22.3,5.7c12.6,12.5,18.5,28.4,23.7,44.7
		c4.7,14.8,9.1,29.8,13.9,45.4c12.1-6.3,16.4-15.5,17-26.7c0.6-10.1-0.4-20.2-1.9-30.3c-3.2-21.6,4.4-29.8,26.5-29.6
		c1.4,0,2.8,0,4.2,0.1c24.9,1.2,29.5,7.8,23.9,32.4c-3.3,14.2-8.9,28.4-2.7,43.3c4.9,11.8,8.6,12.4,17.2,2.8
		c7.1-8,12.2-17.4,15.8-27.4c4.8-13,9.2-26.1,13.8-39.1c9.3-26.2,9.8-26.4,36.1-19.1c43.6,12.1,75.1,40.1,99.6,76.9
		c31.5,47.3,47.9,100.4,57.5,155.7C726.8,629.1,730,673.6,725.8,718.6z"/>
	<path class="st1" d="M593.1,179.7c0,4-0.1,7.9-0.4,11.8c-0.3,5.2-0.8,10.4-1.5,15.4c-0.3,2.5-0.7,5.1-1.2,7.6
		c-5,28.8-16.5,55.5-35.6,79.5c-53.2,66.7-142.8,66.8-196.5,0.5c-51.7-63.9-52.1-165.9-0.8-230.1c54.6-68.2,145.8-67.5,199,1.8
		c0.8,1,1.6,2.1,2.3,3.1c0.5,0.7,1.1,1.5,1.6,2.2c1,1.4,1.9,2.7,2.8,4.1c6.8,10.2,12.4,20.8,16.9,31.9c0.4,0.9,0.7,1.8,1.1,2.7
		c1.7,4.4,3.2,8.8,4.4,13.3c0.3,0.9,0.5,1.8,0.8,2.7c2.6,9.6,4.5,19.5,5.6,29.6c0.1,0.6,0.1,1.2,0.2,1.9c0.1,0.6,0.1,1.3,0.2,1.9
		C592.8,166.1,593.1,172.9,593.1,179.7z"/>
	<path class="st1" d="M644.5,555c-0.2-23.2-12.7-36.1-35.7-36.6c-20.3-0.4-40.6-0.3-60.9,0c-24.9,0.3-37,12.4-37.4,37.7
		c-0.3,17.5-0.2,35,0,52.5c0.1,7.2-0.5,9.5-9.8,8.6c-30.6-3-61.5-2.8-94.1,0.4c0-21.6,0.2-43.2-0.1-64.8
		c-0.3-20.1-12.5-33.5-32.3-34.1c-23-0.8-46.1-0.7-69.1,0c-18.8,0.5-31.4,12.9-31.9,31.4c-0.7,23.5-0.6,47,0,70.5
		c0.5,17.1,12.4,30.6,29.2,31.2c25.8,1,51.6,0.9,77.4-0.7c9-0.6,10,1.3,9.9,8.7c-0.3,19.4-0.3,38.7,0,58.1
		c0.3,23.1,14.2,37,37.1,37.2c19.8,0.2,39.7,0.1,59.5,0c27.7-0.1,41.2-13.6,41.4-41.7c0.1-18.4,0-36.9,0.1-55.3
		c0-3.8-1.1-8.7,6.2-7.5c24.7,4,49.7,1.4,74.5,1.6c22.7,0.2,35.8-13.6,36.1-36.3C644.7,595.6,644.7,575.3,644.5,555z M375.4,645.8
		c-23.5,1.1-47,1.1-70.5,0.1c-16.2-0.7-25.4-11.9-25.8-28.5c-0.1-5.9-0.1-11.9-0.1-17.8c0-5.1,0.1-10.3,0.1-15.4c0-5,0-9.9-0.1-14.9
		c0-6.1,0-12.2,0.2-18.3c0.6-15.8,10.5-25.9,26.2-26.2c22.6-0.4,45.2-0.4,67.8,0c15.7,0.2,26.6,9.9,27.2,25.4
		c0.9,23,0.8,46.1,0.1,69.1C400.1,634.4,390.3,645.1,375.4,645.8z M395.6,702.6c0-3.1,0.3-6.2,0.5-9.6c6.6,1.9,12.6,4.3,18.8,5.3
		c9.8,1.6,4.3,9.6,6.4,14.3c2.7,5.8-3.6,4.7-6.4,5.3C395.4,722.2,395.4,722.2,395.6,702.6z M402.2,660.6
		c0.1-12.3,7.1-21.4,16.6-21.7c12.2-0.4,23.8,15.2,24,34.4c-0.4,8-2.7,17.2-15.4,17.9C414,691.9,402,676.9,402.2,660.6z
		 M453.3,746.6c-1.9,5.1-7.2,2.1-10.9,2.6c-2.7,0.4-5.5,0.1-9.7,0.1c-9.3,0.7-19.5-0.6-27.9-8.5c-6.1-5.7-5.1-9.7,2.1-13.5
		c13.1-7,30.2-4.2,41.4,7.3C451.6,737.9,455.1,741.7,453.3,746.6z M520.5,721.9c-1.3,20.9-32.1,37.1-49.9,26.9
		c-1.3-0.8-2.6-2.9-2.6-4.3c0.6-15.6-9.8-24.1-20.7-32.2c-9.5-7.1-10.5-13.7-0.9-22.2c16.5-14.5,17.6-26.1,5.3-47.4
		c6.5-1.3,12.4-2.5,13.9-11.4c-21.3,0.9-42.3-3.4-65,6.6c5.9-11.6,13.2-15.5,22.2-15.6c23.5-0.4,47-0.5,70.5,0
		c12.8,0.2,24,10.1,26.7,22.3c0.7,3.3,2.1,8.2-3.8,8.2c-4.4,0-10.7,3.5-12.4-4.2c-0.7-3.1-0.2-6.4-0.3-9.7c-0.1-3.1-1.1-5.3-4.8-5.3
		c-3.3,0-5.7,1.6-5.3,4.8c1.2,10.7-1.9,16.7-14,14.9c-3.9-0.6-5.8,1.9-5.7,5.9c0.1,3.9,2.9,4.7,5.6,4.4c10.4-1.3,15.7,2,14,13.4
		c-0.5,3.5,1,6.2,5.4,6.3c4.7,0,4.6-3.2,4.9-6.5c0.5-5.7-2.8-13.6,8.4-13.1c6.3,0.3,9.2,1.9,9,8.6
		C520.7,688.7,521.6,705.3,520.5,721.9z M638.2,619.9c-0.6,15.5-11,25.5-27,26.1c-22.6,0.8-45.2,0.9-67.7,0
		c-17-0.7-26.3-11.6-26.5-29.1c-0.3-21.2-0.3-42.4,0-63.6c0.3-18.4,10.1-28.1,28.2-28.5c10.6-0.2,21.2,0,31.8,0
		c11.1,0,22.1-0.2,33.2,0c16.6,0.4,27.5,9.8,28.1,26.1C639.1,573.8,639.1,596.9,638.2,619.9z"/>
	<path class="st1" d="M661.5,770.2c0,2.9-1.9,4-4.4,4.1c-3.7,0.1-7.4,0.2-11.1,0.2c-62.7,0-125.5,0-188.2,0c-62.3,0-124.6,0-186.8,0
		c-3.7,0-7.4,0-11.1-0.2c-2.5-0.1-4.4-1.4-4.3-4.2c0-2.9,2-4,4.5-4.1c3.2-0.2,6.5-0.2,9.7-0.2c125.9,0,251.9,0,377.8,0
		c3.2,0,6.5,0.1,9.7,0.2C659.8,766,661.5,767.3,661.5,770.2z"/>
	<path class="st0" d="M279.1,584.3c0-11.1-0.3-22.1,0.1-33.2c0.6-15.8,10.5-25.9,26.2-26.2c22.6-0.4,45.2-0.4,67.8,0
		c15.7,0.2,26.6,9.9,27.2,25.4c0.9,23,0.8,46.1,0.1,69.1c-0.4,15-10.3,25.7-25.1,26.4c-23.5,1.1-47,1.1-70.5,0.1
		c-16.2-0.7-25.4-11.9-25.8-28.5C278.9,606.4,279.1,595.3,279.1,584.3z M348.6,638.4c9.3,2.1,12-2.4,11.4-11.2
		c-0.6-7.8,0.1-15.6-0.2-23.4c-0.2-5.8,0.7-10.2,8-9.4c7.3,0.8,8.1-3.5,8.1-9.4c0-5.9-1-10.1-8.2-9.5c-5.9,0.5-8.4-2.1-7.9-8.1
		c0.4-5.2,0.9-11.7,7.2-11.2c11.3,0.9,8.8-6.4,8.6-12.3c-0.3-9.3-7.5-8.1-13.2-7.4c-12.6,1.6-21,8.8-24.3,21.2
		c-1.9,7.3,1.9,16.1-7.8,21.4c-2.5,1.3-3.1,11.9,1,13.6c8.9,3.8,5.6,10.4,6,16.1c0.5,6.4,0.6,12.9,0,19.3
		C336.7,636.9,340.1,640.2,348.6,638.4z"/>
	<path class="st0" d="M577,524.7c11.1,0,22.1-0.2,33.2,0c16.6,0.4,27.5,9.8,28.1,26.1c0.8,23,0.8,46.1-0.1,69.1
		c-0.6,15.5-11,25.5-27,26.1c-22.6,0.8-45.2,0.9-67.7,0c-17-0.7-26.3-11.6-26.5-29.1c-0.3-21.2-0.3-42.4,0-63.6
		c0.3-18.4,10.1-28.1,28.2-28.5C555.8,524.5,566.4,524.7,577,524.7z M537.7,618.1c31.4,15.2,65.5,0.2,74-30.7
		c2-7.3,0.1-15.7,6.7-21.9c0.7-0.7,1.8-9.6-3.8-8.7c-5.9,0.9-9.5-2.6-14.2-3.5c-9.6-1.8-19.1,0.7-21.8,10
		c-4.4,15.7-12.9,9.8-21.3,5.8c-4.5-2.2-8.5-5.4-12.6-8.4c-5.4-4-7.9-1.6-7.4,4c1.4,17.3,3.2,34.7,19.6,45.8
		C551.3,615.6,544.2,614.9,537.7,618.1z"/>
	<path class="st0" d="M451.8,642.6c6.5-1.3,12.4-2.5,13.9-11.4c-21.3,0.9-42.3-3.4-65,6.6c5.9-11.6,13.2-15.5,22.2-15.7
		c23.5-0.4,47-0.5,70.5,0c12.8,0.2,24,10.1,26.7,22.3c0.7,3.3,2.1,8.2-3.8,8.2c-4.4,0-10.7,3.5-12.4-4.2c-0.7-3.1-0.2-6.4-0.3-9.7
		c-0.1-3.1-1.2-5.3-4.8-5.3c-3.3,0-5.7,1.6-5.3,4.8c1.2,10.7-1.9,16.7-14,14.9c-3.9-0.6-5.8,1.9-5.7,5.9c0.1,3.9,2.8,4.7,5.6,4.4
		c10.4-1.3,15.7,2,14,13.4c-0.5,3.5,1,6.2,5.4,6.3c4.7,0,4.6-3.2,4.9-6.5c0.5-5.7-2.8-13.6,8.4-13.1c6.3,0.3,9.2,1.9,9,8.6
		c-0.3,16.6,0.5,33.2-0.5,49.8c-1.3,20.9-32.1,37.2-49.9,26.9c-1.3-0.7-2.6-2.9-2.6-4.3c0.6-15.6-9.8-24.1-20.7-32.2
		c-9.5-7.1-10.5-13.7-0.9-22.2C463,675.6,464,664,451.8,642.6z"/>
	<path class="st0" d="M442.8,673.3c-0.4,8-2.7,17.2-15.4,17.9c-13.3,0.7-25.4-14.3-25.2-30.7c0.2-12.3,7.1-21.4,16.6-21.7
		C430.9,638.5,442.6,654.1,442.8,673.3z"/>
	<path class="st0" d="M432.7,749.3c-9.3,0.7-19.5-0.6-27.9-8.5c-6.1-5.7-5.1-9.7,2.1-13.5c13.1-7,30.2-4.2,41.4,7.3
		c3.2,3.3,6.8,7.1,5,12c-1.9,5.1-7.2,2.1-10.9,2.6C439.7,749.6,436.9,749.3,432.7,749.3z"/>
	<path class="st0" d="M396.1,693c6.6,1.9,12.6,4.3,18.8,5.2c9.8,1.6,4.3,9.6,6.4,14.3c2.7,5.8-3.6,4.7-6.4,5.3
		c-19.5,4.4-19.6,4.3-19.3-15.2C395.7,699.5,395.9,696.4,396.1,693z"/>
	<path class="st1" d="M348.6,638.4c-8.5,1.7-12-1.6-11.2-10.2c0.6-6.4,0.5-12.9,0-19.3c-0.4-5.7,2.9-12.3-6-16.1
		c-4.1-1.7-3.4-12.3-1-13.6c9.7-5.3,5.9-14.2,7.8-21.4c3.3-12.4,11.6-19.7,24.3-21.2c5.6-0.7,12.9-1.9,13.2,7.4
		c0.2,5.9,2.7,13.1-8.6,12.3c-6.4-0.5-6.8,6-7.2,11.2c-0.5,6,1.9,8.6,7.9,8.1c7.1-0.6,8.2,3.6,8.2,9.5c0,5.8-0.8,10.2-8.1,9.4
		c-7.3-0.8-8.2,3.6-8,9.4c0.2,7.8-0.4,15.7,0.2,23.4C360.7,636.1,358,640.5,348.6,638.4z"/>
	<path class="st1" d="M537.7,618.1c6.5-3.2,13.6-2.5,19.3-7.6c-16.3-11.2-18.1-28.5-19.6-45.8c-0.5-5.6,2-8,7.4-4
		c4.1,3,8.1,6.3,12.6,8.4c8.4,4.1,16.8,9.9,21.3-5.8c2.6-9.3,12.2-11.8,21.8-10c4.7,0.9,8.3,4.4,14.2,3.5c5.6-0.9,4.5,8,3.8,8.7
		c-6.6,6.2-4.7,14.7-6.7,21.9C603.2,618.3,569.1,633.2,537.7,618.1z"/>
</g>
</svg>
