<?xml version="1.0" encoding="utf-8"?>
<!-- Generator: Adobe Illustrator 20.1.0, SVG Export Plug-In . SVG Version: 6.00 Build 0)  -->
<svg version="1.1" id="Layer_1" xmlns="http://www.w3.org/2000/svg" xmlns:xlink="http://www.w3.org/1999/xlink" x="0px" y="0px"
	 viewBox="0 0 907.9 840" style="enable-background:new 0 0 907.9 840;" xml:space="preserve">
<style type="text/css">
	.st0{fill:#2C2C2B;}
	.st1{fill:#D8DEDF;}
	.st2{fill:#423F3D;}
	.st3{fill:#535150;}
	.st4{fill:#F8FAFA;}
	.st5{fill:#A8A7A7;}
	.st6{fill:#F5F6F6;}
	.st7{fill:#ABAAAA;}
	.st8{fill:#AEAEAE;}
	.st9{fill:#F0F1F2;}
	.st10{fill:#4C4C4C;}
	.st11{fill:#BCBBBB;}
</style>
<g>
	<path class="st0" d="M653,207.9c0,57.3-0.1,114.6-0.1,172c-14.6,0-29.1,0-43.7,0c0-34.8,0-69.6-0.1-104.4
		c0.1-11.2-0.4-22.4,0.6-33.5c0.9-10.1-2.5-12.6-12.5-12.6c-135.7,0.4-271.3,0.3-407,0c-9.8,0-13,2.2-12.9,12.5
		c0.5,63.6,0.2,127.2,0.3,190.7c0,3.8-1.6,8.2,2.4,11.2c92.1,0.1,184.1,0.2,276.2,0.3c0,14.5,0.1,29.1,0.1,43.6
		c-15.2-0.1-30.4-0.4-45.6-0.4c-90.4-0.2-180.9-0.3-271.3-0.4c-1.1-0.7-2.1-1.3-3.2-2c-0.2-51.8-0.6-103.7-0.7-155.5
		c0-39.3,0.4-78.6,0.7-117.9c0.1-1.1,0.3-2.1,0.4-3.2c3.8-14.8,11.3-21.4,26.1-21.6c21.5-0.3,42.9-0.1,64.4-0.1
		c131,0,262,0.1,393.1-0.2C636.6,186.3,647.7,192.1,653,207.9z"/>
	<path class="st1" d="M456.3,487.6c-15.2-0.1-30.4-0.4-45.6-0.4c-90.4-0.2-180.9-0.3-271.3-0.4c-1,0.3-2,0.7-2.9,1
		c0,15.1,0.7,30.2-0.2,45.3c-0.8,12.9,3.4,22.4,13.8,29.5c4.2,0.5,8.5,1,12.7,1.5c94.7,0.2,189.4,0.2,284.1,0.6
		c2.8,0,4.9-0.3,6.4-1.1l0,0c2.6-1.4,3.4-4.2,3.3-8.9C456.1,532.3,456.3,510,456.3,487.6z M385.1,513.8c7-1.1,14.2-1.1,21.3-1
		c8.1,0.2,14.4,4,14.4,12.6c-0.1,9-6.1,13.3-15.2,13.1c-2.7-0.1-5.4,0-11.3,0c-0.8,0-4.9,0.4-8.8-0.6c-6.3-1.5-9.9-6-9.7-12.6
		C376.1,519.4,379.2,514.7,385.1,513.8z"/>
	<path class="st2" d="M136.6,208.2c-0.1,1.1-0.2,2.1-0.4,3.2C136.4,210.3,136.5,209.3,136.6,208.2z"/>
	<path class="st2" d="M139.4,486.8c-1,0.3-2,0.7-2.9,1c-0.1-1-0.1-2-0.2-3C137.3,485.5,138.4,486.2,139.4,486.8z"/>
	<path class="st2" d="M690.6,465.7c-0.3-16-0.7-32-0.7-48c-0.1-36.8-0.8-37.5-37-37.8c-14.6,0-29.1,0-43.7,0
		c-42.6,0-85.3,0.2-127.9-0.1c-9.4-0.1-17.5,1.7-23.8,9.1c-0.4,4.2-0.9,8.5-1.3,12.7c0,4.3-0.1,8.7-0.1,13c0,4.6,0,9.3,0,13.9
		c0.1,5.1,0.2,10.3,0.2,15.5c0,14.6,0.1,29.1,0.1,43.6c0,22.3-0.2,44.7,0.2,67c0.1,4.7-0.7,7.5-3.3,8.9c0.1,0.1,0.2,0.1,0.3,0.2
		c0.1,0.1,0.2,0.2,0.3,0.3c0.1,0.1,0.2,0.1,0.2,0.2c0.1,0.1,0.1,0.1,0.2,0.2c0.1,0.1,0.2,0.2,0.2,0.2c0.1,0.1,0.2,0.2,0.3,0.4l0,0
		c0.1,0.1,0.1,0.2,0.2,0.3c0.5,0.9,0.8,2,1.1,3.5c0,0.1,0,0.3,0.1,0.4c0.6,4.3,0.2,11.1-0.2,21.9c0.1,25.4,0.2,50.7,0.3,76.1
		c5.4,9.5,13.5,13.1,24.5,13.1c61.3-0.3,122.6-0.1,183.9-0.2c6.3,0,12.6,0.1,17.6-4.7c-4-15.3-2.7-31-2.8-46.6
		c-0.1-46.4,0.1-92.9-0.1-139.3C679.3,479.6,681,470.9,690.6,465.7z M572.3,670.6c-4.2-0.1-6.4-2.7-6.2-6.9c0.2-4.3,2.9-6.1,6.7-6.9
		c3.9,0.7,6.8,2.5,7,6.7C580.1,668.5,576.9,670.7,572.3,670.6z M667.1,425.7c-0.8,5.3-0.7,10.6-1,16c0.1,66.1,0.2,132.2,0.6,198.3
		c0,7.2-2.2,8.9-9.1,8.9c-58.9-0.4-117.9-0.4-176.8-0.6c-2,0.1-2.7-0.8-1.9-2.7c0-67.8,0-135.6,0-203.4c-3.5-32.7-3.5-32.7,29-32.7
		c47.8,0,95.6,0.5,143.4-0.3C664.5,409,669,413,667.1,425.7z M452.2,563.1c-0.1,0-0.3-0.1-0.4-0.1c-1.1-0.3-2.5-0.5-4.3-0.6
		c-0.2,0-0.4,0-0.6,0c-4-0.1-9.6,0.3-17.3,0.3c-84.8-0.3-169.5-0.1-254.3,0c-4.2,0-8.7-1.6-12.6,1.4c94.7,0.2,189.4,0.2,284.1,0.6
		c2.8,0,4.9-0.3,6.4-1.1C452.9,563.4,452.6,563.2,452.2,563.1z"/>
	<path class="st1" d="M455.9,591.2c0.1,25.4,0.2,50.7,0.3,76.1c-57.6,0-115.2,0.1-172.9,0.1c-3.1,0-6.3,0.2-9.3-0.4
		c-4.4-0.9-9.1-2.3-9-8.1c0.1-5.6,4.1-7.8,8.8-8.1c6.7-0.5,13.4-0.4,20.1-0.5c18.9-0.4,28.3-7.2,29.8-25.4
		c3.8-47.1,16.2-44,51.5-43.4c15.6,0.3,31.3,0.6,46.9-0.1C434.8,580.7,446,583.3,455.9,591.2z"/>
	<path class="st3" d="M781.5,482.4c0-10.1-5.8-17.3-14.8-17.7c-25.3-1.2-50.8-2.9-76,1c-9.6,5.2-11.3,14-11.2,23.9
		c0.2,46.5,0,92.9,0.1,139.3c0,15.6-1.2,31.2,2.8,46.6c27.8,6.1,56,2.6,84,2.5c10.6-0.1,15.2-8.8,15.2-18.7
		C781.5,600.4,781.5,541.4,781.5,482.4z M730.6,670.1c-4.7,0.2-7.6-2.7-7.8-7.1c-0.2-3.9,2.5-6.6,6.4-7c4.4-0.4,7.5,1.8,8.6,6.5
		C737.4,666.7,735.3,669.9,730.6,670.1z M774.5,637.7c0.1,8.8-3.4,10.4-11.1,10.2c-21.9-0.4-43.8-0.6-65.7,0.1
		c-9.6,0.3-12.1-3.1-12-12.3c0.5-38.5,0.3-76.9,0.3-115.4c-3.5-25.6-3.5-25.6,21.3-25.6h48.2c22.4,0,23.5,1.5,18.5,24.9
		C774.1,559,774,598.4,774.5,637.7z"/>
	<path class="st4" d="M609.1,275.4c-139.4-0.1-278.8-0.1-418.3-0.4c-9.4,0-10.9,3.7-10.9,11.9c0.3,52.3,0.1,104.6,0.1,156.8
		c92.1,0.1,184.1,0.2,276.2,0.3c-0.1-5.1-0.2-10.3-0.2-15.5c-15.1-0.1-30.2-0.2-45.3-0.2c-5.4,0-10-0.7-9.8-7.6
		c0.2-6.8,5.5-5.8,9.8-5.8c15.1-0.2,30.2-0.2,45.3-0.2c0-4.3,0.1-8.7,0.1-13c-15.1-0.2-30.2-0.3-45.3-0.5c-5.3-0.1-10.2-0.7-9.8-7.7
		c0.4-6.7,5.7-5.9,9.9-5.7c15.5,0.5,31.1-1.5,46.6,1.2c6.3-7.4,14.4-9.1,23.8-9.1c42.6,0.3,85.3,0.1,127.9,0.1
		C609.2,345,609.1,310.2,609.1,275.4z M412.2,304.8c28.2-0.1,56.3-0.1,84.5-0.1c27.3,0,54.5-0.1,81.8,0.1c4.7,0,11.6-2.7,12,6.2
		c0.4,8.9-6.3,7.1-11.2,7.1c-55.9,0.1-111.7,0.1-167.6,0c-4.6,0-10.6,1.4-10.8-6.3C400.6,303.1,407.2,304.8,412.2,304.8z
		 M590.6,338.8c-0.1,7.8-5.9,6.5-10.6,6.5c-27.8,0.1-55.5,0.1-83.3,0.1c-28.2,0-56.4,0.1-84.6-0.1c-4.5,0-10.8,1.8-11.1-6
		c-0.2-8.2,6.1-7.4,11.4-7.4c56,0,111.9,0,167.9,0C585.1,331.9,590.7,331.1,590.6,338.8z M369.5,428.5c-27.3-0.5-54.6-0.2-81.9-0.2
		c-26.9,0-53.7-0.3-80.6,0.2c-8.3,0.1-11.6-1.4-11.4-10.7c0.6-34,0.6-68,0-102.1c-0.1-8.9,2.4-11.1,11.2-11
		c54.2,0.4,108.3,0.3,162.5,0c8.3-0.1,11.8,1.5,11.7,10.8c-0.6,34-0.6,68.1,0,102.1C381.1,426.8,377.9,428.6,369.5,428.5z
		 M578.6,373.9c-55,0.1-110.1,0.1-165.1,0c-5.5,0-12.8,1.5-12.6-7.7c0.3-9.1,7.6-7.2,13-7.2c27.8-0.2,55.5-0.1,83.2-0.1
		c27.3,0,54.6-0.1,81.9,0.1c5,0,11.4-1.6,11.7,7C591,375.5,584.1,373.9,578.6,373.9z"/>
	<path class="st5" d="M609.1,275.4c-139.4-0.1-278.8-0.1-418.3-0.4c-9.4,0-10.9,3.7-10.9,11.9c0.3,52.3,0.1,104.6,0.1,156.8
		c-4.1-3-2.4-7.4-2.4-11.2c-0.1-63.6,0.2-127.2-0.3-190.7c-0.1-10.3,3-12.5,12.9-12.5c135.7,0.3,271.3,0.3,407,0
		c10.1,0,13.4,2.5,12.5,12.6C608.7,253,609.3,264.2,609.1,275.4z"/>
	<path class="st2" d="M394.3,538.6c-0.8,0-4.9,0.4-8.7-0.6c-6.2-1.6-9.9-6-9.7-12.6c0.2-6,3.3-10.7,9.2-11.6
		c7-1.1,14.2-1.1,21.3-0.9c8.1,0.2,14.4,4,14.4,12.6c-0.1,9-6.1,13.3-15.2,13.1C402.9,538.6,400.3,538.6,394.3,538.6z"/>
	<path class="st6" d="M666.1,441.7c-62.4,0.2-124.8,0.4-187.3,0.6c0,67.8,0,135.6,0,203.4l1.9,2.7c58.9,0.1,117.9,0.2,176.8,0.6
		c6.9,0,9.2-1.7,9.1-8.9C666.3,573.9,666.3,507.8,666.1,441.7z M579.8,467.5c25.7-5.2,51.4-3.2,77.1-0.2
		C631.2,470.5,605.5,471.9,579.8,467.5z M656.3,480.3h-79.1c0-0.8,0-1.5,0-2.3h79.1C656.2,478.8,656.2,479.5,656.3,480.3z
		 M656.2,453.4c0,0.8,0.1,1.7,0.1,2.6h-79.1c0-0.9-0.1-1.7-0.1-2.6H656.2z M583.1,487.6c11.1-0.1,22.3,0,33.4,0
		c11.1,0,22.3-0.1,33.4,0.1c2.9,0,7.1-0.5,6.9,4.1c-0.1,3.3-3.7,3.4-6.3,3.4c-22.7,0.1-45.4,0.1-68.2,0c-2.7,0-6.2-0.1-6.3-3.4
		C576,487.4,580.1,487.7,583.1,487.6z M577.1,558.2c0-0.9,0-1.7-0.1-2.6h79c0,0.9,0.1,1.7,0.1,2.6H577.1z M656.1,569.4
		c0,0.8,0,1.7,0,2.5h-78.9c0-0.8-0.1-1.7-0.1-2.5H656.1z M577.1,535.8c0-1.3,0-2.5,0-3.8h79.1v3.4
		C629.8,537.1,603.4,536.4,577.1,535.8z M577.1,547.2c0-1,0-1.9,0-2.9h79.1c0,1,0,1.9,0.1,2.9H577.1z M577.2,523.2
		c-0.1-0.8-0.1-1.7-0.2-2.5h79.2c0,0.8,0.1,1.7,0.1,2.5H577.2z M577.1,504.8c0-0.9,0-1.8,0-2.8h79.2v2.8H577.1z M488.9,454.6
		c7.5-6.6,25.4-1.4,38.7-1.4c12.7,0.4,29.7-6.4,37,1.9c6.3,7.2,1,23.8,2.2,36.1c1.1,12-2.4,16.1-14.9,15.3
		c-19.1-1.2-38.3-0.5-57.5-0.2c-6.3,0.1-9.2-1.7-8.3-8.2c0.2-1.3-0.1-2.7,0-4C487,480.5,480.2,462.2,488.9,454.6z M486,532.4
		c-1-10,1.5-14.1,12.7-13.5c19.6,1,39.3,0.6,59,0.1c7-0.2,9.3,2,9,9c-0.5,12-0.6,24.1,0,36.2c0.3,7.5-2.7,9.1-9.4,8.8
		c-10.3-0.4-20.6-0.1-30.8-0.1c0-0.3,0-0.6,0-0.8c-12.9,0-30.1,5-37.5-1.3C480.3,563.3,487.3,545.6,486,532.4z M566.7,625.8
		c1.4,11.3-2.7,14.5-13.8,13.9c-18.2-1-36.6-0.9-54.8,0c-10.5,0.5-13.7-3.2-12.1-12.8c0.1-0.4,0-0.9,0-1.3c0.2-12.9-4.4-30,2-37.6
		c7.6-8.8,25.2-1.2,37.2-3c14.1,1.1,31-5.2,38.7,2.5C572.2,595.6,565.1,612.7,566.7,625.8z M582.2,584.5c22.7,0,45.4-0.1,68.1,0
		c2.6,0,6.1,0,6.4,3.3c0.3,4.6-3.9,4.1-6.8,4.2c-11.1,0.2-22.3,0.1-33.4,0.1c-11.1,0-22.3,0.1-33.4,0c-3,0-7.1,0.3-7.1-4
		C576,584.7,579.6,584.5,582.2,584.5z M656.2,601.6h-79.1c0-0.9,0-1.8,0-2.7h79.1C656.2,599.8,656.2,600.7,656.2,601.6z M576.2,612
		c0.2-3.3,3.7-3.3,6.3-3.3c22.7-0.1,45.4,0,68.1,0c2.6,0,6.2,0.1,6.2,3.4c0.1,4.4-4.1,3.9-7,3.9c-11.1,0.1-22.2,0.1-33.4,0.1
		c-11.1,0-22.2,0.1-33.4-0.1C580.1,616,576,616.5,576.2,612z M577.1,622.6h79.2c0,0.9,0,1.8,0.1,2.7h-79.2
		C577.1,624.4,577.1,623.5,577.1,622.6z M652.4,639.9c-23.1,0.1-46.3,0.1-69.4,0.1c-2.3,0-5-0.9-5-3.4c0-3.4,3.3-3.8,5.9-3.8
		c5.8-0.1,11.6-0.1,17.3-0.1c5.8,0,11.6,0,17.4,0c5.1,0,10.2,0,15.3,0c2.2,0,4.3,0,6.5,0c1.2,0,2.5,0,3.7,0c2.6,0,5.2,0,7.8,0
		c2.3,0,4.8,0.7,4.9,3.4C657.1,638.9,654.6,639.9,652.4,639.9z"/>
	<path class="st7" d="M666.1,441.7c-62.4,0.2-124.8,0.4-187.3,0.6c-3.5-32.7-3.5-32.7,29-32.7c47.8,0,95.6,0.5,143.4-0.3
		c13.3-0.2,17.8,3.8,15.9,16.5C666.3,431,666.4,436.3,666.1,441.7z"/>
	<path class="st8" d="M456.1,401.6c-15.1-0.2-30.2-0.3-45.3-0.5c-5.3-0.1-10.2-0.7-9.8-7.7c0.4-6.7,5.7-5.9,9.9-5.7
		c15.5,0.5,31.1-1.5,46.6,1.2C457,393.1,456.5,397.4,456.1,401.6z"/>
	<path class="st7" d="M456,428.5c-15.1-0.1-30.2-0.2-45.3-0.2c-5.4,0-10-0.7-9.8-7.6c0.2-6.8,5.5-5.8,9.7-5.9
		c15.1-0.2,30.2-0.1,45.3-0.2C456,419.3,456,423.9,456,428.5z"/>
	<path class="st9" d="M572.8,656.9c3.9,0.7,6.8,2.5,7,6.7c0.2,5-2.9,7.2-7.5,7.1c-4.2-0.1-6.4-2.6-6.2-6.9
		C566.3,659.5,569.1,657.7,572.8,656.9z"/>
	<path class="st7" d="M478.8,645.6c0.6,0.9,1.3,1.8,1.9,2.7C478.8,648.3,478.1,647.5,478.8,645.6z"/>
	<path class="st9" d="M773.9,519.7c-29.3,0.2-58.6,0.5-87.9,0.7c-0.1,38.5,0.1,76.9-0.3,115.4c-0.1,9.2,2.4,12.6,12,12.3
		c21.9-0.7,43.8-0.5,65.7-0.1c7.7,0.1,11.2-1.5,11.1-10.2C774,598.4,774.1,559,773.9,519.7z M759,632c-19.2,0.1-38.3,0.1-57.5,0
		c-2.8,0-5.5-0.9-5-4.5c0.3-2.9,2.9-3.1,5.1-3.2c9.8-0.1,19.6-0.1,29.4-0.1c9.4,0,18.7-0.1,28.1,0c2.2,0,4.7,0.4,5.1,3.2
		C764.6,631.2,761.8,632,759,632z M758.5,615.8c-9.8,0.1-19.6,0-29.4,0c-8.9,0-17.8,0.1-26.7,0c-2.7,0-5.9-0.4-6-3.8
		c-0.1-3.5,3.1-4,5.7-4c18.7-0.1,37.4-0.1,56.1,0c2.7,0,5.9,0.3,6,3.8C764.3,615.3,761.2,615.8,758.5,615.8z M765,569.5
		c0.5,25.4,0.1,25.4-25.9,25.4h-11.4c-9-1.1-23.4,4.8-30.2-2.2c-6.7-6.9-1.8-21.3-1.9-32.3c-0.3-30.1-0.1-30.2,30.5-30.1
		c12.5,0,29.1-4.2,36.3,2.1C770.8,539.7,764.7,556.7,765,569.5z"/>
	<path class="st5" d="M773.9,519.7c-29.3,0.2-58.6,0.5-87.9,0.7c-3.5-25.6-3.5-25.6,21.3-25.6c16.1,0,32.1,0,48.2,0
		C777.8,494.8,778.9,496.2,773.9,519.7z"/>
	<path class="st1" d="M737.9,662.5c-0.5,4.2-2.6,7.4-7.3,7.6c-4.7,0.2-7.6-2.7-7.8-7.1c-0.2-3.9,2.5-6.6,6.4-7
		C733.7,655.6,736.7,657.8,737.9,662.5z"/>
	<path class="st10" d="M287.6,428.3c-26.9,0-53.7-0.3-80.6,0.2c-8.3,0.1-11.6-1.4-11.4-10.7c0.6-34,0.6-68.1,0-102.1
		c-0.1-8.9,2.4-11.1,11.1-11c54.2,0.4,108.3,0.4,162.5,0c8.3,0,11.8,1.4,11.7,10.8c-0.6,34-0.6,68.1,0,102.1
		c0.2,9.2-3,11.1-11.5,10.9C342.2,428,314.9,428.3,287.6,428.3z"/>
	<path class="st8" d="M497.1,359c27.3,0,54.6-0.1,81.9,0.1c5,0,11.4-1.7,11.7,7c0.3,9.5-6.6,7.9-12.1,7.9c-55,0.1-110.1,0.1-165.1,0
		c-5.5,0-12.8,1.5-12.6-7.7c0.3-9.1,7.6-7.2,13-7.2C441.6,358.9,469.4,359,497.1,359z"/>
	<path class="st5" d="M496.7,304.8c27.3,0,54.5-0.1,81.8,0.1c4.7,0,11.6-2.7,12,6.2c0.4,8.9-6.3,7.1-11.2,7.1
		c-55.9,0.1-111.7,0.1-167.6,0c-4.6,0-10.6,1.4-10.8-6.3c-0.2-8.7,6.3-7,11.4-7C440.4,304.7,468.6,304.8,496.7,304.8z"/>
	<path class="st7" d="M496.7,345.4c-28.2,0-56.4,0.1-84.6-0.1c-4.5,0-10.8,1.8-11.1-6c-0.2-8.2,6.1-7.4,11.4-7.4
		c56,0,111.9,0,167.9,0c4.8,0,10.4-0.8,10.3,6.9c-0.1,7.8-5.9,6.5-10.6,6.5C552.2,345.4,524.5,345.4,496.7,345.4z"/>
	<path class="st3" d="M525.2,584.9c14,1.1,31-5.2,38.7,2.5c8.3,8.2,1.2,25.4,2.8,38.5c1.4,11.3-2.7,14.5-13.8,13.9
		c-18.2-1-36.6-0.9-54.8,0c-10.5,0.5-13.7-3.2-12.1-12.8c0.1-0.4,0-0.9,0-1.3c0.2-12.9-4.4-30,2-37.6
		C495.6,579.2,513.3,586.7,525.2,584.9z"/>
	<path class="st10" d="M527.6,453.3c12.7,0.4,29.7-6.4,37,1.9c6.3,7.2,1,23.8,2.2,36.1c1.1,12-2.4,16.1-14.9,15.3
		c-19.1-1.2-38.3-0.5-57.5-0.2c-6.3,0.1-9.2-1.7-8.3-8.2c0.2-1.3-0.1-2.7,0-4c0.9-13.6-5.9-31.9,2.8-39.5
		C496.4,448,514.3,453.3,527.6,453.3z"/>
	<path class="st10" d="M526.4,572.1c-12.9,0-30.1,5.1-37.5-1.3c-8.6-7.4-1.6-25.1-3-38.3c-1-10,1.5-14.1,12.7-13.5
		c19.6,1,39.3,0.6,59,0.1c7-0.2,9.3,2,9,9c-0.5,12-0.6,24.1,0,36.2c0.4,7.5-2.7,9.1-9.4,8.8c-10.3-0.4-20.5-0.1-30.8-0.1
		C526.5,572.6,526.4,572.3,526.4,572.1z"/>
	<path class="st11" d="M616.5,487.6c11.1,0,22.3-0.1,33.4,0.1c2.9,0,7.1-0.5,6.9,4.1c-0.1,3.3-3.7,3.4-6.3,3.4
		c-22.7,0.1-45.4,0.1-68.2,0c-2.7,0-6.2-0.1-6.3-3.4c-0.1-4.3,4-4,7-4.1C594.2,487.5,605.4,487.6,616.5,487.6z"/>
	<path class="st11" d="M616.6,592c-11.1,0-22.3,0.1-33.4,0c-3,0-7.1,0.3-7.1-4c-0.1-3.3,3.5-3.5,6.2-3.6c22.7,0,45.4,0,68.2,0
		c2.6,0,6.1,0,6.4,3.3c0.4,4.6-3.9,4.1-6.7,4.2C638.9,592.1,627.8,592,616.6,592z"/>
	<path class="st11" d="M616.4,616.1c-11.1,0-22.2,0.1-33.4-0.1c-2.9,0-7.1,0.4-6.8-4.1c0.2-3.3,3.7-3.3,6.3-3.3
		c22.7,0,45.4,0,68.1,0c2.6,0,6.2,0.1,6.2,3.4c0,4.4-4.1,3.9-7,3.9C638.6,616.2,627.5,616.1,616.4,616.1z"/>
	<path class="st11" d="M618.6,632.7c11.1,0,22.2,0,33.4,0.1c2.3,0,4.8,0.7,4.9,3.4c0.2,2.7-2.3,3.7-4.5,3.7
		c-23.1,0.1-46.3,0.1-69.4,0c-2.3,0-5-0.9-5-3.4c0-3.4,3.3-3.8,5.9-3.8C595.5,632.7,607,632.7,618.6,632.7z"/>
	<path class="st5" d="M656.9,467.2c-25.7,3.2-51.4,4.6-77.1,0.2C605.4,462.2,631.2,464.3,656.9,467.2z"/>
	<path class="st5" d="M656.2,504.8c-26.4,0-52.8,0-79.2,0c0-0.9,0-1.8,0-2.8c26.4,0,52.8,0,79.2,0
		C656.2,503,656.2,503.9,656.2,504.8z"/>
	<path class="st5" d="M577.1,453.4c26.4,0,52.8,0,79.1,0c0,0.9,0,1.7,0.1,2.6c-26.4,0-52.8,0-79.1,0
		C577.1,455.1,577.1,454.2,577.1,453.4z"/>
	<path class="st5" d="M577.1,478c26.4,0,52.7,0,79.1,0c0,0.8,0,1.5,0.1,2.3c-26.4,0-52.8,0-79.1,0
		C577.1,479.5,577.1,478.8,577.1,478z"/>
	<path class="st8" d="M577.1,532c26.4,0,52.7,0,79.1,0c0,1.1,0,2.3,0,3.4c-26.4,1.7-52.7,1-79.1,0.4
		C577.1,534.5,577.1,533.2,577.1,532z"/>
	<path class="st5" d="M656.2,601.7c-26.4,0-52.8,0-79.1,0c0-0.9,0-1.8,0-2.7c26.4,0,52.8,0,79.1,0
		C656.2,599.8,656.2,600.7,656.2,601.7z"/>
	<path class="st8" d="M577,520.7c26.4,0,52.8,0,79.2,0c0,0.8,0.1,1.7,0.1,2.5c-26.4,0-52.7,0-79.1,0
		C577.2,522.4,577.1,521.5,577,520.7z"/>
	<path class="st8" d="M656,571.9c-26.3,0-52.6,0-78.9,0c0-0.8-0.1-1.7-0.1-2.5c26.3,0,52.7,0,79,0
		C656.1,570.2,656.1,571.1,656,571.9z"/>
	<path class="st5" d="M577.1,622.6c26.4,0,52.8,0,79.2,0c0,0.9,0,1.8,0.1,2.7c-26.4,0-52.8,0-79.2,0
		C577.1,624.4,577.1,623.5,577.1,622.6z"/>
	<path class="st8" d="M577.1,544.3c26.4,0,52.7,0,79.1,0c0,1,0,1.9,0.1,2.9c-26.4,0-52.8,0-79.2,0
		C577.1,546.2,577.1,545.3,577.1,544.3z"/>
	<path class="st7" d="M577.1,555.6c26.3,0,52.7,0,79,0c0,0.9,0.1,1.7,0.1,2.6c-26.4,0-52.7,0-79.1,0
		C577.1,557.3,577.1,556.5,577.1,555.6z"/>
	<path class="st10" d="M727.7,594.9c-9-1.1-23.4,4.8-30.2-2.2c-6.7-6.9-1.8-21.3-1.9-32.3c-0.3-30.1-0.1-30.2,30.5-30.1
		c12.5,0,29.1-4.2,36.3,2.1c8.4,7.3,2.4,24.4,2.6,37.1c0.5,25.4,0.1,25.4-25.9,25.4C736,594.9,732.8,594.9,727.7,594.9z"/>
	<path class="st8" d="M729.1,615.8c-8.9,0-17.8,0.1-26.7,0c-2.7,0-5.9-0.4-6-3.8c-0.1-3.5,3.1-4,5.7-4c18.7-0.1,37.4-0.1,56.1,0
		c2.6,0,5.9,0.3,6,3.8s-3,4-5.7,4C748.7,615.9,738.9,615.8,729.1,615.8z"/>
	<path class="st8" d="M731,624.3c9.4,0,18.7-0.1,28.1,0c2.2,0,4.7,0.4,5.1,3.2c0.4,3.6-2.3,4.5-5.1,4.5c-19.2,0.1-38.3,0.1-57.5,0
		c-2.8,0-5.5-0.9-5-4.5c0.3-2.9,2.9-3.2,5.1-3.2C711.4,624.2,721.2,624.3,731,624.3z"/>
</g>
</svg>
