<?xml version="1.0" encoding="utf-8"?>
<!-- Generator: Adobe Illustrator 20.1.0, SVG Export Plug-In . SVG Version: 6.00 Build 0)  -->
<svg version="1.1" id="Layer_1" xmlns="http://www.w3.org/2000/svg" xmlns:xlink="http://www.w3.org/1999/xlink" x="0px" y="0px"
	 viewBox="0 0 907.9 840" style="enable-background:new 0 0 907.9 840;" xml:space="preserve">
<style type="text/css">
	.st0{fill:#D6214A;}
	.st1{fill:#FEFAFB;}
	.st2{fill:#D7234C;}
	.st3{fill:#D8264D;}
	.st4{fill:#FDF4F4;}
</style>
<g>
	<path class="st0" d="M47.1,457.8c0-23.8,0-47.6,0-71.4c2-0.9,1.9-2.7,2-4.4c1.6-17.8,4.7-35.3,8.4-52.7
		c33.8-158.7,168.4-289.5,328-319.2c15.3-2.8,31-3.1,45.8-8c23.1,0,46.2,0,69.3,0c1.1,0.6,2.2,1.8,3.4,1.8
		c18.9,1.3,37.4,4.7,55.8,8.6c158.7,33.8,289.5,168.3,319,328c2.9,15.9,5.5,31.9,8.2,47.9c0,23.1,0,46.2,0,69.3
		c-2,0.9-1.9,2.7-2,4.4c-1.6,17.7-4.7,35.3-8.4,52.7c-33.8,158.8-168.3,289.6-328.1,319c-15.9,2.9-31.9,5.5-47.9,8.2
		c-23.1,0-46.2,0-69.3,0c-0.9-2-2.7-1.9-4.4-2c-17.8-1.6-35.3-4.7-52.7-8.4C215.7,798,84.9,663.3,55.1,503.6
		C52.3,488.4,52,472.7,47.1,457.8z M467.6,254.1c-59.1,0-118.2,0-177.3,0c-13,0-16.2,3-16.2,15.9c0,101.4,0,202.9,0,304.3
		c0,12.8,3.2,15.8,16.2,15.8c117.9,0,235.7,0,353.6,0c13,0,16.2-3,16.2-15.9c0-101.4,0-202.9,0-304.3c0-12.8-3.2-15.8-16.2-15.8
		C585.1,254.1,526.3,254.1,467.6,254.1z"/>
	<path class="st1" d="M467.6,254.1c58.8,0,117.5,0,176.3,0c13.1,0,16.2,3,16.2,15.8c0,101.4,0,202.9,0,304.3
		c0,12.9-3.2,15.9-16.2,15.9c-117.9,0-235.7,0-353.6,0c-13.1,0-16.2-3-16.2-15.8c0-101.4,0-202.9,0-304.3c0-12.9,3.2-15.9,16.2-15.9
		C349.4,254.1,408.5,254.1,467.6,254.1z M467.4,331.7c-53.9,0-107.8,0.2-161.7-0.2c-7.8-0.1-10,1.8-10,9.8
		c0.3,72.4,0.3,144.9,0,217.3c0,8.3,2.3,10.4,10.5,10.4c107.1-0.3,214.2-0.3,321.2,0c8.7,0,11.1-2.1,11.1-11
		c-0.4-72.1-0.3-144.2,0-216.3c0-8.4-2.4-10.3-10.5-10.3C574.4,331.8,520.9,331.7,467.4,331.7z M466.7,308.8c50,0,100.1,0,150.1,0
		c21.6,0,21.1,0,21.7-22.1c0.2-9.1-2-11.7-11.5-11.7c-102.9,0.4-205.8,0.2-308.7,0.2c-22.7,0-22.4,0-22.7,23.2
		c-0.1,8.2,2.1,10.5,10.4,10.4C359.6,308.6,413.2,308.8,466.7,308.8z"/>
	<path class="st2" d="M467.4,331.7c53.5,0,107.1,0.2,160.6-0.2c8.1-0.1,10.6,1.9,10.5,10.3c-0.3,72.1-0.4,144.2,0,216.3
		c0,8.8-2.4,11-11.1,11c-107.1-0.3-214.2-0.3-321.2,0c-8.2,0-10.6-2.1-10.5-10.4c0.3-72.4,0.3-144.9,0-217.3c0-8,2.2-9.8,10-9.8
		C359.6,331.8,413.5,331.7,467.4,331.7z M444.2,495.4c0,5.6,2.8,9.5,8.3,10.3c5.7,0.8,9.2-2.4,10.6-7.9c7.7-30.1,15.4-60.1,23-90.2
		c1.5-6,0.8-11.6-6.4-13.1c-7.6-1.7-10.7,3.2-12.3,9.6c-4.7,18.6-9.5,37.2-14.2,55.7C450.1,471.6,447.2,483.4,444.2,495.4z
		 M521.3,484.4c1.5-0.7,4.2-1.2,5.8-2.7c10-9.7,20-19.5,29.6-29.5c4.3-4.5,3.4-9.5-1-13.9c-9.1-9.1-18.2-18.3-27.3-27.4
		c-4.3-4.3-9.3-5.3-13.9-1c-5.1,4.7-4,10,0.6,14.6c5.9,6,11.7,12,17.8,17.7c3,2.8,2.9,4.6-0.1,7.4c-6.4,5.9-12.4,12.2-18.5,18.5
		c-2.9,3-3.9,6.5-2,10.5C514,482,516.9,483.7,521.3,484.4z M412.6,407.3c-1.8-0.4-4,0.8-5.8,2.5c-9.7,9.6-19.5,19.1-29,28.9
		c-4.8,5-3.7,10.2,0.8,14.8c8.9,9,17.8,17.9,26.7,26.7c4.6,4.5,9.9,5.8,14.7,0.8c5-5.2,2.9-10.2-1.6-14.7
		c-5.2-5.2-10.1-10.8-15.7-15.5c-4.8-4.1-4-6.7,0.2-10.6c6-5.4,11.5-11.2,17-17.1c2.8-3,3.8-6.6,1.7-10.6
		C420,409.3,417.4,407.3,412.6,407.3z"/>
	<path class="st3" d="M466.7,308.8c-53.5,0-107.1-0.2-160.6,0.2c-8.3,0.1-10.6-2.3-10.4-10.4c0.4-23.2,0-23.2,22.7-23.2
		c102.9,0,205.8,0.1,308.7-0.2c9.4,0,11.7,2.5,11.5,11.7c-0.6,22-0.1,22.1-21.7,22.1C566.8,308.8,516.8,308.8,466.7,308.8z
		 M339.1,300.1c4.5-0.6,7.1-3.2,7.1-7.6c0-4.3-2.4-7.2-7.1-7.2c-5.2,0-7.9,3.1-7.6,7.8C331.6,297.4,334.6,299.8,339.1,300.1z
		 M317,285.2c-4.6,0-7.4,2-7.7,6.7c-0.3,4.5,2,7.6,6.3,8c4.9,0.5,8.1-2.5,8.3-7.2C324.1,288.4,321.4,285.7,317,285.2z M361.4,285.2
		c-4.3,0.2-7.4,2.1-7.6,6.8c-0.2,5,2.7,8,7.5,8c4.3,0,7-2.9,7.1-7.4C368.5,288,365.9,285.6,361.4,285.2z"/>
	<path class="st4" d="M444.2,495.4c3-11.9,5.9-23.8,8.9-35.6c4.7-18.6,9.5-37.2,14.2-55.7c1.6-6.4,4.7-11.3,12.3-9.6
		c7.3,1.6,8,7.2,6.4,13.1c-7.6,30.1-15.3,60.1-23,90.2c-1.4,5.5-4.9,8.7-10.6,7.9C446.9,504.8,444.2,500.9,444.2,495.4z"/>
	<path class="st4" d="M521.3,484.4c-4.5-0.6-7.4-2.3-9.1-5.8c-1.9-4-0.9-7.6,2-10.5c6.1-6.3,12.1-12.5,18.5-18.5
		c3-2.8,3.1-4.6,0.1-7.4c-6.1-5.7-11.9-11.7-17.8-17.7c-4.6-4.7-5.7-9.9-0.6-14.6c4.6-4.3,9.6-3.3,13.9,1
		c9.1,9.1,18.2,18.2,27.3,27.4c4.3,4.3,5.3,9.3,1,13.9c-9.6,10.1-19.6,19.9-29.6,29.5C525.6,483.2,522.9,483.7,521.3,484.4z"/>
	<path class="st4" d="M412.6,407.3c4.8,0,7.4,1.9,9.2,5.3c2.1,4,1,7.7-1.7,10.6c-5.5,5.9-11,11.7-17,17.1c-4.3,3.8-5.1,6.5-0.2,10.6
		c5.6,4.7,10.5,10.3,15.7,15.5c4.5,4.5,6.6,9.5,1.6,14.7c-4.9,5.1-10.1,3.7-14.7-0.8c-9-8.8-17.9-17.8-26.7-26.7
		c-4.6-4.6-5.7-9.8-0.8-14.8c9.5-9.8,19.2-19.3,29-28.9C408.6,408.1,410.8,406.9,412.6,407.3z"/>
	<path class="st4" d="M339.1,300.1c-4.4-0.3-7.4-2.8-7.7-7c-0.3-4.8,2.4-7.9,7.6-7.8c4.7,0,7.1,2.9,7.1,7.2
		C346.1,296.9,343.5,299.5,339.1,300.1z"/>
	<path class="st4" d="M317,285.2c4.4,0.5,7.2,3.1,6.9,7.5c-0.3,4.8-3.4,7.8-8.3,7.2c-4.4-0.5-6.6-3.5-6.3-8
		C309.6,287.2,312.4,285.2,317,285.2z"/>
	<path class="st4" d="M361.4,285.2c4.6,0.4,7.1,2.8,7.1,7.3c-0.1,4.5-2.8,7.3-7.1,7.4c-4.8,0.1-7.8-2.9-7.5-8
		C354,287.4,357,285.4,361.4,285.2z"/>
</g>
</svg>
