<?xml version="1.0" encoding="utf-8"?>
<!-- Generator: Adobe Illustrator 20.1.0, SVG Export Plug-In . SVG Version: 6.00 Build 0)  -->
<svg version="1.1" id="Layer_1" xmlns="http://www.w3.org/2000/svg" xmlns:xlink="http://www.w3.org/1999/xlink" x="0px" y="0px"
	 viewBox="0 0 907.9 840" style="enable-background:new 0 0 907.9 840;" xml:space="preserve">
<style type="text/css">
	.st0{fill:#13253C;}
	.st1{fill:#364D5B;}
	.st2{fill:#5D9EBD;}
	.st3{fill:#D8D4EB;}
	.st4{fill:#C8C9CB;}
	.st5{fill:#FEFEFE;}
	.st6{fill:#FFFFFF;}
	.st7{fill:#2C373E;}
	.st8{fill:#6FBEDE;}
	.st9{fill:#FCFCFC;}
	.st10{fill:#F07761;}
	.st11{fill:#71C5E8;}
	.st12{fill:#1BBA9A;}
	.st13{fill:#EF9A13;}
	.st14{fill:#F3F3F3;}
	.st15{fill:#E8402C;}
</style>
<g>
	<path class="st0" d="M676.9,308.7c-0.6-6.7-0.7-13.4,0.1-20c-0.7-2.3-0.7-4.6-0.1-6.9c-0.1-15.6-0.2-31.3-0.3-46.9
		c-0.1-1.8-0.3-3.6-0.4-5.4c-1.4-4.1-3.9-7.4-7.1-10.3c-2-0.9-4-1.7-6-2.6c-5.5-0.1-11.1-0.3-16.6-0.4c-2.2,0-4.5,0-6.7-0.1
		c-6.7,0.6-13.4,0.5-20.2,0.1c-2.2,0-4.5,0-6.7-0.1c-6.7,0.6-13.4,0.5-20.2,0.1c-2.2,0-4.5,0-6.7-0.1c-6.7,0.6-13.4,0.5-20.2,0.1
		c-2.2,0-4.5,0-6.7-0.1c-6.7,0.6-13.4,0.5-20.2,0.1c-2.2,0-4.5,0-6.7-0.1c-6.7,0.6-13.4,0.5-20.2,0.1c-2.2,0-4.5,0-6.7-0.1
		c-6.7,0.6-13.4,0.5-20.2,0.1c-2.2,0-4.5,0-6.7-0.1c-6.7,0.6-13.4,0.5-20.2,0.1c-2.2,0-4.5,0-6.7-0.1c-6.7,0.6-13.4,0.5-20.2,0.1
		c-2.2,0-4.5,0-6.7-0.1c-6.7,0.6-13.4,0.5-20.2,0.1c-2.2,0-4.5,0-6.7-0.1c-6.7,0.6-13.4,0.5-20.2,0.1c-2.2,0-4.5,0-6.7-0.1
		c-6.7,0.6-13.4,0.5-20.2,0.1c-2.2,0-4.5,0-6.7-0.1c-6.7,0.6-13.4,0.5-20.2,0.1c-2.2,0-4.5,0-6.7-0.1c-6.7,0.6-13.4,0.5-20.2,0.1
		c-2.2,0-4.5,0-6.7-0.1c-6.7,0.6-13.4,0.5-20.2,0.1c-2.2,0-4.5,0-6.7-0.1c-7.1,1-14.5-0.6-21.5,1.7c-3.5,2.4-6.7,5-8.5,8.9
		c-2.2,7.1-0.4,14.4-1.8,21.6c0.8,2.3,0.7,4.6,0.1,6.9c0.7,6.7,0.8,13.3-0.1,20c0.8,2.3,0.7,4.6,0.1,6.9c0.8,6.2,0.5,12.4,0.1,18.5
		c0,1,0,1.9,0.1,2.9c-0.1,1.8-0.1,3.6-0.2,5.4c0.7,6.7,0.8,13.3-0.1,20c0.8,2.3,0.7,4.6,0.1,6.9c0.7,6.7,0.8,13.3-0.1,20
		c0.8,2.3,0.7,4.6,0.1,6.9c0.8,6.2,0.5,12.4,0.1,18.6c0,1,0,2,0.1,3c-0.1,1.8-0.1,3.5-0.2,5.3c0.7,6.7,0.8,13.3-0.1,20
		c0.8,2.3,0.7,4.6,0.1,6.9c0.7,6.7,0.8,13.3-0.1,20c0.8,2.3,0.7,4.6,0.1,6.9c0.7,6.7,0.8,13.3-0.1,20c0.8,2.3,0.7,4.6,0.1,6.9
		c0.8,6.6,0.5,13.3,0.1,19.9c0.7,1.9,0.7,3.8,0,5.8c0,7,0,14.1,0,21.1c0.7,1.9,0.7,3.8,0,5.8c0.2,7.1,0.5,14.2,0.7,21.3H676
		c0.3-4.5,0.7-8.9,1-13.4c-0.7-2.3-0.7-4.6-0.1-6.9c-0.6-6.7-0.7-13.4,0.1-20c-0.7-2.3-0.7-4.6-0.1-6.9c-0.6-6.7-0.7-13.3,0.1-20
		c-0.7-2.3-0.7-4.5-0.1-6.8c-0.6-6.7-0.8-13.4,0.1-20.1c-0.7-2.3-0.7-4.6-0.1-6.8c-0.6-6.7-0.7-13.4,0.1-20
		c-0.7-2.3-0.7-4.6-0.1-6.8c-0.6-6.7-0.7-13.4,0.1-20c-0.7-2.3-0.7-4.6-0.1-6.8c-0.6-6.7-0.7-13.4,0.1-20c-0.7-2.3-0.7-4.6-0.1-6.8
		c-0.6-6.7-0.7-13.4,0.1-20c-0.7-2.3-0.7-4.6-0.1-6.8c-0.6-6.7-0.7-13.4,0.1-20C676.2,313.3,676.2,311,676.9,308.7z M665.3,271.1
		c0.7,2.2,0.7,4.5,0.1,6.7c0.6,6.7,0.6,13.5-0.1,20.2c0.7,2.2,0.7,4.5,0.1,6.7c0.6,6.7,0.6,13.5-0.1,20.2c0.7,2.2,0.7,4.5,0.1,6.7
		c0.6,6.7,0.6,13.5-0.1,20.2c0.7,2.2,0.7,4.5,0.1,6.7c0.6,6.7,0.6,13.5-0.1,20.2c0.7,2.2,0.7,4.5,0.1,6.7c0.6,6.7,0.6,13.5-0.1,20.2
		c0.7,2.2,0.7,4.5,0.1,6.7c0.6,6.7,0.6,13.5-0.1,20.2c0.7,2.2,0.7,4.4,0.1,6.7c0.6,6.7,0.6,13.5-0.1,20.2c0.7,2.2,0.7,4.4,0.1,6.7
		c0.6,6.7,0.6,13.5-0.1,20.2c0.7,2.2,0.7,4.4,0.1,6.7c0.6,6.7,0.6,13.5-0.1,20.2c0.7,2.2,0.7,4.4,0.1,6.7
		c0.3,21.7,4.4,16.9-17.6,17.1c-1.8,0-3.6,0-5.4-0.1c-7.1,0-14.3,0-21.4,0.1c-1.8,0-3.6,0-5.4-0.1c-7.1,0-14.3,0-21.4,0.1
		c-1.8,0-3.6,0-5.4-0.1c-7.1,0-14.3,0-21.4,0.1c-1.8,0-3.6,0-5.4-0.1c-7.1,0-14.3,0-21.4,0.1c-1.8,0-3.6,0-5.4-0.1
		c-7.1,0-14.3,0-21.4,0.1c-1.8,0-3.6,0-5.4-0.1c-7.1,0-14.3,0-21.4,0.1c-1.8,0-3.6,0-5.4-0.1c-7.1,0-14.3,0-21.4,0.1
		c-1.8,0-3.6,0-5.4-0.1c-7.1,0-14.3,0-21.4,0.1c-1.3,0-2.6,0.1-4,0.1c-0.5,0-1,0-1.5,0c-7.1,0-14.2,0-21.4-0.1c-1.8,0-3.6,0-5.4,0
		c-7.1,0-14.3,0-21.4,0.1c-1.8,0-3.6,0-5.4-0.1c-7.1,0-14.3,0-21.4,0.1c-1.8,0-3.6,0-5.4-0.1c-7.1,0-14.3,0-21.4,0.1
		c-1.8,0-3.6,0-5.4-0.1c-6.2,0.1-12.5,0.1-18.7,0.1c-2.3,0-4.6-0.1-6.9-0.1c-7.6,0-15.1,0-22.7,0c-1.8,0-3.6,0-5.4-0.1
		c-7.1,0-14.3,0-21.4,0.1c-6.2,1.4-5.4-2.6-4.9-6.3c0-6.7,0-13.4,0.1-20.1c-0.6-9-0.6-17.9,0-26.9c0-2.3,0-4.5,0-6.8
		c0-6.7,0-13.4,0.1-20.1c0-2.3,0-4.5-0.1-6.8c0-6.7,0-13.4,0.1-20.1c0-2.3,0-4.5-0.1-6.8c0-6.7,0-13.4,0.1-20.1c0-2.3,0-4.5-0.1-6.8
		c0-6.7,0-13.4,0.1-20.1c0-2.3,0-4.5-0.1-6.8c0-6.7,0-13.4,0.1-20.1c0-2.3,0-4.5-0.1-6.8c0-6.7,0-13.4,0.1-20.1c0-2.3,0-4.5-0.1-6.8
		c0-6.7,0-13.4,0.1-20.1c0-2.2,0-4.5-0.1-6.7c0-8.5-0.1-17-0.1-25.5c-0.1-7.2-0.1-14.4-0.1-21.6c-0.2-0.9,0-1.5,1-1.4
		c23.7-1.2,47.4-0.4,71.1-0.5c114.1-0.1,228.3-0.1,342.4-0.1c11.8,0,11.9,0,11.8,12.1c0,3.8,0.6,7.6-0.5,11.3
		C665.9,265.8,666,268.4,665.3,271.1z"/>
	<path class="st1" d="M232.5,543.9c147.8,0,295.7,0,443.5,0c0.2,2.7,0.3,5.4,0.5,8c-0.7,2.7-1.3,5.4-2,8c-2.2,2.2-4.4,4.3-6.7,6.5
		c-3,0.6-6,1.3-8.9,1.9c-6.3,0-12.7,0-19,0.1c-2.7,0-5.5-0.1-8.2-0.1c-6.3,0-12.5,0-18.8,0.1c-2.7,0-5.4,0-8.1-0.1
		c-6.3,0-12.5,0-18.8,0.1c-2.7,0-5.4,0-8.1-0.1c-6.3,0-12.5,0-18.8,0.1c-2.7,0-5.4,0-8.1-0.1c-6.3,0-12.5,0-18.8,0.1
		c-4.9-0.1-9.8-0.2-14.7-0.3c-40.6,0-81.3,0-121.9,0c1.3,1.6,2.9,2.2,4.5,2.7c24.9,7.9,49.8,15.8,74.8,23.5
		c14.1,4.4,28.2,8.4,42.3,12.6c0.2,0.9,0.3,1.8,0.5,2.8c0,4-0.1,8-0.1,12c-42.2,0-84.3,0-126.5,0c0-14.3,0-28.6-0.1-42.9
		c0-2.7,0-5.4,0-8.1c0-0.5,0-0.9,0-1.4c0.1-0.8-0.3-1.2-1.1-1.1c-6.3,0-12.5,0-18.8,0.1c-2.7,0-5.4,0-8.1-0.1
		c-6.3,0-12.5,0-18.8,0.1c-2.7,0-5.4,0-8.1-0.1c-6.3,0-12.5,0-18.8,0.1c-2.7,0-5.4,0-8.1-0.1c-6.3,0-12.5,0-18.8,0.1
		c-2.7,0-5.4,0-8.1-0.1c-6.3,0-12.5,0-18.8,0.1c-2.7,0-5.4,0-8.1-0.1c-4.8-0.3-9.8,0.1-14.4-1.8c-1.3-0.9-2.6-1.8-3.9-2.7
		C232,558,231.7,551.1,232.5,543.9z"/>
	<path class="st0" d="M391,621.8c42.2,0,84.3,0,126.5,0c4,0,8-0.1,12-0.1c2.2,0,4.5,0,6.7,0c6.7,0,13.4,0,20.1,0
		c1.7,0.3,3.3,0.7,5,1c4.3,1.7,7.2,4.9,9.4,8.8c0.3,1.7,0.5,3.5,0.8,5.2c-0.6,0.4-1.1,0.8-1.7,1.2c-2.2,0-4.5,0-6.7-0.1
		c-6.7-0.5-13.5-0.6-20.2,0.1c-2.2,0-4.5,0-6.7-0.1c-6.7-0.5-13.5-0.6-20.2,0.1c-2.2,0-4.5,0-6.7-0.1c-6.7-0.5-13.5-0.6-20.2,0.1
		c-2.2,0-4.5,0-6.7-0.1c-6.7-0.5-13.5-0.6-20.2,0.1c-2.2,0-4.5,0-6.7-0.1c-6.7-0.5-13.5-0.6-20.2,0.1c-2.2,0-4.5,0-6.7-0.1
		c-6.7-0.5-13.5-0.6-20.2,0.1c-2.2,0-4.5,0-6.7-0.1c-6.7-0.5-13.5-0.6-20.2,0.1c-2.2,0-4.5,0-6.7-0.1c-6.7-0.5-13.5-0.6-20.2,0.1
		c-2.2,0-4.5,0-6.7-0.1c-3.3-1.9-11.9,3.7-9.4-6.6c2.4-3.7,5.2-6.9,9.4-8.7C362.3,621.1,376.7,622.5,391,621.8z"/>
	<path class="st2" d="M231.8,384.2c-0.7,0-1.4-0.1-2.1-0.1c0.1-1.4,0.4-2.6,2-2.9C231.7,382.1,231.7,383.2,231.8,384.2z"/>
	<path class="st2" d="M231.8,303.4c-0.7-0.4-1.3-0.9-2-1.3c0.3-1,0.9-1.5,1.9-1.6C231.7,301.4,231.8,302.4,231.8,303.4z"/>
	<path class="st3" d="M665.4,263.1c-5.4,0.1-10.8,0.1-16.3,0.1c-1.8,0-3.7-0.1-5.5-0.1c-7.1,0-14.3,0.1-21.4,0.1
		c-1.8,0-3.7-0.1-5.5-0.1c-7.1,0-14.3,0.1-21.4,0.1c-1.8,0-3.7-0.1-5.5-0.1c-7.1,0-14.3,0.1-21.4,0.1c-1.8,0-3.7-0.1-5.5-0.1
		c-7.1,0-14.3,0.1-21.4,0.1c-1.8,0-3.7-0.1-5.5-0.1c-7.1,0-14.3,0.1-21.4,0.1c-1.8,0-3.7-0.1-5.5-0.1c-9,0-17.9,0-26.9,0.1
		c-7.1,0-14.3,0.1-21.4,0.1c-10.8-0.1-21.5-0.1-32.3-0.1c-7.1,0-14.3,0.1-21.4,0.1c-19.7-0.1-39.5-0.1-59.2-0.1
		c-7.1,0-14.3,0.1-21.4,0.1c-8.8-0.1-17.6-0.1-26.4-0.2c-2,0-4,0-6.1-0.1c-7.1,0.1-14.2,0.1-21.3,0.2c-1.8-0.1-3.6-0.1-5.4-0.1
		c-9.2,0-18.5,0-27.7-0.1c-0.1-7.2-0.1-14.4-0.1-21.6c0.3-0.5,0.7-0.9,1-1.4c23.7-1.2,47.4-0.4,71.1-0.5
		c114.1-0.1,228.3-0.1,342.4-0.1c11.8,0,11.9,0,11.8,12.1C665.9,255.5,666.6,259.4,665.4,263.1z"/>
	<path class="st4" d="M301.1,536.9c-2.3,0-4.6-0.1-6.9-0.1c0-7.5-0.1-14.9-0.1-22.4c-0.1-2.3-0.2-4.6-0.2-6.9
		c0.1-6.2,0.1-12.5,0.2-18.7c0-1.4-0.1-2.7-0.1-4.1c0-1.4-0.1-2.7-0.1-4.1v0c0.1-6.7,0.2-13.3,0.2-20c-0.1-2.3-0.1-4.6-0.2-6.9
		c0.1-6.7,0.2-13.4,0.2-20c-0.1-2.3-0.2-4.6-0.3-6.9c0.1-5.8,0.1-11.5,0.2-17.3c-0.1-3.2-0.2-6.4-0.2-9.5c0.1-6.7,0.2-13.3,0.2-20
		c-0.1-1.7-0.1-3.4-0.2-5.1c0-0.6-0.1-1.1-0.1-1.7v0c0.1-6.7,0.2-13.3,0.2-20c-0.1-2.3-0.2-4.6-0.2-6.9c0.1-5.3,0.1-10.7,0.2-16
		c-0.1-3.6-0.1-7.3-0.2-10.9c0.1-6.2,0.2-12.4,0.2-18.6c0-1.4-0.1-2.7-0.1-4.1c0-1.4-0.1-2.7-0.1-4.1v0c0.1-6.2,0.2-12.4,0.2-18.7
		c0-1.4-0.1-2.7-0.1-4.1c0-1.4-0.1-2.7-0.1-4.1v0c0.1-0.9,0.2-1.7,0.3-2.6c2,0,4,0.1,6.1,0.1c-0.4,8.5-0.9,17,0.3,25.5
		c-0.8,5.3-0.9,10.7-0.6,16c0.1,1.8,0.2,3.6,0.3,5.4c-0.1,9-0.1,17.9-0.1,26.8c0.1,1.9,0.2,3.7,0.3,5.6c-0.4,3.5-0.6,6.9-0.6,10.4
		c0,0.8,0,1.6,0,2.5c0,1.9,0.1,3.8,0.2,5.7c0,0.9,0.1,1.8,0.1,2.7c0.1,1.9,0.2,3.7,0.3,5.6c-0.9,7.1-0.6,14.2-0.2,21.2
		c0.1,1.9,0.2,3.7,0.2,5.6c-0.4,3.5-0.6,6.9-0.6,10.4c0,0.8,0,1.6,0,2.5c0,1.9,0.1,3.8,0.2,5.7c0,0.9,0.1,1.8,0.1,2.7
		c0.1,1.9,0.2,3.7,0.3,5.6c-0.4,3.5-0.6,6.9-0.6,10.4c0,0.8,0,1.6,0,2.5c0,1.9,0.1,3.8,0.2,5.7c0,0.9,0.1,1.8,0.1,2.7
		c0.1,1.9,0.2,3.7,0.3,5.6c-0.9,7.1-0.6,14.2-0.2,21.2c0.1,1.9,0.2,3.7,0.2,5.6c-0.9,7.1-0.6,14.2-0.2,21.2c0.1,1.9,0.2,3.7,0.2,5.6
		c-0.9,7.1-0.6,14.2-0.2,21.2c-0.3,1.9-0.6,3.9,0.9,5.5C301.1,532.6,301.1,534.8,301.1,536.9z"/>
	<path class="st5" d="M294,460.7c-0.1,6.7-0.2,13.3-0.2,20h0C293.9,474,294,467.4,294,460.7z"/>
	<path class="st5" d="M294,353.2c-0.1,6.7-0.2,13.3-0.2,20h0C293.9,366.5,294,359.8,294,353.2z"/>
	<path class="st5" d="M294,330.3c-0.1,5.3-0.1,10.7-0.2,16h0C293.9,341,294,335.6,294,330.3z"/>
	<path class="st5" d="M271.2,284.3c-0.5,0.1-0.9,0.3-1.3,0.5C270.3,284.6,270.8,284.4,271.2,284.3z"/>
	<path class="st5" d="M294.1,263.1c-0.1,0.9-0.2,1.7-0.3,2.6h0C293.9,264.8,294,263.9,294.1,263.1z"/>
	<path class="st6" d="M294,514.4c-0.1-2.3-0.2-4.6-0.2-6.9c0.1-6.2,0.1-12.5,0.2-18.7c0-1.4-0.1-2.7-0.1-4.1c0-1.4-0.1-2.7-0.1-4.1
		v0c0.1-6.7,0.2-13.3,0.2-20c-0.1-2.3-0.1-4.6-0.2-6.9c0.1-6.7,0.2-13.4,0.2-20c-0.1-2.3-0.2-4.6-0.3-6.9c0.1-5.8,0.1-11.5,0.2-17.3
		c-0.1-3.2-0.2-6.4-0.2-9.5c0.1-6.7,0.2-13.3,0.2-20c-0.1-1.7-0.1-3.4-0.2-5.1c0-0.6-0.1-1.1-0.1-1.7v0c0.1-6.7,0.2-13.3,0.2-20
		c-0.1-2.3-0.2-4.6-0.2-6.9c0.1-5.3,0.1-10.7,0.2-16c-0.1-3.6-0.1-7.3-0.2-10.9c0.1-6.2,0.2-12.4,0.2-18.6c0-1.4-0.1-2.7-0.1-4.1
		c0-1.4-0.1-2.7-0.1-4.1v0c0.1-6.2,0.2-12.4,0.2-18.7c0-1.4-0.1-2.7-0.1-4.1c0-1.4-0.1-2.7-0.1-4.1v0c0.1-0.9,0.2-1.7,0.3-2.6
		c-7.1,0.1-14.2,0.1-21.3,0.2c-1.8-0.1-3.6-0.1-5.4-0.1c-9.2,0-18.5,0-27.7-0.1c0,8.5,0.1,17,0.1,25.5c0,2.2,0,4.5,0.1,6.7
		c0,6.7,0,13.4-0.1,20.1c0,2.3,0,4.5,0.1,6.8c0,6.7,0,13.4-0.1,20.1c0,2.3,0,4.5,0.1,6.8c0,6.7,0,13.4-0.1,20.1c0,2.3,0,4.5,0.1,6.8
		c0,6.7,0,13.4-0.1,20.1c0,2.3,0,4.5,0.1,6.8c0,6.7,0,13.4-0.1,20.1c0,2.3,0,4.5,0.1,6.8c0,6.7,0,13.4-0.1,20.1c0,2.3,0,4.5,0.1,6.8
		c0,6.7,0,13.4-0.1,20.1c0,2.3,0,4.5,0,6.8c-0.5,9-0.6,17.9,0,26.9c0,6.7,0,13.4-0.1,20.1c-0.5,3.8-1.3,7.8,4.9,6.3
		c7.1,0,14.3,0,21.4-0.1c1.8,0,3.6,0,5.4,0.1c7.6,0,15.1,0,22.7,0C294.1,529.4,294.1,521.9,294,514.4z M285.2,439.2
		c-0.1,2.8-1.6,4.1-4.3,4c-1.8,0-3.6-0.1-5.4-0.1c-7.9,1.5-8.8-3.3-8.5-9.3c0.2-2.7,0.3-5.4,0.5-8.1c0.4,0,0.8-0.1,1.2-0.1
		c2.3,0.3,4.5,0.6,6.8,0.9c3.6,1,8.2-1.4,10.8,3.1C285.4,432.7,284.4,435.8,285.2,439.2z M285.2,358.5c-0.8,11.6-0.8,11.6-12.4,12.3
		v0c-1.8-0.1-3.6-0.2-5.4-0.3c-0.5-16.2-0.5-16.2,17.5-16.1C285,355.8,285.1,357.2,285.2,358.5z M285.2,333c-1,0.6-2,1.1-2.9,1.7
		c-2.3-0.1-4.6-0.1-6.8-0.2c-6.4,1-9.2-1.8-8.4-8.2c0.1-2.7,0.2-5.4,0.3-8.2c0.4-0.1,0.9-0.1,1.3-0.2c1.8,0.1,3.6,0.1,5.5,0.1
		c4.4,0.2,9-0.3,13.3,1.5C286.4,324,283.8,328.2,285.2,333z M267.2,288.2c0.1-0.4,0.3-0.9,0.5-1.2c0.2-0.4,0.5-0.7,0.7-1
		c0.1-0.1,0.3-0.3,0.4-0.4c0.3-0.3,0.7-0.5,1.1-0.7c0.4-0.2,0.8-0.3,1.3-0.5c1.2-0.3,2.6-0.3,4.2-0.1c2.7,0.1,5.4,0.1,8.2,0.2
		c2.4,2.9,0.8,6.4,1.5,9.6c-0.1,1.3-0.2,2.7-0.3,4l0.1,0c0,0,0,0,0,0c-0.4,0.4-0.8,0.9-1.2,1.3c-0.5,0.5-1,1.1-1.5,1.6
		c-4.9-0.1-9.8-0.1-14.7-0.2c-0.2-2.7-0.4-5.4-0.6-8.1h0c0-0.2,0-0.3,0-0.5C266.7,290.6,266.9,289.3,267.2,288.2z M267,395.6
		c0.1-0.3,0.1-0.7,0.3-1c0.4-1.2,1.1-2.2,2-3c0.4-0.3,0.8-0.5,1.2-0.7c1.6-0.7,3.7-1,6.4-0.6c2.7,0.2,5.4,0.4,8.1,0.6
		c0.1,3.5,0.2,7.1,0.2,10.7c0,1.3-0.1,2.7-0.1,4c-0.9,1.5-2,2.6-4,2.5c-4.3-2.3-9-0.7-13.4-1.2c-0.2-2.2-0.5-4.4-0.7-6.7h0
		C266.6,398.3,266.7,396.9,267,395.6z M267.6,465.4c-0.6-4.4,3.9-3.1,6.5-3.2c3.6-0.2,7.1,0,10.7,0c0.1,1.3,0.2,2.6,0.3,3.9
		c0,0.2-0.1,0.4-0.1,0.6c-0.8,12.6-0.8,12.6-13.7,12.8C263.1,476.8,268.3,470.1,267.6,465.4z M280.8,517.3
		c-4.5-1.6-10.1,2.7-13.8-2.8h0c-0.1-2.3-0.1-4.6-0.2-6.8h0v-0.4c0-1.1,0.1-2,0.4-2.8c0.1-0.4,0.3-0.8,0.4-1.1
		c0.2-0.3,0.4-0.6,0.6-0.9c0.1-0.1,0.2-0.2,0.3-0.3c0.2-0.2,0.4-0.3,0.7-0.5c0.1-0.1,0.3-0.1,0.4-0.2c0.2-0.1,0.3-0.2,0.5-0.2
		c0.4-0.1,0.8-0.2,1.2-0.3c0.8-0.1,1.7-0.1,2.7,0c1.8,0,3.6,0.1,5.5,0.1c3.9-0.3,5.8,1.3,5.4,5.5c-0.2,2.2,0,4.5,0.1,6.7
		C285.1,515.9,283.7,517.3,280.8,517.3z"/>
	<path class="st2" d="M229.8,495.7c0.3-1.8,0.7-3.7,1-5.5c0.3-0.1,0.6-0.2,0.9-0.1c0.7,1.9,0.7,3.8,0,5.8
		C231.1,495.7,230.4,495.7,229.8,495.7z"/>
	<path class="st2" d="M229.8,522.5c0.3-1.8,0.7-3.7,1-5.5c0.3-0.1,0.6-0.2,0.9-0.1c0.7,1.9,0.7,3.8,0,5.8
		C231.1,522.6,230.4,522.6,229.8,522.5z"/>
	<path class="st4" d="M428.8,536.9c-0.5,0-1,0-1.5,0c0-1,0.4-1.8,1.4-2.2C428.7,535.4,428.8,536.1,428.8,536.9z"/>
	<path class="st4" d="M240.5,240.1c-0.3,0.5-0.7,0.9-1,1.4C239.3,240.7,239.5,240.1,240.5,240.1z"/>
	<path class="st7" d="M517.1,607.1c-14.1-4.2-28.3-8.3-42.3-12.6c-25-7.7-49.8-15.7-74.8-23.5c-1.6-0.5-3.2-1.1-4.5-2.7
		c40.6,0,81.3,0,121.9,0c0,4.9,0.1,9.8,0.1,14.8c0,6.7,0,13.4,0,20.1C517.4,604.4,517.3,605.7,517.1,607.1z"/>
	<path class="st8" d="M390.9,569.5c-0.4-0.4-0.7-0.7-1.1-1.1C390.6,568.3,391,568.6,390.9,569.5z"/>
	<path class="st9" d="M300.2,310c-0.1,9-0.1,17.9-0.1,26.8C300.1,327.9,300.2,319,300.2,310L300.2,310z"/>
	<path class="st5" d="M300.2,310L300.2,310c-0.1-1.8-0.3-3.6-0.3-5.4C300,306.4,300.1,308.2,300.2,310z"/>
	<path class="st0" d="M526.5,439.3c-1.3,10.4-1.3,10.4-11.8,11c-0.9,0-1.9,0-2.8,0c-0.9,0-1.8,0-2.7,0c-7.1,0-14.3,0-21.5,0.1
		c-1.8,0-3.6,0-5.4-0.1c-7.1,0-14.3,0-21.4,0c-0.9,0-1.9,0-2.8,0c-0.9,0-1.8,0-2.7,0c-7.1,0-14.3,0-21.5,0.1
		c-5.8,0.8-7.9-1.9-6.8-7.4c0.6-3.1-1.5-6.6,1.4-9.3c6.7,0,13.4,0,20.1,0c2.2,0,4.5,0,6.7,0c6.7,0,13.4,0,20.1,0c2.2,0,4.5,0,6.7,0
		c6.7,0,13.4,0,20.1,0c2.2,0,4.5,0,6.7,0c5.3,0.1,10.7,0.1,16,0.2c0.4,1.3,0.8,2.6,1.1,3.9C526.5,438.2,526.5,438.7,526.5,439.3z"/>
	<path class="st10" d="M561.7,410c-0.3,0.1-0.6,0.2-0.8,0.3c-0.1,0.1-0.3,0.1-0.4,0.1c-0.3,0.1-0.6,0.2-0.9,0.3
		c-0.2,0-0.3,0.1-0.5,0.1c-0.6,0.1-1.3,0.3-1.9,0.4l-1,0.2c-0.5,0.1-1,0.2-1.4,0.3c-1.3-2.2-3.2-1.6-5.1-1c-6.7,0-13.4,0-20.1,0.1
		c-2.2-0.8-4.5-0.9-6.7,0c-6.7,0-13.4,0-20.1,0c-2.2-0.8-4.5-0.9-6.7,0c-6.2,0.8-8.1-2.4-7.6-8.1c0.1-0.8-0.2-1.7-0.3-2.6
		c0.1-4.3,2.3-6.4,6.6-6.4c6.7,0.8,13.4,0.9,20.1-0.1c2.3,0.8,4.5,0.8,6.8,0.1c6.7,0.8,13.3,0.9,20-0.1c2.3,0.8,4.6,0.8,6.8,0.1
		c5.5,0.3,11,0.5,16.5,0.8c0.2,2.3,0.4,4.7,0.6,7C566.4,406.5,564.5,408.7,561.7,410z"/>
	<path class="st11" d="M573.2,450c-1.1,0-2.2,0.2-3.3,0.3c-2.3,0-4.5-0.1-6.8-0.1c-6.7,0-13.4,0.1-20.1,0.1
		c-2.2-0.2-4.4-0.5-6.6-0.7c-0.1-15.6-0.1-15.6,15.3-15.8c1.5,0,3.1-0.2,4.6-0.3c1.8,0,3.6,0.1,5.4,0.1c7.1,0,14.3-0.1,21.4-0.1
		c1.8,0.2,3.5,0.3,5.3,0.5C588.9,449.5,588.9,449.5,573.2,450z"/>
	<path class="st12" d="M617.1,369.2c-0.5,0.5-1,1-1.5,1.5c-6.7,0-13.4,0-20.1,0.1c-1.8,0-3.6,0-5.4,0c-6.7-0.1-13.4-0.2-20.1-0.3
		c-0.2-1.3-0.4-2.7-0.6-4c0.9-11.6,0.9-11.6,12.6-12.4c2.7,0,5.4,0.1,8.1,0.1c6.2,0,12.5,0,18.8-0.1c2.7,0.2,5.3,0.3,8,0.5
		C616.9,359.5,617,364.3,617.1,369.2z"/>
	<path class="st3" d="M514.8,450.2c-0.1,1.7-1.2,2.3-2.7,2.4c0-0.8,0-1.6,0-2.4C512.9,450.2,513.8,450.2,514.8,450.2z"/>
	<path class="st3" d="M528.4,437.8c-0.3,0.9-0.8,1.5-1.9,1.5c0-0.5,0-1.1,0-1.6C527.2,437.7,527.8,437.7,528.4,437.8z"/>
	<path class="st13" d="M477,402.8c0,1.8,0,3.6,0.1,5.4c-0.4,1.3-1.4,2.1-2.7,2.6c-1.8,0-3.6,0-5.3-0.1c-1.8-0.1-3.6-0.2-5.4-0.3
		c-5.4-0.2-10.7-0.1-16.1,0.4c-9-0.8-17.9-0.7-26.9-0.1c-1.8,0-3.6,0-5.3,0c-7.2-0.6-14.4-0.6-21.5,0.1c-1.8,0-3.6,0-5.3-0.1
		c-0.3-0.1-0.6-0.1-0.8-0.1l-0.4,0c-0.2,0-0.4,0-0.6,0c-0.3,0-0.7,0-1,0c-0.7,0-1.4,0-2.1,0c-0.2,0-0.5,0-0.7,0c-0.1,0-0.2,0-0.3,0
		c-0.3,0-0.6,0-0.9-0.1c-0.2,0-0.4-0.1-0.6-0.1c-0.3,0-0.6-0.1-0.8-0.2c-0.1,0-0.2-0.1-0.3-0.1c-0.1,0-0.2-0.1-0.3-0.1
		c-0.1,0-0.2-0.1-0.3-0.1c-0.1-0.1-0.3-0.2-0.4-0.3c-0.3-0.2-0.6-0.6-0.9-1c-0.1-0.1-0.2-0.3-0.3-0.5c-0.2-0.4-0.3-0.9-0.4-1.4
		c0-0.2,0-0.4-0.1-0.6c0-0.4,0-0.8,0-1.2c0-0.2,0-0.4,0-0.6c0-0.4,0.1-0.9,0.2-1.3c0-1.8,0-3.6,0-5.5c0.1-1.8,1-3.1,2.8-3.7
		c2.3,0.8,4.6,0.8,6.9,0.1c7.1,0.6,14.3,1.1,21.4-0.3c1.8,1.1,3.6,0.9,5.5,0.3c7.1,0.6,14.3,1.1,21.4-0.3c1.8,1.1,3.6,0.9,5.5,0.3
		c7.1,0.6,14.3,1.1,21.4-0.3c1.8,1.1,3.6,0.9,5.5,0.3C474.1,393.5,478.1,395.6,477,402.8z"/>
	<path class="st8" d="M416.7,447.6c-1.5,4.3-5.5,1.4-8.1,2.7c-2.3,0-4.5-0.1-6.8-0.1c-7.1,0-14.3,0.1-21.4,0.1
		c-1.8,0-3.7-0.1-5.5-0.1c-6.7,0.1-13.3,0.1-20,0.1c-2.3,0-4.6-0.1-6.9-0.1c-6.7,0.1-13.3,0.1-20,0.1c-2.3,0-4.6-0.1-6.9-0.1
		c-2.7-0.4-2.7-2.4-2.8-4.4c0-3.1-0.2-6.2-0.3-9.3c0.6-1,1.2-1.9,1.8-2.9c7.1,0,14.3-0.1,21.4-0.1c1.8,0,3.7,0.1,5.5,0.1
		c7.1,0,14.2-0.1,21.4-0.1c1.8,0,3.7,0.1,5.5,0.1c7.1,0,14.2-0.1,21.4-0.1c1.8,0,3.7,0.1,5.5,0.1c2.2,0.1,4.5,0.2,6.7,0.2
		C416.4,433.9,419.8,438.7,416.7,447.6z"/>
	<path class="st0" d="M441.6,501.1c-7.9,7.8-15.8,15.8-23.8,23.6c-0.5,0.5-1.6,0.2-2.5,0.3c-0.9-1.8-2.3-3.1-4-4.1
		c-3.7-3.1-4.2-5.9,0.1-9.2c3.2-2.4,5.6-5.8,8.7-8.4c3.7-3.1,3.9-5.5-0.5-7.9c-1.4-1.4-2.8-2.8-4.2-4.2c-8.1-9.4-8.1-9.4,1.3-18.3
		l8.8,8.1c1.4,1.4,2.9,2.9,4.3,4.3c3.1,3.1,6.1,6.1,9.2,9.1c0.9,0.9,1.8,1.7,2.7,2.6C442.7,498.4,443,499.7,441.6,501.1z"/>
	<path class="st0" d="M393.2,491.3c-5.5,8.9-11.3,17.7-16.4,26.8c-2.7,4.9-5.2,6.5-9.8,2.9h0c-1.4-0.9-2.8-1.8-4.2-2.6
		c-0.2-3.9,2.8-6.4,4.5-9.3c6.6-11.2,13.4-22.4,20.1-33.5c0.4-0.3,0.7-0.6,1.1-0.9C399.8,480.6,399.8,480.6,393.2,491.3z"/>
	<path class="st13" d="M544.9,370.6c-0.7,0-1.3,0.1-2,0.2h-33.6c-8.1-0.1-16.1-1.2-24.1,1c-0.5-1.5-1.7-1.2-2.8-1
		c-8.1-0.1-16.1-1.2-24.1,1c-0.5-1.5-1.7-1.2-2.8-1c-8.1-0.1-16.1-1.2-24.1,1c-0.5-1.5-1.7-1.2-2.8-1h-26.9
		c-5.3-0.5-12.8,1.8-10.9-8.3c0-1.8,0-3.6,0-5.5c0.1-1.8,1-2.8,2.9-2.9c2.3,0,4.5,0,6.8,0.1c6.7,0,13.4,0,20.1-0.1
		c2.7,0,5.4,0,8.1,0.1c6.3,0,12.5,0,18.8-0.1c2.7,0,5.4,0,8.1,0.1c6.3,0,12.5,0,18.8-0.1c2.7,0,5.4,0,8.1,0.1c6.3,0,12.5,0,18.8-0.1
		c2.7,0,5.4,0,8.1,0.1c6.3,0,12.5,0,18.8-0.1c2.7,0,5.4,0,8.1,0.1c6.3,0,12.5,0,18.8-0.1c1.8,0.1,3.6,0.3,5.3,0.4
		C560.6,370.2,560.6,370.2,544.9,370.6z"/>
	<path class="st5" d="M294,409.6c-0.1,5.8-0.1,11.5-0.2,17.3h0C293.9,421.2,294,415.4,294,409.6z"/>
	<path class="st5" d="M294,300.7c-0.1,6.2-0.1,12.4-0.2,18.6h0C293.9,313.2,294,307,294,300.7z"/>
	<path class="st5" d="M294,273.9c-0.1,6.2-0.1,12.4-0.2,18.7h0C293.9,286.3,294,280.1,294,273.9z"/>
	<path class="st14" d="M284.9,297.9C284.9,297.9,284.9,297.9,284.9,297.9L284.9,297.9L284.9,297.9z"/>
	<path class="st14" d="M293.9,296.6c0-1.4-0.1-2.7-0.1-4.1v0h0C293.9,293.9,293.9,295.3,293.9,296.6z"/>
	<path class="st14" d="M293.9,484.8c0-1.4-0.1-2.7-0.1-4.1v0h0C293.9,482.1,293.9,483.4,293.9,484.8z"/>
	<path class="st14" d="M293.9,269.8c0-1.4-0.1-2.7-0.1-4.1v0h0C293.9,267,293.9,268.4,293.9,269.8z"/>
	<path class="st14" d="M293.9,374.9c0-0.6-0.1-1.1-0.1-1.7v0h0C293.8,373.7,293.9,374.3,293.9,374.9z"/>
	<path class="st14" d="M294,330.3c-0.1-3.6-0.1-7.3-0.2-10.9h0C293.9,323,294,326.7,294,330.3z"/>
	<path class="st14" d="M294.1,433.8c-0.1-2.3-0.2-4.6-0.3-6.9h0C293.9,429.2,294,431.5,294.1,433.8z"/>
	<path class="st14" d="M294,353.2c-0.1-2.3-0.2-4.6-0.2-6.9h0C293.9,348.6,294,350.9,294,353.2z"/>
	<path class="st4" d="M285.2,466.1c0,0.2-0.1,0.4-0.1,0.6c-0.8,12.6-0.8,12.6-13.7,12.8c-8.4-2.6-3.2-9.4-3.8-14.1
		c-0.6-4.4,3.9-3.1,6.5-3.2c3.6-0.2,7.1,0,10.7,0C285,463.4,285.1,464.7,285.2,466.1z"/>
	<path class="st4" d="M285.2,439.2c-0.1,2.8-1.6,4.1-4.3,4c-1.8,0-3.6-0.1-5.4-0.1c-7.9,1.5-8.8-3.3-8.5-9.3
		c0.2-2.7,0.3-5.4,0.5-8.1c0.4,0,0.8-0.1,1.2-0.1c2.3,0.3,4.5,0.6,6.8,0.9c3.6,1,8.2-1.4,10.8,3.1
		C285.4,432.7,284.4,435.8,285.2,439.2z"/>
	<path class="st4" d="M285,513c0.1,2.9-1.3,4.3-4.2,4.3c-4.5-1.6-10.1,2.7-13.8-2.8c-0.1-2.3-0.1-4.6-0.2-6.8c0-0.1,0-0.3,0-0.4
		c0-1.1,0.1-2,0.4-2.8c0.1-0.4,0.3-0.8,0.4-1.1c0.2-0.3,0.4-0.6,0.6-0.9c0.1-0.1,0.2-0.2,0.3-0.3c0.2-0.2,0.4-0.3,0.7-0.5
		c0.1-0.1,0.3-0.1,0.4-0.2c0.2-0.1,0.3-0.2,0.5-0.2c0.4-0.1,0.8-0.2,1.2-0.3c0.8-0.1,1.7-0.1,2.7,0c1.8,0,3.6,0.1,5.5,0.1
		c3.9-0.3,5.8,1.3,5.4,5.5C284.7,508.5,285,510.8,285,513z"/>
	<path class="st4" d="M285.1,401.5c0,1.3-0.1,2.7-0.1,4c-0.9,1.5-2,2.6-4,2.5c-4.3-2.3-9-0.7-13.4-1.2c-0.2-2.2-0.5-4.4-0.7-6.7
		c-0.2-1.7-0.1-3.2,0.1-4.5c0.1-0.3,0.1-0.7,0.3-1c0.4-1.2,1.1-2.2,2-3c0.4-0.3,0.8-0.5,1.2-0.7c1.6-0.7,3.7-1,6.4-0.6
		c2.7,0.2,5.4,0.4,8.1,0.6C284.9,394.4,285,397.9,285.1,401.5z"/>
	<path class="st4" d="M285.2,358.5c-0.8,11.6-0.8,11.6-12.4,12.3c-1.8-0.1-3.6-0.2-5.4-0.3c-0.5-16.2-0.5-16.2,17.5-16.1
		C285,355.8,285.1,357.2,285.2,358.5z"/>
	<path class="st4" d="M285.2,333c-1,0.6-2,1.1-2.9,1.7c-2.3-0.1-4.6-0.1-6.8-0.2c-6.4,1-9.2-1.8-8.4-8.2c0.1-2.7,0.2-5.4,0.3-8.2
		c0.4-0.1,0.9-0.1,1.3-0.2c1.8,0.1,3.6,0.1,5.5,0.1c4.4,0.2,9-0.3,13.3,1.5C286.4,324,283.8,328.2,285.2,333z"/>
	<path class="st4" d="M284.8,297.9L284.8,297.9C284.9,297.9,284.9,297.9,284.8,297.9c-0.3,0.4-0.7,0.9-1.1,1.3
		c-0.5,0.5-1,1.1-1.5,1.6c-4.9-0.1-9.8-0.1-14.7-0.2c-0.2-2.7-0.4-5.4-0.6-8.1c0-0.2,0-0.3,0-0.5c-0.1-1.5,0.1-2.8,0.4-3.9
		c0.1-0.4,0.3-0.9,0.5-1.2c0.2-0.4,0.5-0.7,0.7-1c0.1-0.1,0.3-0.3,0.4-0.4c0.3-0.3,0.7-0.5,1.1-0.7c0.4-0.2,0.8-0.3,1.3-0.5
		c1.2-0.3,2.6-0.3,4.2-0.1c2.7,0.1,5.4,0.1,8.2,0.2c2.4,2.9,0.8,6.4,1.5,9.6C285,295.3,284.9,296.6,284.8,297.9z"/>
	<path class="st0" d="M348.7,522.2c-4.7,6.5-6.7-0.4-9.8-1.7c-0.8-0.8-1.6-1.6-2.4-2.3c-3.3-4.1-7-7.8-11.1-11.1
		c-0.8-0.8-1.5-1.5-2.3-2.3c-4.8-4-4.4-7.1,0.5-11.2c6-4.9,11.4-10.6,16.5-16.4c3.3-3.7,6-4.5,9.2-0.4c0.5,1.3,1.4,2.2,2.7,2.7
		c1.3,1.9,2.4,3.4-0.1,5.6c-3.7,3.2-6.7,7.1-10.5,10.2c-3.7,3.1-3.5,5.5,0.1,8.2c1.2,0.9,2.3,2,3.5,3c1.5,2.2,3.3,4.1,5.5,5.5
		C356.5,516.6,351.1,518.9,348.7,522.2z"/>
	<path class="st0" d="M381.7,362.5c0,2.2,0,4.5,0.1,6.7c-0.5,1.3-1.7,1.2-2.8,1.6c-1.8,0-3.6,0-5.4,0c-7.2,0-14.3,0-21.5,0
		c-1.8,0-3.6,0-5.4,0c-6.7,0-13.4,0-20.1,0c-2.2,0-4.5,0-6.7,0c-3.4-4.7-0.4-10.1-1.8-15c0.6-0.5,1.2-1.1,1.8-1.6
		c6.7,0,13.4,0,20.1,0c2.2,0,4.5,0,6.7,0c6.7,0,13.4,0,20.1,0c2.2,0,4.5,0,6.7,0C380.4,353,382.5,356.4,381.7,362.5z"/>
	<path class="st0" d="M354.1,328.1c-1.5,3.3-4.6,6.1-7.7,8.1c-3.1,2.1-3.8-2.9-6.3-3.3c-1-1.7-2.4-3.1-4.1-4.1
		c-2.7-3.5-5.8-6.6-9.4-9.3c-1-1.7-2.4-3.1-4.1-4.1c-3.4-3.1-3.4-5.5,0.4-8.9c6.8-6.1,13.1-12.7,19.5-19.3c2.2-2.3,3.5-2.3,5.8-0.1
		c7.1,6.7,7.2,6.6,0.4,13.3c-10.5,10.5-10.5,10.5-0.2,20.8c0.3,0.3,0.7,0.6,0.9,1C351,324.3,355,326.2,354.1,328.1z"/>
	<path class="st0" d="M404.6,319.3c-2.3-0.7-4.6-0.8-6.9-0.1c-6.7-0.6-13.4-0.7-20.1,0.1c-2.3-0.7-4.5-0.8-6.8-0.1
		c-0.4-0.1-0.8-0.3-1.3-0.3c-2.7-0.6-6.9,1.4-8-1.3c-1.3-3.5-0.7-7.8-0.7-11.7c0-2,1.7-2.3,3.4-2.3c2.2,0,4.4-0.2,6.6-0.3
		c6.7,0.5,13.4,0.6,20.2-0.1c5,0.1,10,0.2,15,0.4c2,0.1,4.6-0.8,5.2,2.4c0,2.2,0,4.5,0.1,6.7C412.1,318.1,409,319.3,404.6,319.3z"/>
	<path class="st0" d="M445,319.8c-4.3,4.2-8.9,8.2-12.7,12.8c-3.7,4.7-6.8,4.5-10.3,0.2c-0.9-1.7-2.3-3.1-4-4c1.2-4.4,5.2-6.5,8-9.4
		c8.7-9,8.8-8.9-1.2-17.6c-1-1.8-2.4-3.1-4.1-4.2c-5.9-6.3,1.9-7.7,4.2-10.9c3.2-4.6,4.3,0.5,6.1,1.9c1.5,1.2,3,2.5,4.4,3.7
		c3.5,3.3,7.1,6.7,10.6,10C453.5,311.4,453.5,311.4,445,319.8z"/>
	<path class="st3" d="M461,450.2c-0.1,1.7-1.2,2.3-2.7,2.4c0-0.8,0-1.6,0-2.4C459.2,450.2,460.1,450.2,461,450.2z"/>
	<path class="st5" d="M377.7,408c-0.2-0.4-0.3-0.9-0.4-1.4C377.4,407.1,377.6,407.6,377.7,408z"/>
	<path class="st6" d="M665.4,519.7c0.6-2.2,0.6-4.5-0.1-6.7c0.7-6.7,0.6-13.5,0.1-20.2c0.6-2.2,0.6-4.5-0.1-6.7
		c0.7-6.7,0.6-13.5,0.1-20.2c0.6-2.2,0.6-4.5-0.1-6.7c0.7-6.7,0.6-13.5,0.1-20.2c0.6-2.2,0.6-4.5-0.1-6.7c0.7-6.7,0.6-13.5,0.1-20.2
		c0.6-2.2,0.6-4.5-0.1-6.7c0.7-6.7,0.6-13.4,0.1-20.2c0.6-2.2,0.6-4.5-0.1-6.7c0.7-6.7,0.6-13.4,0.1-20.2c0.6-2.2,0.6-4.5-0.1-6.7
		c0.7-6.7,0.6-13.4,0.1-20.2c0.6-2.2,0.6-4.5-0.1-6.7c0.7-6.7,0.6-13.4,0.1-20.2c0.6-2.2,0.6-4.5-0.1-6.7c0.7-6.7,0.6-13.4,0.1-20.2
		c0.6-2.2,0.6-4.5-0.1-6.7c0.6-2.7,0.6-5.3,0.1-8c-5.4,0.1-10.8,0.1-16.3,0.1c-1.8,0-3.7-0.1-5.5-0.1c-7.1,0-14.3,0.1-21.4,0.1
		c-1.8,0-3.7-0.1-5.5-0.1c-7.1,0-14.3,0.1-21.4,0.1c-1.8,0-3.7-0.1-5.5-0.1c-7.1,0-14.3,0.1-21.4,0.1c-1.8,0-3.7-0.1-5.5-0.1
		c-7.1,0-14.3,0.1-21.4,0.1c-1.8,0-3.7-0.1-5.5-0.1c-7.1,0-14.3,0.1-21.4,0.1c-1.8,0-3.7-0.1-5.5-0.1c-9,0-17.9,0-26.9,0.1
		c-7.1,0-14.3,0.1-21.4,0.1c-10.8-0.1-21.5-0.1-32.3-0.1c-7.1,0-14.3,0.1-21.4,0.1c-19.7-0.1-39.5-0.1-59.2-0.1
		c-7.1,0-14.3,0.1-21.4,0.1c-8.8-0.1-17.6-0.1-26.4-0.2c-0.4,8.5-0.9,17,0.3,25.5c-0.8,5.3-0.9,10.7-0.6,16c0.1,1.8,0.2,3.6,0.3,5.4
		c-0.1,9-0.1,17.9-0.1,26.8c0.1,1.9,0.2,3.7,0.3,5.6c-0.4,3.5-0.6,6.9-0.6,10.4c0,0.8,0,1.6,0,2.5c0,1.9,0.1,3.8,0.2,5.7
		c0.1,0.9,0.1,1.8,0.1,2.7h0c0.1,1.9,0.2,3.7,0.3,5.6c-0.9,7.1-0.6,14.2-0.2,21.2c0.1,1.9,0.2,3.7,0.2,5.6
		c-0.4,3.5-0.6,6.9-0.6,10.4c0,0.8,0,1.6,0,2.5c0,1.9,0.1,3.8,0.2,5.7c0.1,0.9,0.1,1.8,0.1,2.7h0c0.1,1.9,0.2,3.7,0.3,5.6
		c-0.4,3.5-0.6,6.9-0.6,10.4c0,0.8,0,1.6,0,2.5c0,1.9,0.1,3.8,0.2,5.7c0.1,0.9,0.1,1.8,0.1,2.7h0c0.1,1.9,0.2,3.7,0.3,5.6
		c-0.9,7.1-0.6,14.2-0.2,21.2c0.1,1.9,0.2,3.7,0.2,5.6c-0.9,7.1-0.6,14.2-0.2,21.2c0.1,1.9,0.2,3.7,0.2,5.6
		c-0.9,7.1-0.6,14.2-0.2,21.2c-0.3,1.9-0.6,3.9,0.9,5.5c0,2.1,0.1,4.3,0.1,6.4c6.2-0.1,12.5-0.1,18.7-0.1c1.8,0,3.6,0,5.4,0.1
		c7.1,0,14.3,0,21.4-0.1c1.8,0,3.6,0,5.4,0.1c7.1,0,14.3,0,21.4-0.1c1.8,0,3.6,0,5.4,0.1c7.1,0,14.3,0,21.4-0.1c1.8,0,3.6,0,5.4,0
		c7.1,0,14.2,0,21.4,0.1c0-1,0.4-1.8,1.4-2.2c0,0.8,0.1,1.5,0.1,2.3c1.3,0,2.6-0.1,4-0.1c7.1,0,14.3,0,21.4-0.1c1.8,0,3.6,0,5.4,0.1
		c7.1,0,14.3,0,21.4-0.1c1.8,0,3.6,0,5.4,0.1c7.1,0,14.3,0,21.4-0.1c1.8,0,3.6,0,5.4,0.1c7.1,0,14.3,0,21.4-0.1c1.8,0,3.6,0,5.4,0.1
		c7.1,0,14.3,0,21.4-0.1c1.8,0,3.6,0,5.4,0.1c7.1,0,14.3,0,21.4-0.1c1.8,0,3.6,0,5.4,0.1c7.1,0,14.3,0,21.4-0.1c1.8,0,3.6,0,5.4,0.1
		c7.1,0,14.3,0,21.4-0.1c1.8,0,3.6,0,5.4,0.1C669.8,536.7,665.7,541.4,665.4,519.7z M474.4,354.1c2.7,0,5.4,0,8.1,0.1
		c6.3,0,12.5,0,18.8-0.1c2.7,0,5.4,0,8.1,0.1c6.3,0,12.5,0,18.8-0.1c2.7,0,5.4,0,8.1,0.1c6.3,0,12.5,0,18.8-0.1
		c1.8,0.1,3.6,0.3,5.3,0.4c0.2,15.7,0.2,15.7-15.4,16c-0.7,0-1.3,0.1-2,0.2h-33.6c-8.1-0.1-16.1-1.2-24.1,1c-0.5-1.5-1.7-1.2-2.8-1
		c-8.1-0.1-16.1-1.2-24.1,1c-0.5-1.5-1.7-1.2-2.8-1c-8.1-0.1-16.1-1.2-24.1,1c-0.5-1.5-1.7-1.2-2.8-1h-26.9
		c-5.3-0.5-12.8,1.8-10.9-8.3c0-1.8,0-3.6,0-5.5c0.1-1.8,1-2.8,2.9-2.9c2.3,0,4.5,0,6.8,0.1c6.7,0,13.4,0,20.1-0.1
		c2.7,0,5.4,0,8.1,0.1c6.3,0,12.5,0,18.8-0.1c2.7,0,5.4,0,8.1,0.1C461.8,354.2,468.1,354.2,474.4,354.1z M477.1,408.2
		c-0.4,1.3-1.4,2.1-2.7,2.6c-1.8,0-3.6,0-5.3-0.1c-1.8-0.1-3.6-0.3-5.4-0.3c-5.4-0.2-10.7-0.1-16.1,0.4c-9-0.8-17.9-0.7-26.9-0.1
		c-1.8,0-3.6,0-5.3,0c-7.2-0.6-14.4-0.6-21.5,0.1c-1.8,0-3.6,0-5.3-0.1c-0.3-0.1-0.6-0.1-0.8-0.1l-0.4,0c-0.2,0-0.4,0-0.6,0
		c-0.3,0-0.7,0-1,0c-0.7,0-1.4,0-2.1,0c-0.2,0-0.5,0-0.7,0c-0.1,0-0.2,0-0.3,0c-0.3,0-0.6,0-0.9-0.1c-0.2,0-0.4-0.1-0.6-0.1
		c-0.3,0-0.6-0.1-0.8-0.2c-0.1,0-0.2-0.1-0.3-0.1c-0.1,0-0.2-0.1-0.3-0.1c-0.1,0-0.2-0.1-0.3-0.1c-0.1-0.1-0.3-0.2-0.4-0.3
		c-0.3-0.2-0.6-0.6-0.9-1c-0.1-0.1-0.2-0.3-0.3-0.5c-0.2-0.4-0.3-0.9-0.4-1.4c0-0.2,0-0.4-0.1-0.6c0-0.4,0-0.8,0-1.2
		c0-0.2,0-0.4,0-0.6c0-0.4,0.1-0.9,0.2-1.3c0-1.8,0-3.6,0-5.5c0.1-1.8,1-3.1,2.8-3.7c2.3,0.8,4.6,0.8,6.9,0.1
		c7.1,0.6,14.3,1.1,21.4-0.3c1.8,1.1,3.6,0.9,5.5,0.3c7.1,0.6,14.3,1.1,21.4-0.3c1.8,1.1,3.6,0.9,5.5,0.3c7.1,0.6,14.3,1.1,21.4-0.3
		c1.8,1.1,3.6,0.9,5.5,0.3c6.3-0.3,10.3,1.7,9.3,9C477.1,404.6,477.1,406.4,477.1,408.2z M424.9,301.9c-1-1.8-2.4-3.1-4.1-4.2
		c-5.9-6.3,1.9-7.7,4.2-10.9c3.2-4.6,4.3,0.5,6.1,1.9c1.5,1.2,3,2.5,4.4,3.7c3.5,3.3,7.1,6.7,10.6,10c7.5,8.9,7.5,8.9-1,17.3
		c-4.3,4.2-8.9,8.2-12.7,12.8c-3.7,4.7-6.8,4.5-10.3,0.2c-0.9-1.7-2.3-3.1-4-4c1.2-4.4,5.2-6.5,8-9.4
		C434.8,310.4,434.9,310.5,424.9,301.9z M360.9,305.9c0-2,1.7-2.3,3.4-2.3c2.2,0,4.4-0.2,6.6-0.3c6.7,0.5,13.4,0.6,20.2-0.1
		c5,0.1,10,0.2,15,0.4c2,0.1,4.6-0.8,5.2,2.4c0,2.2,0,4.5,0.1,6.7c0.8,5.3-2.4,6.6-6.8,6.5c-2.3-0.7-4.6-0.8-6.9-0.1
		c-6.7-0.6-13.4-0.7-20.1,0.1c-2.3-0.7-4.5-0.8-6.8-0.1c-0.4-0.1-0.8-0.3-1.3-0.3c-2.7-0.6-6.9,1.4-8-1.3
		C360.3,314.2,360.9,309.8,360.9,305.9z M322.9,306.5c6.8-6.1,13.1-12.7,19.5-19.3c2.2-2.3,3.5-2.3,5.8-0.1
		c7.1,6.7,7.2,6.6,0.4,13.3c-10.5,10.5-10.5,10.5-0.2,20.8c0.3,0.3,0.7,0.6,0.9,1c1.6,2.1,5.7,4,4.8,5.9c-1.5,3.3-4.6,6.1-7.7,8.1
		c-3.1,2.1-3.8-2.9-6.3-3.3c-1-1.7-2.4-3.1-4.1-4.1c-2.7-3.5-5.8-6.6-9.4-9.3c-1-1.7-2.4-3.1-4.1-4.1
		C319.1,312.2,319.2,309.8,322.9,306.5z M319.9,354.2c6.7,0,13.4,0,20.1,0c2.2,0,4.5,0,6.7,0c6.7,0,13.4,0,20.1,0c2.2,0,4.5,0,6.7,0
		c6.8-1.2,8.8,2.2,8.1,8.3c0,2.2,0,4.5,0.1,6.7c-0.5,1.3-1.7,1.2-2.8,1.6c-1.8,0-3.6,0-5.4,0c-7.2,0-14.3,0-21.5,0
		c-1.8,0-3.6,0-5.4,0c-6.7,0-13.4,0-20.1,0c-2.2,0-4.5,0-6.7,0c-3.4-4.7-0.4-10.1-1.8-15C318.7,355.3,319.2,354.7,319.9,354.2z
		 M327.9,393.3c1.7,1.1,3.6,1,5.5,0.4c7.1,0.5,14.3,1.2,21.4-0.4c1.8,1.1,3.6,1,5.5,0.4c3.9,0,6,1.5,5.4,5.9
		c-0.3,2.4,0.1,4.8,0.1,7.2c0.2,3.1-1.8,3.8-4.3,4c-7.2-0.6-14.3-0.6-21.5,0.1c-1.8,0-3.6,0-5.4-0.1c-5.2-0.1-10.5-0.1-15.7-0.2
		c-0.3-2.6-0.6-5.2-0.9-7.8C316.2,394.4,321.9,393.7,327.9,393.3z M341.6,503.4c1.2,0.9,2.3,2,3.5,3c1.5,2.2,3.3,4.1,5.5,5.5
		c5.9,4.7,0.4,7-1.9,10.3c-4.7,6.5-6.7-0.4-9.8-1.7c-0.8-0.8-1.6-1.6-2.4-2.3c-3.3-4.1-7-7.8-11.1-11.1c-0.8-0.8-1.5-1.5-2.3-2.3
		c-4.8-4-4.4-7.1,0.5-11.2c6-4.9,11.4-10.6,16.5-16.4c3.3-3.7,6-4.5,9.2-0.4c0.5,1.3,1.4,2.2,2.7,2.7c1.3,1.9,2.4,3.4-0.1,5.6
		c-3.7,3.2-6.7,7.1-10.5,10.2C337.8,498.3,338,500.7,341.6,503.4z M348,450.2c-6.7,0.1-13.3,0.1-20,0.1c-2.3,0-4.6-0.1-6.9-0.1
		c-2.7-0.4-2.7-2.4-2.8-4.4c0-3.1-0.2-6.2-0.3-9.3c0.6-1,1.2-1.9,1.8-2.9c7.1,0,14.3-0.1,21.4-0.1c1.8,0,3.7,0.1,5.5,0.1
		c7.1,0,14.2-0.1,21.4-0.1c1.8,0,3.7,0.1,5.5,0.1c7.1,0,14.2-0.1,21.4-0.1c1.8,0,3.7,0.1,5.5,0.1c2.2,0.1,4.5,0.2,6.7,0.2
		c9.2,0,12.6,4.9,9.4,13.8c-1.5,4.3-5.5,1.4-8.1,2.7c-2.3,0-4.5-0.1-6.8-0.1c-7.1,0-14.3,0.1-21.4,0.1c-1.8,0-3.7-0.1-5.5-0.1
		c-6.7,0.1-13.3,0.1-20,0.1C352.6,450.3,350.3,450.2,348,450.2z M367,521L367,521c-1.4-0.9-2.8-1.8-4.2-2.6
		c-0.2-3.9,2.8-6.4,4.5-9.3c6.6-11.2,13.4-22.4,20.1-33.5c0.4-0.3,0.7-0.6,1.1-0.9c11.2,6,11.2,6,4.6,16.7
		c-5.5,8.9-11.3,17.7-16.4,26.8C374.2,523,371.7,524.6,367,521z M441.6,501.1c-7.9,7.8-15.8,15.8-23.8,23.6
		c-0.5,0.5-1.6,0.2-2.5,0.3c-0.9-1.8-2.3-3.1-4-4.1c-3.7-3.1-4.2-5.9,0.1-9.2c3.2-2.4,5.6-5.8,8.7-8.4c3.7-3.1,3.9-5.5-0.5-7.9
		c-1.4-1.4-2.8-2.8-4.2-4.2c-8.1-9.4-8.1-9.4,1.3-18.3l8.8,8.1c1.4,1.4,2.9,2.9,4.3,4.3c3.1,3.1,6.1,6.1,9.2,9.1
		c0.9,0.9,1.8,1.7,2.7,2.6C442.7,498.4,443,499.7,441.6,501.1z M526.5,439.3c-1.3,10.4-1.3,10.4-11.8,11c-0.1,1.7-1.2,2.3-2.7,2.4
		c0-0.8,0-1.6,0-2.4c-0.9,0-1.8,0-2.7,0c-7.1,0-14.3,0-21.5,0.1c-1.8,0-3.6,0-5.4-0.1c-7.1,0-14.3,0-21.4,0
		c-0.1,1.7-1.2,2.3-2.7,2.4c0-0.8,0-1.6,0-2.4c-0.9,0-1.8,0-2.7,0c-7.1,0-14.3,0-21.5,0.1c-5.8,0.8-7.9-1.9-6.8-7.4
		c0.6-3.1-1.5-6.6,1.4-9.3c6.7,0,13.4,0,20.1,0c2.2,0,4.5,0,6.7,0c6.7,0,13.4,0,20.1,0c2.2,0,4.5,0,6.7,0c6.7,0,13.4,0,20.1,0
		c2.2,0,4.5,0,6.7,0c5.3,0.1,10.7,0.1,16,0.2c0.4,1.3,0.8,2.6,1.1,3.9c0.6,0.1,1.3,0.1,1.9,0.1C528.1,438.7,527.6,439.3,526.5,439.3
		z M529.5,410.8c-2.2-0.8-4.5-0.9-6.7,0c-6.7,0-13.4,0-20.1,0c-2.2-0.8-4.5-0.9-6.7,0c-6.2,0.8-8.1-2.4-7.6-8.1
		c0.1-0.8-0.2-1.7-0.3-2.6c0.1-4.3,2.3-6.4,6.6-6.4c6.7,0.8,13.4,0.9,20.1-0.1c2.3,0.8,4.5,0.8,6.8,0.1c6.7,0.8,13.3,0.9,20-0.1
		c2.3,0.8,4.6,0.8,6.8,0.1c5.5,0.3,11,0.5,16.5,0.8c0.2,2.3,0.4,4.7,0.6,7c0.8,5-1,7.2-3.8,8.4c-0.3,0.1-0.6,0.2-0.8,0.3
		c-0.1,0.1-0.3,0.1-0.4,0.1c-0.3,0.1-0.6,0.2-0.9,0.3c-0.2,0-0.3,0.1-0.5,0.1c-0.6,0.2-1.3,0.3-1.9,0.4l-1,0.2
		c-0.5,0.1-1,0.2-1.4,0.3c-1.3-2.2-3.2-1.6-5.1-1C542.9,410.8,536.2,410.8,529.5,410.8z M573.2,450c-1.1,0-2.2,0.2-3.3,0.3v0
		c-2.3-0.1-4.5-0.1-6.8-0.1c-6.7,0-13.4,0.1-20.1,0.1v0c-2.2-0.2-4.4-0.5-6.6-0.7c-0.1-15.6-0.1-15.6,15.3-15.8
		c1.5,0,3.1-0.2,4.6-0.3c1.8,0,3.6,0.1,5.4,0.1c7.1,0,14.3-0.1,21.4-0.1c1.8,0.2,3.5,0.3,5.3,0.5C588.9,449.5,588.9,449.5,573.2,450
		z M615.5,370.8c-6.7,0-13.4,0-20.1,0.1c-1.8,0-3.6,0-5.4,0c-6.7-0.1-13.4-0.2-20.1-0.3c-0.2-1.3-0.4-2.7-0.6-4
		c0.9-11.6,0.9-11.6,12.6-12.4c2.7,0,5.4,0.1,8.1,0.1c6.2,0,12.5,0,18.8-0.1c2.7,0.2,5.3,0.3,8,0.5c0.1,4.9,0.2,9.7,0.3,14.6
		C616.5,369.7,616,370.2,615.5,370.8z"/>
	<path class="st15" d="M365.8,406.8c0.2,3.1-1.8,3.8-4.3,4c-7.2-0.6-14.3-0.6-21.5,0.1c-1.8,0-3.6,0-5.4-0.1
		c-5.2-0.1-10.5-0.1-15.7-0.2c-0.3-2.6-0.6-5.2-0.9-7.8c-1.8-8.4,3.9-9,9.9-9.4c1.7,1.1,3.6,1,5.5,0.4c7.1,0.5,14.3,1.2,21.4-0.4
		c1.8,1.1,3.6,1,5.5,0.4c3.9,0,6,1.5,5.4,5.9C365.3,402,365.7,404.4,365.8,406.8z"/>
	<path class="st9" d="M284.8,297.9L284.8,297.9C284.9,297.9,284.9,297.9,284.8,297.9L284.8,297.9z"/>
</g>
</svg>
